<svg id="Layer_1" data-name="Layer 1" xmlns="http://www.w3.org/2000/svg" viewBox="0 0 1000 1700">
  <defs>
    <style>
      .cls-1, .cls-11, .cls-2 {
        fill: #2d98d4;
      }

      .cls-1 {
        opacity: 0.19;
      }

      .cls-3 {
        font-size: 13.35px;
        fill: #333;
        font-family: Ubuntu-Light, Ubuntu;
        font-weight: 300;
      }

      .cls-4 {
        letter-spacing: -0.02em;
      }

      .cls-5 {
        letter-spacing: 0.01em;
      }

      .cls-12, .cls-6 {
        fill: none;
      }

      .cls-7 {
        letter-spacing: 0.01em;
      }

      .cls-8 {
        letter-spacing: 0.02em;
      }

      .cls-9 {
        letter-spacing: -0.01em;
      }

      .cls-10 {
        letter-spacing: 0.02em;
      }

      .cls-11 {
        fill-rule: evenodd;
      }

      .cls-12 {
        stroke: #2d98d4;
        stroke-miterlimit: 10;
        stroke-width: 2px;
      }
    </style>
  </defs>
  <title>how-it-works-1x</title>
  <g>
    <g>
      <g>
        <circle class="cls-1" cx="779.09" cy="1102.95" r="88.78"/>
        <path class="cls-2" d="M811,1056.46h-15.6a21.58,21.58,0,0,0-32.71,0h-15.6a9.16,9.16,0,0,0-9.15,9.15v82.19a9.17,9.17,0,0,0,9.15,9.15H811a9.16,9.16,0,0,0,9.15-9.15v-82.19A9.15,9.15,0,0,0,811,1056.46Zm-31.95-3.67a17.84,17.84,0,1,1-17.84,17.84A17.86,17.86,0,0,1,779.09,1052.79Zm37.27,95a5.32,5.32,0,0,1-5.32,5.32H747.13a5.33,5.33,0,0,1-5.32-5.32v-82.19a5.32,5.32,0,0,1,5.32-5.32h12.92a21.46,21.46,0,0,0-2.63,10.34,21.67,21.67,0,1,0,43.34,0,21.47,21.47,0,0,0-2.64-10.34H811a5.32,5.32,0,0,1,5.32,5.32v82.19Zm-54.49-31.27-5,5-2.81-2.81a1.92,1.92,0,1,0-2.71,2.71l4.16,4.16a1.92,1.92,0,0,0,1.36.56,1.9,1.9,0,0,0,1.35-.56l6.38-6.38a1.92,1.92,0,0,0-2.71-2.71ZM763,1132a1.92,1.92,0,0,0-2.71,0L758,1134.3l-2.34-2.33a1.91,1.91,0,1,0-2.7,2.7l2.33,2.34-2.33,2.34a1.91,1.91,0,0,0,1.35,3.26,1.87,1.87,0,0,0,1.35-.56l2.34-2.33,2.33,2.33a1.87,1.87,0,0,0,1.35.56,1.91,1.91,0,0,0,1.36-3.26l-2.34-2.34,2.34-2.34A1.91,1.91,0,0,0,763,1132Zm40.91-11.84H774.17a1.92,1.92,0,0,0,0,3.83h29.74a1.92,1.92,0,1,0,0-3.83Zm0-15H774.17a1.92,1.92,0,0,0,0,3.83h29.74a1.92,1.92,0,1,0,0-3.83Zm0,29.95H774.17a1.91,1.91,0,1,0,0,3.82h29.74a1.91,1.91,0,1,0,0-3.82Zm-42-33.54-5,5-2.81-2.81a1.91,1.91,0,0,0-2.71,2.7l4.16,4.17a1.92,1.92,0,0,0,1.36.56,1.9,1.9,0,0,0,1.35-.56l6.38-6.38a1.92,1.92,0,0,0-2.71-2.71Zm7.44-29h7.86v7.88a1.92,1.92,0,1,0,3.83,0v-7.88h7.88a1.92,1.92,0,0,0,0-3.83H781v-7.85a1.92,1.92,0,1,0-3.83,0v7.85h-7.86a1.92,1.92,0,1,0,0,3.83Z"/>
      </g>
      <path class="cls-2" d="M525.93,1058.1H701.48v1.18H525.93c-6.09,0-11,3.94-11,8.78v69.79c0,4.84,4.94,8.78,11,8.78H701.48v1.18H525.93c-6.9,0-12.52-4.47-12.52-10v-69.79C513.41,1062.56,519,1058.1,525.93,1058.1Z"/>
      <text class="cls-3" transform="translate(556.87 1098.88)"><tspan class="cls-4">P</tspan><tspan x="7.62" y="0">erform Damage </tspan><tspan class="cls-5" x="15.61" y="16.02">A</tspan><tspan x="24.34" y="16.02">ssessment</tspan></text>
    </g>
    <g>
      <g>
        <circle class="cls-1" cx="246.66" cy="880.71" r="88.78"/>
        <g>
          <g>
            <g>
              <path class="cls-2" d="M282.85,830.09H267.92a3.38,3.38,0,0,1,.19.64l.35,2.1h11.45a2.83,2.83,0,0,1,2.77,2.88v69.22l.6-.76c.29-.37.59-.75.89-1.11s.68-.84,1-1.25h0l.18-.22V832.72A2.58,2.58,0,0,0,282.85,830.09ZM224,924.23l-.67-1.22h0a2.84,2.84,0,0,1-2.68-2.88v-2l-1-1.85h0v0l-1.65-3h0v9.8a2.68,2.68,0,0,0,.27,1.17l0,0a2.5,2.5,0,0,0,2.25,1.44h4.36Zm-3.52-94.14a2.57,2.57,0,0,0-2.51,2.31h0a1.63,1.63,0,0,0,0,.31v2.87h0l3.2-1.93h0l5.93-3.56Zm64.25,82.4c-.68,1.22-1.34,2.49-2,3.79v3.85a2.83,2.83,0,0,1-2.77,2.88h-.49c-.4.9-.82,1.81-1.22,2.74h4.65a2.58,2.58,0,0,0,2.53-2.64V911.24ZM266.3,923H245.71l-1.15.69-3.4,2h26.67Zm-22.86-92.92,1.13,2,2.82-.51h0l8.29-1.52Z"/>
              <g>
                <path class="cls-2" d="M272.82,858.54l.58,3.47h2.94a1.67,1.67,0,0,0,1.6-1.74,1.82,1.82,0,0,0-.47-1.23,1.53,1.53,0,0,0-1.13-.5Z"/>
                <path class="cls-2" d="M266.52,861.61l-2.15.4h3.46a1.58,1.58,0,0,0-1.05-.42A1.14,1.14,0,0,0,266.52,861.61Z"/>
                <path class="cls-2" d="M276.34,866.51h-2.18l.59,3.47h1.59a1.51,1.51,0,0,0,1.07-.44,1.79,1.79,0,0,0,.53-1.3,1.82,1.82,0,0,0-.47-1.22,1.55,1.55,0,0,0-1.13-.51Z"/>
                <path class="cls-2" d="M276.88,882.57l.5,2.95a1.84,1.84,0,0,0,.09-2.55A1.59,1.59,0,0,0,276.88,882.57Z"/>
                <path class="cls-2" d="M277.47,891a1.51,1.51,0,0,0-.48-.36l.94,1.7a.41.41,0,0,0,0-.11A1.8,1.8,0,0,0,277.47,891Z"/>
                <path class="cls-2" d="M276.34,874.49h-.82l.58,3.47h.24a1.66,1.66,0,0,0,1.6-1.74,1.8,1.8,0,0,0-.47-1.22A1.54,1.54,0,0,0,276.34,874.49Z"/>
              </g>
            </g>
            <g>
              <path class="cls-2" d="M281.55,899a2.77,2.77,0,0,0-.28-.7h0l-2.47-4.46v0l1.43,8.4h0l0,0a2.48,2.48,0,0,0,.59-.48l.24-.28a3.13,3.13,0,0,0,.35-.65A3,3,0,0,0,281.55,899Zm0,0a2.77,2.77,0,0,0-.28-.7h0l-2.47-4.46v0l1.43,8.4h0l0,0a2.48,2.48,0,0,0,.59-.48l.24-.28a3.13,3.13,0,0,0,.35-.65A3,3,0,0,0,281.55,899Zm0,0a2.77,2.77,0,0,0-.28-.7h0l-2.47-4.46v0l1.43,8.4h0l0,0a2.48,2.48,0,0,0,.59-.48l.24-.28a3.13,3.13,0,0,0,.35-.65A3,3,0,0,0,281.55,899Zm0,0a2.77,2.77,0,0,0-.28-.7h0l-2.47-4.46v0l1.43,8.4h0l0,0a2.48,2.48,0,0,0,.59-.48l.24-.28a3.13,3.13,0,0,0,.35-.65A3,3,0,0,0,281.55,899Zm0,0a2.77,2.77,0,0,0-.28-.7h0l-2.47-4.46v0l1.43,8.4h0l0,0a2.48,2.48,0,0,0,.59-.48l.24-.28a3.13,3.13,0,0,0,.35-.65A3,3,0,0,0,281.55,899Zm0,0a2.77,2.77,0,0,0-.28-.7h0l-2.47-4.46v0l1.43,8.4h0l0,0a2.48,2.48,0,0,0,.59-.48l.24-.28a3.13,3.13,0,0,0,.35-.65A3,3,0,0,0,281.55,899Zm0,0a2.77,2.77,0,0,0-.28-.7h0l-2.47-4.46v0l1.43,8.4h0l0,0a2.48,2.48,0,0,0,.59-.48l.24-.28a3.13,3.13,0,0,0,.35-.65A3,3,0,0,0,281.55,899Zm0,0a2.77,2.77,0,0,0-.28-.7h0l-2.47-4.46v0l1.43,8.4h0l0,0a2.48,2.48,0,0,0,.59-.48l.24-.28a3.13,3.13,0,0,0,.35-.65A3,3,0,0,0,281.55,899Zm0,0a2.77,2.77,0,0,0-.28-.7h0l-2.47-4.46v0l1.43,8.4h0l0,0a2.48,2.48,0,0,0,.59-.48l.24-.28a3.13,3.13,0,0,0,.35-.65A3,3,0,0,0,281.55,899Zm0,0a2.77,2.77,0,0,0-.28-.7h0l-2.47-4.46v0l1.43,8.4h0l0,0a2.48,2.48,0,0,0,.59-.48l.24-.28a3.13,3.13,0,0,0,.35-.65A3,3,0,0,0,281.55,899Zm0,0a2.77,2.77,0,0,0-.28-.7h0l-2.47-4.46v0l1.43,8.4h0l0,0a2.48,2.48,0,0,0,.59-.48l.24-.28a3.13,3.13,0,0,0,.35-.65A3,3,0,0,0,281.55,899Zm0,0a2.77,2.77,0,0,0-.28-.7h0l-2.47-4.46v0l1.43,8.4h0l0,0a2.48,2.48,0,0,0,.59-.48l.24-.28a3.13,3.13,0,0,0,.35-.65A3,3,0,0,0,281.55,899Zm0,0a2.77,2.77,0,0,0-.28-.7h0l-2.47-4.46v0l1.43,8.4h0l0,0a2.48,2.48,0,0,0,.59-.48l.24-.28a3.13,3.13,0,0,0,.35-.65A3,3,0,0,0,281.55,899Zm0,0a2.77,2.77,0,0,0-.28-.7h0l-2.47-4.46v0l1.43,8.4h0l0,0a2.48,2.48,0,0,0,.59-.48l.24-.28a3.13,3.13,0,0,0,.35-.65A3,3,0,0,0,281.55,899Zm0,0a2.77,2.77,0,0,0-.28-.7h0l-2.47-4.46v0l1.43,8.4h0l0,0a2.48,2.48,0,0,0,.59-.48l.24-.28a3.13,3.13,0,0,0,.35-.65A3,3,0,0,0,281.55,899Zm0,0a2.77,2.77,0,0,0-.28-.7h0l-2.47-4.46v0l1.43,8.4h0l0,0a2.48,2.48,0,0,0,.59-.48l.24-.28a3.13,3.13,0,0,0,.35-.65A3,3,0,0,0,281.55,899Zm0,0a2.77,2.77,0,0,0-.28-.7h0l-2.47-4.46v0l1.43,8.4h0l0,0a2.48,2.48,0,0,0,.59-.48l.24-.28a3.13,3.13,0,0,0,.35-.65A3,3,0,0,0,281.55,899Zm-56,28.17-1.33.24a2.62,2.62,0,0,1-1.81-.31h0a2.83,2.83,0,0,1-1.2-1.35h0a2.67,2.67,0,0,1-.19-.66l-.11-.67v0l-1.36-8.06h0v0l-1.66-3h0l-2.28-4.12,1.38,8.07h0l.9,5.4v0l.27,1.57v0l.71,4.22a2.53,2.53,0,0,0,2.93,2.13l2.35-.43h0l2.82-.51h0Zm56-28.17a2.77,2.77,0,0,0-.28-.7h0l-2.47-4.46v0l1.43,8.4h0l0,0a2.48,2.48,0,0,0,.59-.48l.24-.28a3.13,3.13,0,0,0,.35-.65A3,3,0,0,0,281.55,899Zm0,0a2.77,2.77,0,0,0-.28-.7h0l-2.47-4.46v0l1.43,8.4h0l0,0a2.48,2.48,0,0,0,.59-.48l.24-.28a3.13,3.13,0,0,0,.35-.65A3,3,0,0,0,281.55,899Zm0,0a2.77,2.77,0,0,0-.28-.7h0l-2.47-4.46v0l1.43,8.4h0l0,0a2.48,2.48,0,0,0,.59-.48l.24-.28a3.13,3.13,0,0,0,.35-.65A3,3,0,0,0,281.55,899Zm0,0a2.77,2.77,0,0,0-.28-.7h0l-2.47-4.46v0l1.43,8.4h0l0,0a2.48,2.48,0,0,0,.59-.48l.24-.28a3.13,3.13,0,0,0,.35-.65A3,3,0,0,0,281.55,899Zm0,0a2.77,2.77,0,0,0-.28-.7h0l-2.47-4.46v0l1.43,8.4h0l0,0a2.48,2.48,0,0,0,.59-.48l.24-.28a3.13,3.13,0,0,0,.35-.65A3,3,0,0,0,281.55,899Zm0,0a2.77,2.77,0,0,0-.28-.7h0l-2.47-4.46v0l1.43,8.4h0l0,0a2.48,2.48,0,0,0,.59-.48l.24-.28a3.13,3.13,0,0,0,.35-.65A3,3,0,0,0,281.55,899Zm0,0a2.77,2.77,0,0,0-.28-.7h0l-2.47-4.46v0l1.43,8.4h0l0,0a2.48,2.48,0,0,0,.59-.48l.24-.28a3.13,3.13,0,0,0,.35-.65A3,3,0,0,0,281.55,899Zm0,0a2.77,2.77,0,0,0-.28-.7h0l-2.47-4.46v0l1.43,8.4h0l0,0a2.48,2.48,0,0,0,.59-.48l.24-.28a3.13,3.13,0,0,0,.35-.65A3,3,0,0,0,281.55,899Zm0,0a2.77,2.77,0,0,0-.28-.7h0l-2.47-4.46v0l1.43,8.4h0l0,0a2.48,2.48,0,0,0,.59-.48l.24-.28a3.13,3.13,0,0,0,.35-.65A3,3,0,0,0,281.55,899Zm0,0a2.77,2.77,0,0,0-.28-.7h0l-2.47-4.46v0l1.43,8.4h0l0,0a2.48,2.48,0,0,0,.59-.48l.24-.28a3.13,3.13,0,0,0,.35-.65A3,3,0,0,0,281.55,899Zm0,0a2.77,2.77,0,0,0-.28-.7h0l-2.47-4.46v0l1.43,8.4h0l0,0a2.48,2.48,0,0,0,.59-.48l.24-.28a3.13,3.13,0,0,0,.35-.65A3,3,0,0,0,281.55,899Zm0,0a2.77,2.77,0,0,0-.28-.7h0l-2.47-4.46v0l1.43,8.4h0l0,0a2.48,2.48,0,0,0,.59-.48l.24-.28a3.13,3.13,0,0,0,.35-.65A3,3,0,0,0,281.55,899Zm0,0a2.77,2.77,0,0,0-.28-.7h0l-2.47-4.46v0l1.43,8.4h0l0,0a2.48,2.48,0,0,0,.59-.48l.24-.28a3.13,3.13,0,0,0,.35-.65A3,3,0,0,0,281.55,899Zm0,0a2.77,2.77,0,0,0-.28-.7h0l-2.47-4.46v0l1.43,8.4h0l0,0a2.48,2.48,0,0,0,.59-.48l.24-.28a3.13,3.13,0,0,0,.35-.65A3,3,0,0,0,281.55,899Zm0,0a2.77,2.77,0,0,0-.28-.7h0l-2.47-4.46v0l1.43,8.4h0l0,0a2.48,2.48,0,0,0,.59-.48l.24-.28a3.13,3.13,0,0,0,.35-.65A3,3,0,0,0,281.55,899Zm0,0a2.77,2.77,0,0,0-.28-.7h0l-2.47-4.46v0l1.43,8.4h0l0,0a2.48,2.48,0,0,0,.59-.48l.24-.28a3.13,3.13,0,0,0,.35-.65A3,3,0,0,0,281.55,899Zm0,0a2.77,2.77,0,0,0-.28-.7h0l-2.47-4.46v0l1.43,8.4h0l0,0a2.48,2.48,0,0,0,.59-.48l.24-.28a3.13,3.13,0,0,0,.35-.65A3,3,0,0,0,281.55,899Zm0,0a2.77,2.77,0,0,0-.28-.7h0l-2.47-4.46v0l1.43,8.4h0l0,0a2.48,2.48,0,0,0,.59-.48l.24-.28a3.13,3.13,0,0,0,.35-.65A3,3,0,0,0,281.55,899Zm-60.44-65.36-3.2.59h0l-4.35.8-7.67,1.4a2.63,2.63,0,0,0-2.06,3l.21,1.26h0l.49,2.88h0l2.47-1.5h0l0-.18a2.88,2.88,0,0,1,2.25-3.34l5.25-1,3.43-2.07h0l2-1.21,1.2-.73ZM264.63,920l-12.47,2.29h0l-2.29.42-1.5.28h0l-3.76.69h0l-3.38,2h0l-3.26,2,7.58-1.39h0l3.1-.57h0l2.52-.47L263.49,923h0l2.51-.46Zm7.81-1.43.27.46.38-.58Zm10.76-14.94-.51-3v0l-1.31-7.72v0l-2.48-14.67-1.47-8.65h0l-.49-2.89h0l-.78-4.63h0l-.59-3.47h0l-4.36-25.69h0l-.46-2.74-.47-2.78a2.55,2.55,0,0,0-2.94-2.14L246,829.1h0l-2.81.5.2.39.06.1h0l1.12,2h0l2.81-.52h0l8.29-1.52h0l9.19-1.69a2.78,2.78,0,0,1,3,1.69,4.45,4.45,0,0,1,.19.65l.35,2.09h0l4.35,25.69h0l.58,3.47h0l.77,4.5h0l.59,3.47.76,4.5.59,3.47h0l.06.34.72,4.27.5,2.94h0l0,.24v0l1.37,8.07v0l1.43,8.4h0l.48,2.88h0l.33,1.92c.54-.72,1.09-1.44,1.64-2.14l.6-.76Zm2.14,12.68-.65-3.84c-.68,1.22-1.34,2.49-2,3.79-.59,1.14-1.17,2.32-1.76,3.53l1.76-.32h0l.61-.11a2.6,2.6,0,0,0,2.08-2.58A2.42,2.42,0,0,0,285.34,916.33Z"/>
              <path class="cls-2" d="M257.37,855.2l1.77,3.2,2.83-.52,3.8-.7a1.71,1.71,0,0,0,1.29-2,1.67,1.67,0,0,0-1.6-1.44l-.27,0-5,.92Z"/>
              <path class="cls-2" d="M261.44,862.55l1.78,3.2,2.82-.52,1.06-.2a1.69,1.69,0,0,0,1.28-2,1.78,1.78,0,0,0-.54-1,1.58,1.58,0,0,0-1-.42,1.09,1.09,0,0,0-.26,0l-2.15.39-.11,0Z"/>
              <path class="cls-2" d="M269.63,877.32a1.53,1.53,0,0,1,1.07.64,1.82,1.82,0,0,1,.25,1.73L270,878Z"/>
              <path class="cls-2" d="M265.06,870h.51l1.72,3.11,1.14-.21a1.58,1.58,0,0,0,1.22-1.15,1.81,1.81,0,0,0-.37-1.75,1.57,1.57,0,0,0-.88-.52h0l-.28,0-.27,0-2.33.43Z"/>
            </g>
            <g>
              <path class="cls-2" d="M285,899.49l-2.35-4.25v0l-1.31-2.33v0l-3.93-7.09v0l-.09-.18h0l-1.73-3.1-2.12-3.83-.37-.68-1.93-3.46-1.52-2.76h0l-1-1.75-.29-.51h0l-1.63-3-.72-1.29-1.77-3.2h0v0l-1.92-3.47-.37-.66-1.78-3.2h0l-2.9-5.23L255.36,846l-.07-.13-1.52-2.74-5.68-10.27-.69-1.23-.85-1.51h0l-.55-1-4.35-7.88a2.48,2.48,0,0,0-3.46-1l-16.37,9.84h0l-3.87,2.31-4.38,2.64L204,840.77l-19.9,12a2.69,2.69,0,0,0-.92,3.6L217,917.26h0l.9,1.64v0l3,5.47,0,0,.74,1.33.77,1.36h0l1.72,3.11h0l2.42,4.37a2.5,2.5,0,0,0,3.48,1l15.4-9.26h0l.95-.57h0l3.76-2.27L251,923h0l1.16-.7h0l10.29-6.18-1.32-2.38-12,7.21-3.4,2h0l-1.15.69h0l-3.38,2h0l-3.26,2-6.6,4a2.71,2.71,0,0,1-3.78-1l-.52-.91-1.4-2.53-.8-1.43h0l-.84-1.52-.67-1.22h0l-2.67-4.82h0l-1-1.85h0v0l-1.65-3h0l-2.28-4.12L187,857.52a3,3,0,0,1,1-3.94l16.53-9.93h0l2.47-1.5h0l7.46-4.49,3.44-2.06,2-1.22,1.2-.73,5.93-3.55,9.88-5.94a2.71,2.71,0,0,1,3.79,1.05l2.44,4.4.21.38.06.1h0l1.12,2h0l.38.71,6,10.78,1.29,2.36.48.84,1.45,2.63,3.2,5.75.59,1.06.3.54.88,1.6.08.14,1.92,3.47.31.54,1.77,3.2.43.77,1.87,3.38h0l.05.08h0l1.72,3.11h0l.78,1.39,1.56,2.81h0l.11.19.05.11.19.34.71,1.28.25.45,1.54,2.78,1.92,3.47,2.58,4.65h0l.94,1.7h0l.86,1.54v0l2.47,4.44h0a2.77,2.77,0,0,1,.28.7,3.05,3.05,0,0,1-.11,1.82,3.13,3.13,0,0,1-.35.65l-.24.28a2.48,2.48,0,0,1-.59.48l0,0h0l-6.87,4.13-5.77,3.48-.21.12,1.38,2.34,4.1-2.46,4.73-2.85,3.13-1.88h0l2-1.19h0l.51-.3.91-.55.06,0c.34-.42.68-.84,1-1.25h0a2.78,2.78,0,0,0,.18-1A2.66,2.66,0,0,0,285,899.49Zm-23.91,14.26-12,7.21-3.4,2h0l-1.15.69,3.76-.69H250l-.13-.28,2.29-.42h0l10.29-6.18Zm19.1-11.48h0l-6.87,4.13-5.77,3.48-.21.12,1.38,2.34,4.1-2.46,4.73-2.85,3.13-1.88h0ZM270,878l-.19-.34.19.34.71,1.28Zm-45.19,47.8h0l-.84-1.52-.67-1.22h0l-2.67-4.82h0l-1-1.85,1.36,8.06v0l.74,1.33.77,1.36h0a2.62,2.62,0,0,0,1.81.31l1.33-.24Zm-6.89-90.17h0l-3.43,2.07,3.44-2.06,2-1.22Zm-8.69,3A2.88,2.88,0,0,0,207,842l0,.18,7.46-4.49Zm51.91,75.12-12,7.21-3.4,2h0l-1.15.69,3.76-.69H250l-.13-.28,2.29-.42h0l10.29-6.18Zm19.1-11.48h0l-6.87,4.13-5.77,3.48-.21.12,1.38,2.34,4.1-2.46,4.73-2.85,3.13-1.88h0ZM270,878l-.19-.34.19.34.71,1.28Zm-45.19,47.8h0l-.84-1.52-.67-1.22h0l-2.67-4.82h0l-1-1.85,1.36,8.06v0l.74,1.33.77,1.36h0a2.62,2.62,0,0,0,1.81.31l1.33-.24Zm-6.89-90.17h0l-3.43,2.07,3.44-2.06,2-1.22Zm-8.69,3A2.88,2.88,0,0,0,207,842l0,.18,7.46-4.49ZM270,878l-.19-.34.19.34.71,1.28Zm-8.86,35.79-12,7.21-3.4,2h0l-1.15.69,3.76-.69H250l-.13-.28,2.29-.42h0l10.29-6.18Zm-36.33,12h0l-.84-1.52-.67-1.22h0l-2.67-4.82h0l-1-1.85,1.36,8.06v0l.74,1.33.77,1.36h0a2.62,2.62,0,0,0,1.81.31l1.33-.24Zm-6.89-90.17h0l-3.43,2.07,3.44-2.06,2-1.22Zm-8.69,3A2.88,2.88,0,0,0,207,842l0,.18,7.46-4.49ZM270,878l-.19-.34.19.34.71,1.28Zm-8.86,35.79-12,7.21-3.4,2h0l-1.15.69,3.76-.69H250l-.13-.28,2.29-.42h0l10.29-6.18Zm-36.33,12h0l-.84-1.52-.67-1.22h0l-2.67-4.82h0l-1-1.85,1.36,8.06v0l.74,1.33.77,1.36h0a2.62,2.62,0,0,0,1.81.31l1.33-.24Zm-6.89-90.17h0l-3.43,2.07,3.44-2.06,2-1.22Zm-8.69,3A2.88,2.88,0,0,0,207,842l0,.18,7.46-4.49Zm0,0A2.88,2.88,0,0,0,207,842l0,.18,7.46-4.49Zm8.69-3h0l-3.43,2.07,3.44-2.06,2-1.22Zm6.89,90.17h0l-.84-1.52-.67-1.22h0l-2.67-4.82h0l-1-1.85,1.36,8.06v0l.74,1.33.77,1.36h0a2.62,2.62,0,0,0,1.81.31l1.33-.24Zm36.33-12-12,7.21-3.4,2h0l-1.15.69,3.76-.69H250l-.13-.28,2.29-.42h0l10.29-6.18ZM270,878l-.19-.34.19.34.71,1.28Zm-60.77-39.33A2.88,2.88,0,0,0,207,842l0,.18,7.46-4.49Zm8.69-3h0l-3.43,2.07,3.44-2.06,2-1.22Zm6.89,90.17h0l-.84-1.52-.67-1.22h0l-2.67-4.82h0l-1-1.85,1.36,8.06v0l.74,1.33.77,1.36h0a2.62,2.62,0,0,0,1.81.31l1.33-.24Zm36.33-12-12,7.21-3.4,2h0l-1.15.69,3.76-.69H250l-.13-.28,2.29-.42h0l10.29-6.18ZM270,878l-.19-.34.19.34.71,1.28Zm-60.77-39.33A2.88,2.88,0,0,0,207,842l0,.18,7.46-4.49Zm8.69-3h0l-3.43,2.07,3.44-2.06,2-1.22Zm6.89,90.17h0l-.84-1.52-.67-1.22h0l-2.67-4.82h0l-1-1.85,1.36,8.06v0l.74,1.33.77,1.36h0a2.62,2.62,0,0,0,1.81.31l1.33-.24ZM270,878l-.19-.34.19.34.71,1.28Zm-8.86,35.79-12,7.21-3.4,2h0l-1.15.69,3.76-.69H250l-.13-.28,2.29-.42h0l10.29-6.18Zm19.1-11.48h0l-6.87,4.13-5.77,3.48-.21.12,1.38,2.34,4.1-2.46,4.73-2.85,3.13-1.88h0Zm-71-63.64A2.88,2.88,0,0,0,207,842l0,.18,7.46-4.49Zm8.69-3h0l-3.43,2.07,3.44-2.06,2-1.22Zm6.89,90.17h0l-.84-1.52-.67-1.22h0l-2.67-4.82h0l-1-1.85,1.36,8.06v0l.74,1.33.77,1.36h0a2.62,2.62,0,0,0,1.81.31l1.33-.24ZM270,878l-.19-.34.19.34.71,1.28Zm-8.86,35.79-12,7.21-3.4,2h0l-1.15.69,3.76-.69H250l-.13-.28,2.29-.42h0l10.29-6.18Zm19.1-11.48h0l-6.87,4.13-5.77,3.48-.21.12,1.38,2.34,4.1-2.46,4.73-2.85,3.13-1.88h0Zm-71-63.64A2.88,2.88,0,0,0,207,842l0,.18,7.46-4.49Zm8.69-3h0l-3.43,2.07,3.44-2.06,2-1.22Zm6.89,90.17h0l-.84-1.52-.67-1.22h0l-2.67-4.82h0l-1-1.85,1.36,8.06v0l.74,1.33.77,1.36h0a2.62,2.62,0,0,0,1.81.31l1.33-.24ZM270,878l-.19-.34.19.34.71,1.28Zm-8.86,35.79-12,7.21-3.4,2h0l-1.15.69,3.76-.69H250l-.13-.28,2.29-.42h0l10.29-6.18Zm19.1-11.48h0l-6.87,4.13-5.77,3.48-.21.12,1.38,2.34,4.1-2.46,4.73-2.85,3.13-1.88h0Z"/>
              <g>
                <path class="cls-2" d="M225.45,856.45l15.13-9.09,2-1.21h0l.59-.36a1.56,1.56,0,0,1,.76-.21,1.51,1.51,0,0,1,.74.19h0a1.77,1.77,0,0,1,.71.7,1.82,1.82,0,0,1,.23.89,1.67,1.67,0,0,1-.78,1.44l-12.73,7.65-2,1.23h0l-3.73,2.23-4.73,2.85-3.36,2-2.71,1.62-5.84,3.51-2.49,1.5-5.15,3.1a1.59,1.59,0,0,1-2.21-.67,1.73,1.73,0,0,1,.55-2.34l6.2-3.73,2.48-1.49,4.38-2.63,2.08-1.25,2.71-1.63,2.21-1.33h0l2.54-1.52Z"/>
                <path class="cls-2" d="M203.69,880.76a1.59,1.59,0,0,0,2.21.67l2.73-1.65,2.5-1.49,4.42-2.66,2.71-1.63,6-3.62h0l4.1-2.47,4.32-2.59h0l1.44-.87,7.51-4.51,2-1.21h0l3.76-2.26,1.24-.74a1.63,1.63,0,0,0,.77-1.58,1.79,1.79,0,0,0-.22-.76,1.68,1.68,0,0,0-1.45-.89,1.52,1.52,0,0,0-.76.22l-4.49,2.7h0l-1.75,1.05L235,859.92l-.93.56-6.58,3.95L223.2,867l-.06,0L218.26,870l-2.71,1.62-.28.18h0l-4.76,2.85-2.48,1.5-3.78,2.27A1.73,1.73,0,0,0,203.69,880.76Z"/>
                <path class="cls-2" d="M239.11,875.88l.3-.18,5.48-3.29,3-1.79,4.53-2.72,2.29-1.38a1.55,1.55,0,0,1,.77-.22,1.68,1.68,0,0,1,1.45.89,1.72,1.72,0,0,1,.22.71,1.79,1.79,0,0,1-.22,1.07,1.64,1.64,0,0,1-.55.56l-4.79,2.88L249,873.94l-3.23,1.94-7.5,4.51-.22.13-5.55,3.33-2.89,1.74h0L225,888.36l-1.93,1.16h0l-4.82,2.9L215.55,894,214,895l-.4.23a1.61,1.61,0,0,1-2.22-.67,1.73,1.73,0,0,1,.56-2.33l1.44-.87,2.21-1.33,2.71-1.63,1.74-1h0l5.84-3.51,2.61-1.57,3.15-1.89Z"/>
                <path class="cls-2" d="M215.17,901.48a1.61,1.61,0,0,0,.38.46,1.54,1.54,0,0,0,1.84.21l.87-.52,1.46-.87,1.58-1h0l1.8-1.07,4-2.39,5.2-3.11h0l2.29-1.38,5.79-3.47.34-.22h0l7.11-4.28,3.83-2.3,1.94-1.16,6.52-3.92.06,0a1.5,1.5,0,0,0,.54-.55,1.74,1.74,0,0,0,0-1.78,1.65,1.65,0,0,0-1.44-.88,1.45,1.45,0,0,0-.78.21l-4.08,2.45-3.91,2.36-3.59,2.15-4.86,2.93-.91.53-7.48,4.51-2.56,1.53-3.23,1.94L222.67,895h0l-4.4,2.65-2.53,1.52-.18.12A1.76,1.76,0,0,0,215.17,901.48Z"/>
                <path class="cls-2" d="M207.52,887.67a1.6,1.6,0,0,0,2.21.67l.32-.19,2.49-1.5,3-1.81,2.71-1.62,8.68-5.23h0l3.5-2.11,4.93-3h0l.83-.49,7.51-4.51,2.62-1.58,3.14-1.89,3-1.81a1.68,1.68,0,0,0,.75-1.09,1.84,1.84,0,0,0-.2-1.25,1.76,1.76,0,0,0-1.45-.89,1.55,1.55,0,0,0-.77.22l-.52.31L245.2,863l-2.37,1.42-5.77,3.47-.3.18-7.2,4.33-3.75,2.26L224,875.76l-5.74,3.45-.88.53h0l-1.81,1.08L211.92,883l-2.48,1.49-1.37.82A1.73,1.73,0,0,0,207.52,887.67Z"/>
                <path class="cls-2" d="M219,908.39a1.61,1.61,0,0,0,1.86.82,1.19,1.19,0,0,0,.35-.15l2.54-1.52.23-.14,5.14-3.09,5.8-3.48h0l1.68-1,5.78-3.48,1-.58,6.51-3.92,4.44-2.67,1.34-.8,7.11-4.28.38-.23.85-.51a1.73,1.73,0,0,0,.55-2.33,1.8,1.8,0,0,0-.57-.62,1.56,1.56,0,0,0-.87-.27,1.49,1.49,0,0,0-.78.22l-.08,0-5.77,3.46-3.31,2L249,888.36l-4.26,2.57-1.52.9-7.49,4.5-1.93,1.17h0l-3.83,2.3-4.6,2.77-5.79,3.48A1.74,1.74,0,0,0,219,908.39Z"/>
                <path class="cls-2" d="M222.84,915.3a1.59,1.59,0,0,0,2.21.67l12.55-7.54,1.08-.64,5.78-3.48,1.59-1,5.9-3.54,5-3h0l.73-.44,7.48-4.5.25-.14,2.38-1.44a1.74,1.74,0,0,0,.55-2.33A1.66,1.66,0,0,0,267,887a1.49,1.49,0,0,0-.78.22l-1.84,1.11-5.79,3.47-2.69,1.62-4.79,2.88-3.67,2.2h0l-2.1,1.27-7.5,4.5-1.34.81L232,907.79l-4,2.41h0L223.39,913A1.75,1.75,0,0,0,222.84,915.3Z"/>
                <path class="cls-2" d="M202,858a1.63,1.63,0,0,0,2.28.63l.67-.4,2.49-1.49,8.07-4.86,2.71-1.62,2.08-1.25,5.56-3.34,4.64-2.79a1.78,1.78,0,0,0,.6-2.38,1.66,1.66,0,0,0-1.44-.87,1.62,1.62,0,0,0-.83.24l-10.61,6.38-2.71,1.63-8.69,5.22-2.49,1.5-1.71,1A1.77,1.77,0,0,0,202,858Z"/>
              </g>
            </g>
          </g>
          <g>
            <path class="cls-2" d="M284.11,903.1l-.91.55-.51.3h0v-3.35l-1.31-7.72v0l-3.93-7.09v0l-.09-.18h0l-1.73-3.1-2.12-3.83c-.81.14-1.63.3-2.42.51l-.36.09a31.6,31.6,0,0,0-15.29,9.28h0a31.85,31.85,0,0,0-5.58,8.55,32.33,32.33,0,0,0-1.73,5,31.88,31.88,0,0,0,1,18.84c.22.6.47,1.2.72,1.77l2.29-.42h0L264.63,920l-2.18-3.89-1.32-2.38-2.2-3.94c-1.47-2.35,3.66-7.77,5.73-4.4l2.71,4.59,1.38,2.34,3.69,6.25.27.46.38-.58c2.58-4,5.24-7.82,8-11.4.54-.72,1.09-1.44,1.64-2.14l.6-.76c.29-.37.59-.75.89-1.11ZM279.42,923h.49a2.83,2.83,0,0,0,2.77-2.88v-3.85c-.59,1.14-1.17,2.32-1.76,3.53C280.42,920.86,279.92,921.92,279.42,923Zm4.69-19.91-.91.55.08.52c.29-.37.59-.75.89-1.11Zm0,0-.91.55-.51.3h0v-3.35l-1.31-7.72v0l-3.93-7.09,1.37,8.07v0l2.47,4.44h0a2.77,2.77,0,0,1,.28.7,3.05,3.05,0,0,1-.11,1.82,3.13,3.13,0,0,1-.35.65l-.24.28a2.48,2.48,0,0,1-.59.48l0,0h0l-6.87,4.13-5.77,3.48-.21.12,1.38,2.34,3.69,6.25.27.46.38-.58c2.58-4,5.24-7.82,8-11.4.54-.72,1.09-1.44,1.64-2.14l.6-.76c.29-.37.59-.75.89-1.11Zm0,0-.91.55-.51.3h0v-3.35l-1.31-7.72v0l-3.93-7.09,1.37,8.07v0l2.47,4.44h0a2.77,2.77,0,0,1,.28.7,3.05,3.05,0,0,1-.11,1.82,3.13,3.13,0,0,1-.35.65l-.24.28a2.48,2.48,0,0,1-.59.48l0,0h0l-6.87,4.13-5.77,3.48-.21.12,1.38,2.34,3.69,6.25.27.46.38-.58c2.58-4,5.24-7.82,8-11.4.54-.72,1.09-1.44,1.64-2.14l.6-.76c.29-.37.59-.75.89-1.11Zm0,0-.91.55-.51.3h0v-3.35l-1.31-7.72v0l-3.93-7.09,1.37,8.07v0l2.47,4.44h0a2.77,2.77,0,0,1,.28.7,3.05,3.05,0,0,1-.11,1.82,3.13,3.13,0,0,1-.35.65l-.24.28a2.48,2.48,0,0,1-.59.48l0,0h0l-6.87,4.13-5.77,3.48-.21.12,1.38,2.34,3.69,6.25.27.46.38-.58c2.58-4,5.24-7.82,8-11.4.54-.72,1.09-1.44,1.64-2.14l.6-.76c.29-.37.59-.75.89-1.11Zm-3.19,16.71c-.5,1.05-1,2.11-1.5,3.2h.49a2.83,2.83,0,0,0,2.77-2.88v-3.85C282.09,917.42,281.51,918.6,280.92,919.81Zm4.46-40.93q-1.32-.28-2.7-.45a31.61,31.61,0,0,0-3.79-.24h-.09c-.88,0-1.76,0-2.63.11s-1.8.19-2.69.34-1.63.3-2.42.51l-.36.09a31.6,31.6,0,0,0-15.29,9.28h0a31.85,31.85,0,0,0-5.58,8.55,32.33,32.33,0,0,0-1.73,5,31.88,31.88,0,0,0,1,18.84c.22.6.47,1.2.72,1.77l.13.28c.07.16.15.32.22.47q.43.93.93,1.8c.09.16.17.31.27.47a31.66,31.66,0,1,0,34-46.87Zm13.28,13.64a105.45,105.45,0,0,0-13.28,18.72l-.69,1.25c-.68,1.22-1.34,2.49-2,3.79-.59,1.14-1.17,2.32-1.76,3.53-.5,1.05-1,2.11-1.5,3.2-.4.9-.82,1.81-1.22,2.74-.27.6-.53,1.2-.79,1.81-2.94,2.05-6.31,3.08-7.92,1.17l-1.66-3L266.3,923l-.26-.46L264.63,920l-2.18-3.89-1.32-2.38-2.2-3.94c-1.47-2.35,3.66-7.77,5.73-4.4l2.71,4.59,1.38,2.34,3.69,6.25.27.46.38-.58c2.58-4,5.24-7.82,8-11.4.54-.72,1.09-1.44,1.64-2.14l.6-.76c.29-.37.59-.75.89-1.11s.68-.84,1-1.25h0l.18-.22A101.17,101.17,0,0,1,296.51,890C298.68,889.8,299.38,890.67,298.66,892.52Zm-36.21,23.61-1.32-2.38-12,7.21c.22.6.47,1.2.72,1.77l2.29-.42h0L264.63,920Zm18.47,3.68c-.5,1.05-1,2.11-1.5,3.2h.49a2.83,2.83,0,0,0,2.77-2.88v-3.85C282.09,917.42,281.51,918.6,280.92,919.81Zm3.19-16.71-.91.55-.51.3h0v-3.35l-1.31-7.72v0l-3.93-7.09,1.37,8.07v0l2.47,4.44h0a2.77,2.77,0,0,1,.28.7,3.05,3.05,0,0,1-.11,1.82,3.13,3.13,0,0,1-.35.65l-.24.28a2.48,2.48,0,0,1-.59.48l0,0h0l-6.87,4.13-5.77,3.48-.21.12,1.38,2.34,3.69,6.25.27.46.38-.58c2.58-4,5.24-7.82,8-11.4.54-.72,1.09-1.44,1.64-2.14l.6-.76c.29-.37.59-.75.89-1.11Zm-3.19,16.71c-.5,1.05-1,2.11-1.5,3.2h.49a2.83,2.83,0,0,0,2.77-2.88v-3.85C282.09,917.42,281.51,918.6,280.92,919.81Zm3.19-16.71-.91.55-.51.3h0v-3.35l-1.31-7.72v0l-3.93-7.09,1.37,8.07v0l2.47,4.44h0a2.77,2.77,0,0,1,.28.7,3.05,3.05,0,0,1-.11,1.82,3.13,3.13,0,0,1-.35.65l-.24.28a2.48,2.48,0,0,1-.59.48l0,0h0l-6.87,4.13-5.77,3.48-.21.12,1.38,2.34,3.69,6.25.27.46.38-.58c2.58-4,5.24-7.82,8-11.4.54-.72,1.09-1.44,1.64-2.14l.6-.76c.29-.37.59-.75.89-1.11Zm0,0-.91.55-.51.3h0v-3.35l-1.31-7.72v0l-3.93-7.09,1.37,8.07v0l2.47,4.44h0a2.77,2.77,0,0,1,.28.7,3.05,3.05,0,0,1-.11,1.82,3.13,3.13,0,0,1-.35.65l-.24.28a2.48,2.48,0,0,1-.59.48l0,0h0l-6.87,4.13-5.77,3.48-.21.12,1.38,2.34,3.69,6.25.27.46.38-.58c2.58-4,5.24-7.82,8-11.4.54-.72,1.09-1.44,1.64-2.14l.6-.76c.29-.37.59-.75.89-1.11Zm0,0-.91.55-.51.3h0v1l.6-.76c.29-.37.59-.75.89-1.11Z"/>
            <path class="cls-6" d="M285.2,901.81c-.35.41-.69.83-1,1.25"/>
          </g>
        </g>
      </g>
      <path class="cls-2" d="M496.7,835.85H321.14V837H496.7c6.08,0,11,4,11,8.79V915.6c0,4.85-5,8.79-11,8.79H321.14v1.18H496.7c6.9,0,12.51-4.47,12.51-10V845.82C509.21,840.32,503.6,835.85,496.7,835.85Z"/>
      <text class="cls-3" transform="translate(363.98 868.24)">Activate Response <tspan x="13.96" y="16.02">actions of the </tspan><tspan x="7.03" y="32.04">Emergen</tspan><tspan class="cls-7" x="60.82" y="32.04">c</tspan><tspan x="67.11" y="32.04">y Plan</tspan></text>
    </g>
    <g>
      <g>
        <circle class="cls-1" cx="210.78" cy="1317.02" r="88.78"/>
        <g>
          <g>
            <g>
              <path class="cls-2" d="M247,1266.4H232a3.27,3.27,0,0,1,.19.65l.35,2.1H244a2.82,2.82,0,0,1,2.77,2.87v69.23l.6-.77.89-1.11,1-1.25h0l.17-.21V1269A2.59,2.59,0,0,0,247,1266.4Zm-58.89,94.15-.67-1.22h0a2.82,2.82,0,0,1-2.67-2.88v-1.94l-1-1.85h0l-1.65-3h0v9.8a2.78,2.78,0,0,0,.26,1.16l0,0a2.52,2.52,0,0,0,2.25,1.43h4.37Zm-3.52-94.15a2.58,2.58,0,0,0-2.51,2.32h0a1.67,1.67,0,0,0,0,.32v2.86h0l3.2-1.93h0l5.93-3.56Zm64.25,82.4c-.68,1.23-1.34,2.49-2,3.79v3.85a2.84,2.84,0,0,1-2.77,2.89h-.48c-.41.89-.83,1.8-1.23,2.73H247a2.57,2.57,0,0,0,2.53-2.63v-11.88Zm-18.39,10.53H209.82l-1.14.68-3.41,2h26.67Zm-22.86-92.93,1.13,2,2.82-.52h0l8.3-1.52Z"/>
              <g>
                <path class="cls-2" d="M236.93,1294.85l.58,3.47h2.94a1.66,1.66,0,0,0,1.6-1.74,1.78,1.78,0,0,0-.47-1.22,1.5,1.5,0,0,0-1.13-.51Z"/>
                <path class="cls-2" d="M230.63,1297.92l-2.15.4h3.46a1.58,1.58,0,0,0-1-.42Z"/>
                <path class="cls-2" d="M240.45,1302.83h-2.17l.58,3.47h1.59a1.52,1.52,0,0,0,1.08-.45,1.85,1.85,0,0,0,.05-2.52,1.4,1.4,0,0,0-.55-.38A1.37,1.37,0,0,0,240.45,1302.83Z"/>
                <path class="cls-2" d="M241,1318.88l.5,2.95a1.83,1.83,0,0,0,.09-2.54A1.61,1.61,0,0,0,241,1318.88Z"/>
                <path class="cls-2" d="M241.58,1327.27a1.44,1.44,0,0,0-.48-.37l.94,1.71a.49.49,0,0,0,0-.12A1.78,1.78,0,0,0,241.58,1327.27Z"/>
                <path class="cls-2" d="M240.45,1310.81h-.82l.58,3.46h.24a1.66,1.66,0,0,0,1.6-1.73,1.82,1.82,0,0,0-.47-1.23A1.53,1.53,0,0,0,240.45,1310.81Z"/>
              </g>
            </g>
            <g>
              <path class="cls-2" d="M245.66,1335.33a3.36,3.36,0,0,0-.27-.7h0l-2.48-4.46v0l1.43,8.4h0l0,0a3.09,3.09,0,0,0,.59-.48l.24-.29a3.13,3.13,0,0,0,.35-.65A3,3,0,0,0,245.66,1335.33Zm0,0a3.36,3.36,0,0,0-.27-.7h0l-2.48-4.46v0l1.43,8.4h0l0,0a3.09,3.09,0,0,0,.59-.48l.24-.29a3.13,3.13,0,0,0,.35-.65A3,3,0,0,0,245.66,1335.33Zm0,0a3.36,3.36,0,0,0-.27-.7h0l-2.48-4.46v0l1.43,8.4h0l0,0a3.09,3.09,0,0,0,.59-.48l.24-.29a3.13,3.13,0,0,0,.35-.65A3,3,0,0,0,245.66,1335.33Zm0,0a3.36,3.36,0,0,0-.27-.7h0l-2.48-4.46v0l1.43,8.4h0l0,0a3.09,3.09,0,0,0,.59-.48l.24-.29a3.13,3.13,0,0,0,.35-.65A3,3,0,0,0,245.66,1335.33Zm0,0a3.36,3.36,0,0,0-.27-.7h0l-2.48-4.46v0l1.43,8.4h0l0,0a3.09,3.09,0,0,0,.59-.48l.24-.29a3.13,3.13,0,0,0,.35-.65A3,3,0,0,0,245.66,1335.33Zm0,0a3.36,3.36,0,0,0-.27-.7h0l-2.48-4.46v0l1.43,8.4h0l0,0a3.09,3.09,0,0,0,.59-.48l.24-.29a3.13,3.13,0,0,0,.35-.65A3,3,0,0,0,245.66,1335.33Zm0,0a3.36,3.36,0,0,0-.27-.7h0l-2.48-4.46v0l1.43,8.4h0l0,0a3.09,3.09,0,0,0,.59-.48l.24-.29a3.13,3.13,0,0,0,.35-.65A3,3,0,0,0,245.66,1335.33Zm0,0a3.36,3.36,0,0,0-.27-.7h0l-2.48-4.46v0l1.43,8.4h0l0,0a3.09,3.09,0,0,0,.59-.48l.24-.29a3.13,3.13,0,0,0,.35-.65A3,3,0,0,0,245.66,1335.33Zm0,0a3.36,3.36,0,0,0-.27-.7h0l-2.48-4.46v0l1.43,8.4h0l0,0a3.09,3.09,0,0,0,.59-.48l.24-.29a3.13,3.13,0,0,0,.35-.65A3,3,0,0,0,245.66,1335.33Zm0,0a3.36,3.36,0,0,0-.27-.7h0l-2.48-4.46v0l1.43,8.4h0l0,0a3.09,3.09,0,0,0,.59-.48l.24-.29a3.13,3.13,0,0,0,.35-.65A3,3,0,0,0,245.66,1335.33Zm0,0a3.36,3.36,0,0,0-.27-.7h0l-2.48-4.46v0l1.43,8.4h0l0,0a3.09,3.09,0,0,0,.59-.48l.24-.29a3.13,3.13,0,0,0,.35-.65A3,3,0,0,0,245.66,1335.33Zm0,0a3.36,3.36,0,0,0-.27-.7h0l-2.48-4.46v0l1.43,8.4h0l0,0a3.09,3.09,0,0,0,.59-.48l.24-.29a3.13,3.13,0,0,0,.35-.65A3,3,0,0,0,245.66,1335.33Zm0,0a3.36,3.36,0,0,0-.27-.7h0l-2.48-4.46v0l1.43,8.4h0l0,0a3.09,3.09,0,0,0,.59-.48l.24-.29a3.13,3.13,0,0,0,.35-.65A3,3,0,0,0,245.66,1335.33Zm0,0a3.36,3.36,0,0,0-.27-.7h0l-2.48-4.46v0l1.43,8.4h0l0,0a3.09,3.09,0,0,0,.59-.48l.24-.29a3.13,3.13,0,0,0,.35-.65A3,3,0,0,0,245.66,1335.33Zm0,0a3.36,3.36,0,0,0-.27-.7h0l-2.48-4.46v0l1.43,8.4h0l0,0a3.09,3.09,0,0,0,.59-.48l.24-.29a3.13,3.13,0,0,0,.35-.65A3,3,0,0,0,245.66,1335.33Zm0,0a3.36,3.36,0,0,0-.27-.7h0l-2.48-4.46v0l1.43,8.4h0l0,0a3.09,3.09,0,0,0,.59-.48l.24-.29a3.13,3.13,0,0,0,.35-.65A3,3,0,0,0,245.66,1335.33Zm0,0a3.36,3.36,0,0,0-.27-.7h0l-2.48-4.46v0l1.43,8.4h0l0,0a3.09,3.09,0,0,0,.59-.48l.24-.29a3.13,3.13,0,0,0,.35-.65A3,3,0,0,0,245.66,1335.33Zm-55.94,28.18-1.34.24a2.68,2.68,0,0,1-1.81-.32h0a2.8,2.8,0,0,1-1.2-1.36h0a2.34,2.34,0,0,1-.2-.65l-.11-.68v0l-1.36-8.06h0v0l-1.66-3h0l-2.28-4.13,1.37,8.08h0l.91,5.4v0l.27,1.57v0l.71,4.21a2.54,2.54,0,0,0,2.93,2.14l2.35-.43h0l2.83-.52h0Zm55.94-28.18a3.36,3.36,0,0,0-.27-.7h0l-2.48-4.46v0l1.43,8.4h0l0,0a3.09,3.09,0,0,0,.59-.48l.24-.29a3.13,3.13,0,0,0,.35-.65A3,3,0,0,0,245.66,1335.33Zm0,0a3.36,3.36,0,0,0-.27-.7h0l-2.48-4.46v0l1.43,8.4h0l0,0a3.09,3.09,0,0,0,.59-.48l.24-.29a3.13,3.13,0,0,0,.35-.65A3,3,0,0,0,245.66,1335.33Zm0,0a3.36,3.36,0,0,0-.27-.7h0l-2.48-4.46v0l1.43,8.4h0l0,0a3.09,3.09,0,0,0,.59-.48l.24-.29a3.13,3.13,0,0,0,.35-.65A3,3,0,0,0,245.66,1335.33Zm0,0a3.36,3.36,0,0,0-.27-.7h0l-2.48-4.46v0l1.43,8.4h0l0,0a3.09,3.09,0,0,0,.59-.48l.24-.29a3.13,3.13,0,0,0,.35-.65A3,3,0,0,0,245.66,1335.33Zm0,0a3.36,3.36,0,0,0-.27-.7h0l-2.48-4.46v0l1.43,8.4h0l0,0a3.09,3.09,0,0,0,.59-.48l.24-.29a3.13,3.13,0,0,0,.35-.65A3,3,0,0,0,245.66,1335.33Zm0,0a3.36,3.36,0,0,0-.27-.7h0l-2.48-4.46v0l1.43,8.4h0l0,0a3.09,3.09,0,0,0,.59-.48l.24-.29a3.13,3.13,0,0,0,.35-.65A3,3,0,0,0,245.66,1335.33Zm0,0a3.36,3.36,0,0,0-.27-.7h0l-2.48-4.46v0l1.43,8.4h0l0,0a3.09,3.09,0,0,0,.59-.48l.24-.29a3.13,3.13,0,0,0,.35-.65A3,3,0,0,0,245.66,1335.33Zm0,0a3.36,3.36,0,0,0-.27-.7h0l-2.48-4.46v0l1.43,8.4h0l0,0a3.09,3.09,0,0,0,.59-.48l.24-.29a3.13,3.13,0,0,0,.35-.65A3,3,0,0,0,245.66,1335.33Zm0,0a3.36,3.36,0,0,0-.27-.7h0l-2.48-4.46v0l1.43,8.4h0l0,0a3.09,3.09,0,0,0,.59-.48l.24-.29a3.13,3.13,0,0,0,.35-.65A3,3,0,0,0,245.66,1335.33Zm0,0a3.36,3.36,0,0,0-.27-.7h0l-2.48-4.46v0l1.43,8.4h0l0,0a3.09,3.09,0,0,0,.59-.48l.24-.29a3.13,3.13,0,0,0,.35-.65A3,3,0,0,0,245.66,1335.33Zm0,0a3.36,3.36,0,0,0-.27-.7h0l-2.48-4.46v0l1.43,8.4h0l0,0a3.09,3.09,0,0,0,.59-.48l.24-.29a3.13,3.13,0,0,0,.35-.65A3,3,0,0,0,245.66,1335.33Zm0,0a3.36,3.36,0,0,0-.27-.7h0l-2.48-4.46v0l1.43,8.4h0l0,0a3.09,3.09,0,0,0,.59-.48l.24-.29a3.13,3.13,0,0,0,.35-.65A3,3,0,0,0,245.66,1335.33Zm0,0a3.36,3.36,0,0,0-.27-.7h0l-2.48-4.46v0l1.43,8.4h0l0,0a3.09,3.09,0,0,0,.59-.48l.24-.29a3.13,3.13,0,0,0,.35-.65A3,3,0,0,0,245.66,1335.33Zm0,0a3.36,3.36,0,0,0-.27-.7h0l-2.48-4.46v0l1.43,8.4h0l0,0a3.09,3.09,0,0,0,.59-.48l.24-.29a3.13,3.13,0,0,0,.35-.65A3,3,0,0,0,245.66,1335.33Zm0,0a3.36,3.36,0,0,0-.27-.7h0l-2.48-4.46v0l1.43,8.4h0l0,0a3.09,3.09,0,0,0,.59-.48l.24-.29a3.13,3.13,0,0,0,.35-.65A3,3,0,0,0,245.66,1335.33Zm0,0a3.36,3.36,0,0,0-.27-.7h0l-2.48-4.46v0l1.43,8.4h0l0,0a3.09,3.09,0,0,0,.59-.48l.24-.29a3.13,3.13,0,0,0,.35-.65A3,3,0,0,0,245.66,1335.33Zm0,0a3.36,3.36,0,0,0-.27-.7h0l-2.48-4.46v0l1.43,8.4h0l0,0a3.09,3.09,0,0,0,.59-.48l.24-.29a3.13,3.13,0,0,0,.35-.65A3,3,0,0,0,245.66,1335.33Zm0,0a3.36,3.36,0,0,0-.27-.7h0l-2.48-4.46v0l1.43,8.4h0l0,0a3.09,3.09,0,0,0,.59-.48l.24-.29a3.13,3.13,0,0,0,.35-.65A3,3,0,0,0,245.66,1335.33ZM185.22,1270l-3.2.59h0l-4.36.8-7.67,1.41a2.62,2.62,0,0,0-2.05,3l.2,1.25h0l.5,2.88h0l2.47-1.49h0l0-.18a2.87,2.87,0,0,1,2.25-3.34l5.25-1,3.43-2.07h0l2-1.2,1.2-.73Zm43.52,86.36-12.47,2.3h0l-2.28.42-1.5.28h0l-3.76.69h0l-3.39,2h0l-3.26,2,7.58-1.39h0l3.1-.57h0l2.52-.46,12.36-2.27h0l2.52-.47Zm7.81-1.43.27.47c.13-.19.25-.39.38-.59ZM247.31,1340l-.51-3v0l-1.3-7.72v0L243,1314.51l-1.46-8.65v0L241,1303h0l-.78-4.62h0l-.59-3.46h0l-4.36-25.7h0l-.46-2.75-.47-2.78a2.54,2.54,0,0,0-2.94-2.13l-21.33,3.92h0l-2.81.51.21.38.05.1h0l1.12,2h0l2.81-.53h0l8.3-1.52h0l9.2-1.68a2.76,2.76,0,0,1,3,1.68,4.45,4.45,0,0,1,.19.65l.35,2.1h0l4.36,25.7h0l.57,3.46h0l.78,4.5h0l.58,3.47.77,4.51.58,3.46h0l.06.33.72,4.28.5,2.93v0l0,.23v0l1.37,8.07v0l1.43,8.4h0l.48,2.87h0l.33,1.91c.54-.72,1.09-1.43,1.64-2.13l.6-.77Zm2.14,12.67-.65-3.84c-.68,1.23-1.34,2.49-2,3.79-.59,1.14-1.17,2.32-1.75,3.54l1.75-.33h0l.61-.1a2.61,2.61,0,0,0,2.08-2.59A2.49,2.49,0,0,0,249.45,1352.64Z"/>
              <path class="cls-2" d="M221.48,1291.51l1.77,3.2,2.83-.52,3.8-.69a1.71,1.71,0,0,0,1.29-2,1.68,1.68,0,0,0-1.6-1.45,1.09,1.09,0,0,0-.26,0l-5,.91Z"/>
              <path class="cls-2" d="M225.56,1298.86l1.77,3.2,2.82-.52,1.06-.19a1.69,1.69,0,0,0,1.28-2,1.75,1.75,0,0,0-.54-1,1.58,1.58,0,0,0-1-.42,1.15,1.15,0,0,0-.26,0l-2.15.39-.11,0Z"/>
              <path class="cls-2" d="M233.74,1313.63a1.54,1.54,0,0,1,1.07.65,1.57,1.57,0,0,1,.34.78,1.68,1.68,0,0,1-.09,1l-.95-1.73Z"/>
              <path class="cls-2" d="M229.17,1306.3h.51l1.72,3.12,1.14-.21a1.6,1.6,0,0,0,1.23-1.15,1.86,1.86,0,0,0,0-.85,1.72,1.72,0,0,0-.43-.91,1.56,1.56,0,0,0-.87-.51h0a1.27,1.27,0,0,0-.28,0l-.27,0-2.32.43Z"/>
            </g>
            <g>
              <path class="cls-2" d="M249.15,1335.8l-2.35-4.25h0l-1.3-2.34,0,0-3.93-7.09v0l-.1-.18h0l-1.73-3.1-2.12-3.84-.37-.67-1.93-3.47-1.52-2.75h0l-.95-1.74-.3-.52h0l-1.64-3-.72-1.29-1.77-3.2h0l-1.92-3.47-.37-.67-1.77-3.19h0l-2.9-5.23-1.92-3.47-.08-.12-1.52-2.74-5.68-10.28-.69-1.23-.85-1.51h0l-.55-1-4.35-7.88a2.48,2.48,0,0,0-3.46-1l-16.37,9.83h0l-3.87,2.31-4.38,2.64-9.52,5.72-19.9,12a2.68,2.68,0,0,0-.92,3.6l33.79,60.93h0l.91,1.65h0l3,5.47,0,0,.74,1.33.77,1.37h0l1.72,3.12h0l2.43,4.37a2.49,2.49,0,0,0,3.47,1l15.4-9.27h0l1-.57h0l3.76-2.26.77-.47h0l1.16-.7h0l10.29-6.19-1.32-2.37-12,7.21-3.4,2h0l-1.15.69h0l-3.39,2h0l-3.26,2-6.6,4a2.72,2.72,0,0,1-3.78-1.06l-.51-.91-1.4-2.52-.8-1.44h0l-.84-1.51-.67-1.22h0l-2.67-4.82h0l-1-1.85h0l-1.65-3h0l-2.28-4.13-28.65-51.67a3,3,0,0,1,1-3.93l16.54-9.94h0l2.47-1.49h0l7.47-4.49,3.43-2.06,2-1.21,1.2-.73,5.93-3.56,9.88-5.94a2.71,2.71,0,0,1,3.79,1l2.44,4.4.22.38.05.1h0l1.12,2h0l.39.7,6,10.78,1.29,2.36.48.84,1.45,2.63,3.2,5.75.59,1.07.3.53.89,1.6.07.15,1.93,3.47.3.53,1.77,3.2.43.77,1.87,3.38h0l.05.08h0l1.73,3.1h0l.77,1.39,1.56,2.82h0l.11.19,0,.11.19.34.71,1.28.25.45,1.54,2.78,1.92,3.47,2.58,4.64h0l.94,1.69v0h0l.86,1.54v0l2.48,4.44h0a3.36,3.36,0,0,1,.27.7,3,3,0,0,1-.11,1.82,3.13,3.13,0,0,1-.35.65l-.24.29a3.09,3.09,0,0,1-.59.48h0l-6.88,4.13-5.77,3.47-.21.13,1.38,2.33,4.1-2.46,4.73-2.84,3.13-1.88h0l2-1.19h0l.51-.3.91-.55s.05,0,.06-.05l1-1.25h0a2.93,2.93,0,0,0,.17-1A2.66,2.66,0,0,0,249.15,1335.8Zm-23.91,14.27-12,7.21-3.4,2h0l-1.15.69,3.76-.69h1.66l-.12-.28,2.28-.42h0l10.29-6.19Zm19.1-11.48h0l-6.88,4.13-5.77,3.47-.21.13,1.38,2.33,4.1-2.46,4.73-2.84,3.13-1.88h0Zm-10.23-24.31-.2-.34.19.34.71,1.28Zm-45.19,47.79h0l-.84-1.51-.67-1.22h0l-2.67-4.82h0l-1-1.85,1.36,8.06v0l.74,1.33.77,1.37h0a2.68,2.68,0,0,0,1.81.32l1.34-.24ZM182,1271.9h0l-3.43,2.07,3.43-2.06,2-1.21Zm-8.68,3a2.87,2.87,0,0,0-2.25,3.34l0,.18,7.47-4.49Zm51.9,75.13-12,7.21-3.4,2h0l-1.15.69,3.76-.69h1.66l-.12-.28,2.28-.42h0l10.29-6.19Zm19.1-11.48h0l-6.88,4.13-5.77,3.47-.21.13,1.38,2.33,4.1-2.46,4.73-2.84,3.13-1.88h0Zm-10.23-24.31-.2-.34.19.34.71,1.28Zm-45.19,47.79h0l-.84-1.51-.67-1.22h0l-2.67-4.82h0l-1-1.85,1.36,8.06v0l.74,1.33.77,1.37h0a2.68,2.68,0,0,0,1.81.32l1.34-.24ZM182,1271.9h0l-3.43,2.07,3.43-2.06,2-1.21Zm-8.68,3a2.87,2.87,0,0,0-2.25,3.34l0,.18,7.47-4.49Zm60.77,39.34-.2-.34.19.34.71,1.28Zm-8.87,35.79-12,7.21-3.4,2h0l-1.15.69,3.76-.69h1.66l-.12-.28,2.28-.42h0l10.29-6.19Zm-36.32,12h0l-.84-1.51-.67-1.22h0l-2.67-4.82h0l-1-1.85,1.36,8.06v0l.74,1.33.77,1.37h0a2.68,2.68,0,0,0,1.81.32l1.34-.24ZM182,1271.9h0l-3.43,2.07,3.43-2.06,2-1.21Zm-8.68,3a2.87,2.87,0,0,0-2.25,3.34l0,.18,7.47-4.49Zm60.77,39.34-.2-.34.19.34.71,1.28Zm-8.87,35.79-12,7.21-3.4,2h0l-1.15.69,3.76-.69h1.66l-.12-.28,2.28-.42h0l10.29-6.19Zm-36.32,12h0l-.84-1.51-.67-1.22h0l-2.67-4.82h0l-1-1.85,1.36,8.06v0l.74,1.33.77,1.37h0a2.68,2.68,0,0,0,1.81.32l1.34-.24ZM182,1271.9h0l-3.43,2.07,3.43-2.06,2-1.21Zm-8.68,3a2.87,2.87,0,0,0-2.25,3.34l0,.18,7.47-4.49Zm0,0a2.87,2.87,0,0,0-2.25,3.34l0,.18,7.47-4.49Zm8.68-3h0l-3.43,2.07,3.43-2.06,2-1.21Zm6.9,90.17h0l-.84-1.51-.67-1.22h0l-2.67-4.82h0l-1-1.85,1.36,8.06v0l.74,1.33.77,1.37h0a2.68,2.68,0,0,0,1.81.32l1.34-.24Zm36.32-12-12,7.21-3.4,2h0l-1.15.69,3.76-.69h1.66l-.12-.28,2.28-.42h0l10.29-6.19Zm8.87-35.79-.2-.34.19.34.71,1.28Zm-60.77-39.34a2.87,2.87,0,0,0-2.25,3.34l0,.18,7.47-4.49Zm8.68-3h0l-3.43,2.07,3.43-2.06,2-1.21Zm6.9,90.17h0l-.84-1.51-.67-1.22h0l-2.67-4.82h0l-1-1.85,1.36,8.06v0l.74,1.33.77,1.37h0a2.68,2.68,0,0,0,1.81.32l1.34-.24Zm36.32-12-12,7.21-3.4,2h0l-1.15.69,3.76-.69h1.66l-.12-.28,2.28-.42h0l10.29-6.19Zm8.87-35.79-.2-.34.19.34.71,1.28Zm-60.77-39.34a2.87,2.87,0,0,0-2.25,3.34l0,.18,7.47-4.49Zm8.68-3h0l-3.43,2.07,3.43-2.06,2-1.21Zm6.9,90.17h0l-.84-1.51-.67-1.22h0l-2.67-4.82h0l-1-1.85,1.36,8.06v0l.74,1.33.77,1.37h0a2.68,2.68,0,0,0,1.81.32l1.34-.24Zm45.19-47.79-.2-.34.19.34.71,1.28Zm-8.87,35.79-12,7.21-3.4,2h0l-1.15.69,3.76-.69h1.66l-.12-.28,2.28-.42h0l10.29-6.19Zm19.1-11.48h0l-6.88,4.13-5.77,3.47-.21.13,1.38,2.33,4.1-2.46,4.73-2.84,3.13-1.88h0Zm-71-63.65a2.87,2.87,0,0,0-2.25,3.34l0,.18,7.47-4.49Zm8.68-3h0l-3.43,2.07,3.43-2.06,2-1.21Zm6.9,90.17h0l-.84-1.51-.67-1.22h0l-2.67-4.82h0l-1-1.85,1.36,8.06v0l.74,1.33.77,1.37h0a2.68,2.68,0,0,0,1.81.32l1.34-.24Zm45.19-47.79-.2-.34.19.34.71,1.28Zm-8.87,35.79-12,7.21-3.4,2h0l-1.15.69,3.76-.69h1.66l-.12-.28,2.28-.42h0l10.29-6.19Zm19.1-11.48h0l-6.88,4.13-5.77,3.47-.21.13,1.38,2.33,4.1-2.46,4.73-2.84,3.13-1.88h0Zm-71-63.65a2.87,2.87,0,0,0-2.25,3.34l0,.18,7.47-4.49Zm8.68-3h0l-3.43,2.07,3.43-2.06,2-1.21Zm6.9,90.17h0l-.84-1.51-.67-1.22h0l-2.67-4.82h0l-1-1.85,1.36,8.06v0l.74,1.33.77,1.37h0a2.68,2.68,0,0,0,1.81.32l1.34-.24Zm45.19-47.79-.2-.34.19.34.71,1.28Zm-8.87,35.79-12,7.21-3.4,2h0l-1.15.69,3.76-.69h1.66l-.12-.28,2.28-.42h0l10.29-6.19Zm19.1-11.48h0l-6.88,4.13-5.77,3.47-.21.13,1.38,2.33,4.1-2.46,4.73-2.84,3.13-1.88h0Z"/>
              <g>
                <path class="cls-2" d="M189.56,1292.77l15.13-9.1,2-1.21h0l.6-.36a1.5,1.5,0,0,1,.75-.21,1.42,1.42,0,0,1,.74.2h0a1.68,1.68,0,0,1,.71.69,1.82,1.82,0,0,1,.23.89,1.68,1.68,0,0,1-.78,1.45l-12.73,7.65-2,1.22h0l-3.72,2.24-4.74,2.84-3.36,2-2.7,1.62-5.85,3.51-2.49,1.49-5.15,3.1a1.59,1.59,0,0,1-2.21-.67,1.73,1.73,0,0,1,.55-2.34l6.2-3.72,2.48-1.5,4.38-2.63,2.09-1.25,2.7-1.63,2.21-1.32h0l2.53-1.52Z"/>
                <path class="cls-2" d="M167.8,1317.07a1.59,1.59,0,0,0,2.21.67l2.73-1.64,2.5-1.5,4.42-2.66,2.71-1.63,6-3.62h0l4.1-2.47,4.32-2.59h0l1.44-.86,7.51-4.51,2-1.21h0l3.76-2.26,1.24-.75a1.63,1.63,0,0,0,.77-1.58,1.71,1.71,0,0,0-.22-.75,1.68,1.68,0,0,0-1.45-.89,1.53,1.53,0,0,0-.76.21l-4.49,2.7h0l-1.76,1.06-5.76,3.47-.93.55-6.58,4-4.31,2.59-.06,0-4.88,2.94-2.71,1.62-.28.18h0l-4.75,2.86-2.49,1.49-3.78,2.28A1.72,1.72,0,0,0,167.8,1317.07Z"/>
                <path class="cls-2" d="M203.23,1312.19l.29-.17,5.48-3.3,3-1.79,4.53-2.72,2.29-1.37a1.46,1.46,0,0,1,.78-.22,1.66,1.66,0,0,1,1.44.89,1.68,1.68,0,0,1,.22.7,1.66,1.66,0,0,1-.22,1.07,1.48,1.48,0,0,1-.55.56l-4.79,2.88-2.55,1.53-3.22,1.94-7.51,4.51-.22.14-5.55,3.33-2.89,1.74h0l-4.59,2.75-1.93,1.17h0l-4.82,2.89-2.7,1.62-1.6,1-.4.24a1.6,1.6,0,0,1-2.22-.68,1.73,1.73,0,0,1,.56-2.33l1.44-.87,2.22-1.33,2.7-1.62,1.74-1h0l5.83-3.5,2.61-1.57,3.15-1.9Z"/>
                <path class="cls-2" d="M179.29,1337.79a1.61,1.61,0,0,0,.37.47,1.55,1.55,0,0,0,1.84.21l.87-.52,1.46-.88,1.59-1h0l1.8-1.08,4-2.38,5.2-3.12h0l2.29-1.37,5.78-3.48.35-.22h0l7.11-4.27,3.84-2.3,1.93-1.17,6.52-3.91.06,0a1.53,1.53,0,0,0,.54-.56,1.74,1.74,0,0,0,0-1.78,1.65,1.65,0,0,0-1.44-.88,1.58,1.58,0,0,0-.78.21l-4.08,2.45-3.91,2.36L211,1316.7l-4.86,2.93-.91.54-7.48,4.5-2.56,1.54-3.22,1.94-5.23,3.14h0l-4.4,2.64-2.53,1.52-.18.13A1.75,1.75,0,0,0,179.29,1337.79Z"/>
                <path class="cls-2" d="M171.63,1324a1.59,1.59,0,0,0,2.21.67l.32-.19,2.49-1.49,3-1.82,2.71-1.62,8.68-5.22h0l3.5-2.11,4.93-3h0l.84-.5,7.5-4.51,2.62-1.57,3.14-1.89,3-1.82a1.63,1.63,0,0,0,.75-1.09,1.81,1.81,0,0,0-.2-1.24,1.22,1.22,0,0,0-.27-.36,1.58,1.58,0,0,0-1.17-.53,1.46,1.46,0,0,0-.78.22l-.52.31-5.13,3.09-2.37,1.42-5.76,3.46-.31.19-7.19,4.32-3.76,2.26-1.81,1.09-5.74,3.46-.88.52h0l-1.81,1.09-3.62,2.18-2.49,1.49-1.37.83A1.72,1.72,0,0,0,171.63,1324Z"/>
                <path class="cls-2" d="M183.12,1344.71a1.62,1.62,0,0,0,1.86.82,1.84,1.84,0,0,0,.36-.15l2.54-1.53.22-.13,5.14-3.1,5.8-3.48h0l1.68-1,5.79-3.47,1-.59,6.51-3.91,4.45-2.67,1.33-.81,7.11-4.27.38-.23.85-.51a1.74,1.74,0,0,0,.55-2.34,1.71,1.71,0,0,0-.57-.62,1.54,1.54,0,0,0-.87-.27,1.59,1.59,0,0,0-.78.22l-.08,0-5.77,3.47-3.31,2-4.18,2.51-4.26,2.57-1.52.91-7.48,4.5-1.94,1.16h0l-3.83,2.3-4.6,2.77-5.79,3.48A1.75,1.75,0,0,0,183.12,1344.71Z"/>
                <path class="cls-2" d="M187,1351.62a1.62,1.62,0,0,0,2.22.67l12.54-7.54,1.08-.65,5.78-3.48,1.59-.95,5.9-3.55,5-3h0l.73-.43,7.49-4.5.24-.15,2.39-1.43a1.72,1.72,0,0,0,.72-1.9,2,2,0,0,0-.18-.44,1.66,1.66,0,0,0-1.44-.89,1.52,1.52,0,0,0-.77.22l-1.85,1.11-5.78,3.48-2.7,1.62-4.79,2.88-3.67,2.2h0l-2.1,1.26-7.5,4.5-1.33.81-4.45,2.67-4,2.41h0l-4.57,2.75A1.76,1.76,0,0,0,187,1351.62Z"/>
                <path class="cls-2" d="M166.15,1294.33a1.64,1.64,0,0,0,2.28.64l.67-.4,2.49-1.5,8.07-4.85,2.71-1.62,2.08-1.25L190,1282l4.64-2.79a1.77,1.77,0,0,0,.61-2.37,1.65,1.65,0,0,0-1.45-.87,1.6,1.6,0,0,0-.83.23l-10.61,6.38-2.71,1.63-8.69,5.22-2.48,1.5-1.72,1A1.78,1.78,0,0,0,166.15,1294.33Z"/>
              </g>
            </g>
          </g>
          <g>
            <path class="cls-2" d="M248.22,1339.42l-.91.55-.51.3h0v-3.35l-1.3-7.72,0,0-3.93-7.09v0l-.1-.18h0l-1.73-3.1-2.12-3.84c-.81.14-1.63.31-2.42.51l-.36.1a31,31,0,0,0-5.95,2.23,31.72,31.72,0,0,0-9.34,7h0a31.55,31.55,0,0,0-8.26,21.34,31.45,31.45,0,0,0,2,11.1c.23.6.47,1.19.73,1.77l2.28-.42h0l12.47-2.3-2.18-3.89-1.32-2.37-2.2-3.94c-1.47-2.36,3.67-7.78,5.73-4.41l2.71,4.6,1.38,2.33,3.69,6.25.27.47c.13-.19.25-.39.38-.59,2.58-4,5.24-7.82,8-11.4.54-.72,1.09-1.43,1.64-2.13l.6-.77.89-1.11S248.24,1339.4,248.22,1339.42Zm-4.68,19.91H244a2.84,2.84,0,0,0,2.77-2.89v-3.85c-.59,1.14-1.17,2.32-1.75,3.54C244.54,1357.17,244,1358.23,243.54,1359.33Zm4.68-19.91-.91.55.08.51.89-1.11S248.24,1339.4,248.22,1339.42Zm0,0-.91.55-.51.3h0v-3.35l-1.3-7.72,0,0-3.93-7.09,1.37,8.07v0l2.48,4.44h0a3.36,3.36,0,0,1,.27.7,3,3,0,0,1-.11,1.82,3.13,3.13,0,0,1-.35.65l-.24.29a3.09,3.09,0,0,1-.59.48h0l-6.88,4.13-5.77,3.47-.21.13,1.38,2.33,3.69,6.25.27.47c.13-.19.25-.39.38-.59,2.58-4,5.24-7.82,8-11.4.54-.72,1.09-1.43,1.64-2.13l.6-.77.89-1.11S248.24,1339.4,248.22,1339.42Zm0,0-.91.55-.51.3h0v-3.35l-1.3-7.72,0,0-3.93-7.09,1.37,8.07v0l2.48,4.44h0a3.36,3.36,0,0,1,.27.7,3,3,0,0,1-.11,1.82,3.13,3.13,0,0,1-.35.65l-.24.29a3.09,3.09,0,0,1-.59.48h0l-6.88,4.13-5.77,3.47-.21.13,1.38,2.33,3.69,6.25.27.47c.13-.19.25-.39.38-.59,2.58-4,5.24-7.82,8-11.4.54-.72,1.09-1.43,1.64-2.13l.6-.77.89-1.11S248.24,1339.4,248.22,1339.42Zm0,0-.91.55-.51.3h0v-3.35l-1.3-7.72,0,0-3.93-7.09,1.37,8.07v0l2.48,4.44h0a3.36,3.36,0,0,1,.27.7,3,3,0,0,1-.11,1.82,3.13,3.13,0,0,1-.35.65l-.24.29a3.09,3.09,0,0,1-.59.48h0l-6.88,4.13-5.77,3.47-.21.13,1.38,2.33,3.69,6.25.27.47c.13-.19.25-.39.38-.59,2.58-4,5.24-7.82,8-11.4.54-.72,1.09-1.43,1.64-2.13l.6-.77.89-1.11S248.24,1339.4,248.22,1339.42ZM245,1356.13c-.5,1-1,2.1-1.5,3.2H244a2.84,2.84,0,0,0,2.77-2.89v-3.85C246.2,1353.73,245.62,1354.91,245,1356.13Zm4.45-40.94q-1.32-.27-2.7-.45a31.49,31.49,0,0,0-3.79-.23h-.09c-.88,0-1.76,0-2.63.1s-1.8.19-2.69.34-1.63.31-2.42.51l-.36.1a31,31,0,0,0-5.95,2.23,31.72,31.72,0,0,0-9.34,7h0a31.55,31.55,0,0,0-8.26,21.34,31.45,31.45,0,0,0,2,11.1c.23.6.47,1.19.73,1.77l.12.28c.08.15.15.31.22.47.29.61.61,1.21.93,1.8l.27.46a31.67,31.67,0,1,0,34-46.87Zm13.28,13.64a106,106,0,0,0-13.28,18.72l-.69,1.25c-.68,1.23-1.34,2.49-2,3.79-.59,1.14-1.17,2.32-1.75,3.54-.5,1-1,2.1-1.5,3.2-.41.89-.83,1.8-1.23,2.73-.27.6-.52,1.2-.79,1.82-2.93,2-6.31,3.08-7.91,1.17l-1.67-3-1.53-2.73-.25-.47-1.42-2.53-2.18-3.89-1.32-2.37-2.2-3.94c-1.47-2.36,3.67-7.78,5.73-4.41l2.71,4.6,1.38,2.33,3.69,6.25.27.47c.13-.19.25-.39.38-.59,2.58-4,5.24-7.82,8-11.4.54-.72,1.09-1.43,1.64-2.13l.6-.77.89-1.11,1-1.25h0l.17-.21a100.35,100.35,0,0,1,11.13-11.58C262.8,1326.12,263.5,1327,262.77,1328.83Zm-36.21,23.61-1.32-2.37-12,7.21c.23.6.47,1.19.73,1.77l2.28-.42h0l12.47-2.3Zm18.48,3.69c-.5,1-1,2.1-1.5,3.2H244a2.84,2.84,0,0,0,2.77-2.89v-3.85C246.2,1353.73,245.62,1354.91,245,1356.13Zm3.18-16.71-.91.55-.51.3h0v-3.35l-1.3-7.72,0,0-3.93-7.09,1.37,8.07v0l2.48,4.44h0a3.36,3.36,0,0,1,.27.7,3,3,0,0,1-.11,1.82,3.13,3.13,0,0,1-.35.65l-.24.29a3.09,3.09,0,0,1-.59.48h0l-6.88,4.13-5.77,3.47-.21.13,1.38,2.33,3.69,6.25.27.47c.13-.19.25-.39.38-.59,2.58-4,5.24-7.82,8-11.4.54-.72,1.09-1.43,1.64-2.13l.6-.77.89-1.11S248.24,1339.4,248.22,1339.42ZM245,1356.13c-.5,1-1,2.1-1.5,3.2H244a2.84,2.84,0,0,0,2.77-2.89v-3.85C246.2,1353.73,245.62,1354.91,245,1356.13Zm3.18-16.71-.91.55-.51.3h0v-3.35l-1.3-7.72,0,0-3.93-7.09,1.37,8.07v0l2.48,4.44h0a3.36,3.36,0,0,1,.27.7,3,3,0,0,1-.11,1.82,3.13,3.13,0,0,1-.35.65l-.24.29a3.09,3.09,0,0,1-.59.48h0l-6.88,4.13-5.77,3.47-.21.13,1.38,2.33,3.69,6.25.27.47c.13-.19.25-.39.38-.59,2.58-4,5.24-7.82,8-11.4.54-.72,1.09-1.43,1.64-2.13l.6-.77.89-1.11S248.24,1339.4,248.22,1339.42Zm0,0-.91.55-.51.3h0v-3.35l-1.3-7.72,0,0-3.93-7.09,1.37,8.07v0l2.48,4.44h0a3.36,3.36,0,0,1,.27.7,3,3,0,0,1-.11,1.82,3.13,3.13,0,0,1-.35.65l-.24.29a3.09,3.09,0,0,1-.59.48h0l-6.88,4.13-5.77,3.47-.21.13,1.38,2.33,3.69,6.25.27.47c.13-.19.25-.39.38-.59,2.58-4,5.24-7.82,8-11.4.54-.72,1.09-1.43,1.64-2.13l.6-.77.89-1.11S248.24,1339.4,248.22,1339.42Zm0,0-.91.55-.51.3h0v1l.6-.77.89-1.11S248.24,1339.4,248.22,1339.42Z"/>
            <path class="cls-6" d="M249.31,1338.12l-1,1.25"/>
          </g>
        </g>
      </g>
      <path class="cls-2" d="M463.36,1272.17H287.81v1.18H463.36c6.09,0,11,3.94,11,8.78v69.79c0,4.84-4.95,8.78-11,8.78H287.81v1.18H463.36c6.91,0,12.52-4.47,12.52-10v-69.79C475.88,1276.63,470.27,1272.17,463.36,1272.17Z"/>
      <text class="cls-3" transform="translate(336.01 1304.55)">Activate Recove<tspan class="cls-8" x="94.94" y="0">r</tspan><tspan x="100.21" y="0">y </tspan><tspan x="12.63" y="16.02">actions of the </tspan><tspan x="5.7" y="32.04">Emergen</tspan><tspan class="cls-7" x="59.49" y="32.04">c</tspan><tspan x="65.78" y="32.04">y Plan</tspan></text>
    </g>
    <g>
      <g>
        <circle class="cls-1" cx="779.43" cy="698.13" r="88.78"/>
        <g>
          <path class="cls-2" d="M814.39,652.19c-.51,0-1-.07-1.52-.07H746a16.26,16.26,0,0,0-16.26,16.26c0,.26,0,.52,0,.77L732,715.67a16.21,16.21,0,0,0,15,15.44,22.93,22.93,0,0,1-2.24,5.7,4.81,4.81,0,0,0,.33,5.38,4.72,4.72,0,0,0,3.86,1.94,5.59,5.59,0,0,0,1.22-.16A29.56,29.56,0,0,0,769,731H796.3l12.13.16a16.18,16.18,0,0,0,16.18-14.72l4.44-46.5A16.27,16.27,0,0,0,814.39,652.19Zm10.68,17.25L820.63,716a12.33,12.33,0,0,1-12.32,11.2H767.77l-.09,0h-.27a1.21,1.21,0,0,0-.38,0,3.46,3.46,0,0,0-.62.36,1.89,1.89,0,0,0-.25.31L766,728c-4,7.51-11.39,10.72-16.9,12.09a.92.92,0,0,1-1-.33,1,1,0,0,1,0-1.13,28.26,28.26,0,0,0,3.16-9.32V729a.67.67,0,0,0,0-.2,1.34,1.34,0,0,0,0-.4,1.54,1.54,0,0,0-.15-.32,2.11,2.11,0,0,0-.21-.31l-.34-.21-.32-.17-.36-.14H748.2a12.37,12.37,0,0,1-12.37-11.8l-2.22-46.65a12.4,12.4,0,0,1,11.8-13h67.34a12.23,12.23,0,0,1,9.23,4A12.43,12.43,0,0,1,825.07,669.44Z"/>
          <g>
            <path class="cls-2" d="M759.68,675.39l11.86,11.86,2.22-2.22-11.88-11.86c-.46-.46,0-2.07,0-2.07l-8-6.91-3.19,3.18,6.94,8S759.28,675,759.68,675.39Z"/>
            <path class="cls-2" d="M788.59,694.28l-7.82,7.82,17,17a3.52,3.52,0,0,0,5,0h0l2.77-2.77a3.52,3.52,0,0,0,0-5h0Z"/>
            <path class="cls-2" d="M758.74,718.76l31-31a13,13,0,0,0,18.5-12,13.05,13.05,0,0,0-1.27-5.28L799.5,678a4.76,4.76,0,0,1-6.73-6.74l7.53-7.38a13,13,0,0,0-17.3,17.3L752,712a4.76,4.76,0,0,0,6.73,6.74Z"/>
          </g>
        </g>
      </g>
      <path class="cls-2" d="M508.41,653.27H702.75v1.18H508.41c-6.74,0-12.22,3.94-12.22,8.78V733c0,4.85,5.48,8.78,12.22,8.78H702.75V743H508.41c-7.64,0-13.86-4.46-13.86-10V663.23C494.55,657.74,500.77,653.27,508.41,653.27Z"/>
      <text class="cls-3" transform="translate(527.59 678.44)">File a se<tspan class="cls-8" x="46.73" y="0">r</tspan><tspan x="52" y="0">vice request </tspan><tspan x="4.77" y="16.02">(create a tic</tspan><tspan class="cls-9" x="73.98" y="16.02">k</tspan><tspan x="80.38" y="16.02">et)and </tspan><tspan x="-12.41" y="32.03">noti</tspan><tspan class="cls-10" x="11.28" y="32.03">f</tspan><tspan x="16.55" y="32.03">y municipal (agen</tspan><tspan class="cls-7" x="119.61" y="32.03">c</tspan><tspan x="125.89" y="32.03">y) </tspan><tspan x="9.39" y="48.05">for critical actions</tspan></text>
    </g>
    <g>
      <g>
        <circle class="cls-1" cx="246.66" cy="515.54" r="88.78"/>
        <path class="cls-2" d="M313.65,493.62a14.46,14.46,0,0,0-10.54-4.53H284.22a2,2,0,0,0,0,4h18.89a10.62,10.62,0,0,1,10.61,10.63c0,.16,0,.32,0,.48l-1.95,41.07a10.6,10.6,0,0,1-10.62,10.1h-1.49a1.85,1.85,0,0,0-.44.18l-.25.18a1.65,1.65,0,0,0-.5.58,1.75,1.75,0,0,0-.18.87v.56a24.08,24.08,0,0,0,3.63,9.55c-5.28-1.08-12.35-3.84-16.06-10.81a1.18,1.18,0,0,0-.18-.21,1.43,1.43,0,0,0-.28-.32l-.25-.18a2.24,2.24,0,0,0-.4-.22h-36.4a10.56,10.56,0,0,1-10.56-9.59l-.46-4.76h19.22a16.65,16.65,0,0,0,16.64-15.13l4.57-47.84A16.71,16.71,0,0,0,262.67,460c-.52-.05-1-.07-1.56-.07H192.33a16.72,16.72,0,0,0-16.72,16.72c0,.26,0,.52,0,.79l2.28,47.83a16.69,16.69,0,0,0,15.45,15.89,23.75,23.75,0,0,1-2.3,5.85,5,5,0,0,0,.34,5.54,4.82,4.82,0,0,0,4,2,5.29,5.29,0,0,0,1.25-.16A30.43,30.43,0,0,0,215.94,541h17.41l.48,5.12a14.53,14.53,0,0,0,14.53,13.2h34.49c4.57,7.57,12.33,10.61,18.17,11.8a5.48,5.48,0,0,0,.81,0,3.85,3.85,0,0,0,3.22-1.73,4,4,0,0,0,0-4.49,19.17,19.17,0,0,1-2.48-5.72,14.56,14.56,0,0,0,13.14-13.89l2-41A14.48,14.48,0,0,0,313.65,493.62Zm-99,43.41h-.28a1.34,1.34,0,0,0-.4,0,4,4,0,0,0-.63.37,1.92,1.92,0,0,0-.26.32,1.24,1.24,0,0,0-.18.22c-4.11,7.72-11.71,11-17.37,12.43a1,1,0,0,1-1-.34,1,1,0,0,1,0-1.17,29.11,29.11,0,0,0,3.26-9.57v-.54a2.54,2.54,0,0,0,0-.39,1.5,1.5,0,0,0-.16-.34,1.66,1.66,0,0,0-.22-.32l-.35-.22-.32-.18-.38-.14h-1.71A12.71,12.71,0,0,1,181.89,525l-2.29-48a12.75,12.75,0,0,1,12.14-13.33H261a12.58,12.58,0,0,1,9.49,4.09,12.8,12.8,0,0,1,3.18,9.93l-4.57,47.83a12.68,12.68,0,0,1-12.67,11.52H214.73Zm-3.22-48.87a5.8,5.8,0,1,1-5.8-5.8h0A5.8,5.8,0,0,1,211.43,488.16Zm42,0a5.8,5.8,0,1,1-5.8-5.8h0a5.81,5.81,0,0,1,5.82,5.78v0Zm-16.31,24.68a10.54,10.54,0,0,1-21,0,1,1,0,0,1,.89-1.05h19.1a1,1,0,0,1,1,.95A.34.34,0,0,1,237.14,512.84Zm52.74,13.6a4.11,4.11,0,1,1,4.11-4.11h0a4.11,4.11,0,0,1-4.09,4.11ZM275,539.13a7.49,7.49,0,0,1,7.45,6.73.71.71,0,0,1-.66.74H268.18a.71.71,0,0,1-.72-.68v-.06a7.49,7.49,0,0,1,7.51-6.75Z"/>
      </g>
      <path class="cls-2" d="M479.65,470.68H323.58v1.18H479.65c5.41,0,9.81,3.95,9.81,8.79v69.79c0,4.84-4.4,8.78-9.81,8.78H323.58v1.18H479.65c6.13,0,11.12-4.47,11.12-10V480.65C490.77,475.15,485.78,470.68,479.65,470.68Z"/>
      <text class="cls-3" transform="translate(358.39 503.07)">Collect feedback <tspan x="-0.01" y="16.02">from community </tspan><tspan x="26.26" y="32.03">leaders.</tspan></text>
    </g>
    <g>
      <g>
        <circle class="cls-1" cx="779.43" cy="332.96" r="88.78"/>
        <g>
          <g>
            <g>
              <path class="cls-2" d="M815.62,282.34H800.69a3.36,3.36,0,0,1,.18.64l.35,2.1h11.45a2.84,2.84,0,0,1,2.78,2.88v69.22l.6-.76c.29-.38.59-.75.88-1.11l1-1.25v0a1.68,1.68,0,0,1,.18-.21V285A2.59,2.59,0,0,0,815.62,282.34Zm-58.89,94.14-.68-1.22h0a2.82,2.82,0,0,1-2.68-2.88v-1.94l-1-1.85h0l-1.65-3h0v9.8a2.78,2.78,0,0,0,.26,1.16l0,0A2.51,2.51,0,0,0,753.2,378h4.37Zm-3.53-94.14a2.55,2.55,0,0,0-2.5,2.31h0a1.05,1.05,0,0,0,0,.31v2.87h0l3.2-1.93,0,0,5.93-3.55Zm64.25,82.4c-.68,1.22-1.34,2.48-2,3.78v3.85a2.84,2.84,0,0,1-2.78,2.89h-.48c-.41.89-.82,1.81-1.23,2.74h4.66a2.59,2.59,0,0,0,2.53-2.64V363.49C817.91,363.9,817.68,364.32,817.45,364.74Zm-18.38,10.52h-20.6l-1.14.69L773.92,378h26.67ZM776.2,282.34l1.13,2,2.83-.51h0l8.3-1.52Z"/>
              <g>
                <path class="cls-2" d="M805.58,310.78l.58,3.47h3a1.66,1.66,0,0,0,1.59-1.74,1.82,1.82,0,0,0-.47-1.22,1.53,1.53,0,0,0-1.12-.51Z"/>
                <path class="cls-2" d="M799.28,313.86l-2.14.39h3.46a1.6,1.6,0,0,0-1.05-.42A1.24,1.24,0,0,0,799.28,313.86Z"/>
                <path class="cls-2" d="M809.11,318.76h-2.18l.59,3.47h1.59a1.55,1.55,0,0,0,1.07-.44,1.84,1.84,0,0,0,.52-1.3,1.8,1.8,0,0,0-.47-1.22,1.39,1.39,0,0,0-.54-.39A1.43,1.43,0,0,0,809.11,318.76Z"/>
                <path class="cls-2" d="M809.65,334.82l.5,2.95a1.85,1.85,0,0,0,.08-2.55A1.44,1.44,0,0,0,809.65,334.82Z"/>
                <path class="cls-2" d="M810.23,343.2a1.32,1.32,0,0,0-.48-.36l.94,1.7a.45.45,0,0,0,0-.12A1.8,1.8,0,0,0,810.23,343.2Z"/>
                <path class="cls-2" d="M809.11,326.74h-.83l.58,3.47h.25a1.66,1.66,0,0,0,1.59-1.74,1.82,1.82,0,0,0-.47-1.23A1.52,1.52,0,0,0,809.11,326.74Z"/>
              </g>
            </g>
            <g>
              <path class="cls-2" d="M814.32,351.26a4.09,4.09,0,0,0-.28-.7h0l-2.47-4.47v0l1.43,8.41h0l0,0a2.14,2.14,0,0,0,.59-.48,3.22,3.22,0,0,0,.24-.28,2.93,2.93,0,0,0,.35-.65A3.09,3.09,0,0,0,814.32,351.26Zm0,0a4.09,4.09,0,0,0-.28-.7h0l-2.47-4.47v0l1.43,8.41h0l0,0a2.14,2.14,0,0,0,.59-.48,3.22,3.22,0,0,0,.24-.28,2.93,2.93,0,0,0,.35-.65A3.09,3.09,0,0,0,814.32,351.26Zm0,0a4.09,4.09,0,0,0-.28-.7h0l-2.47-4.47v0l1.43,8.41h0l0,0a2.14,2.14,0,0,0,.59-.48,3.22,3.22,0,0,0,.24-.28,2.93,2.93,0,0,0,.35-.65A3.09,3.09,0,0,0,814.32,351.26Zm0,0a4.09,4.09,0,0,0-.28-.7h0l-2.47-4.47v0l1.43,8.41h0l0,0a2.14,2.14,0,0,0,.59-.48,3.22,3.22,0,0,0,.24-.28,2.93,2.93,0,0,0,.35-.65A3.09,3.09,0,0,0,814.32,351.26Zm0,0a4.09,4.09,0,0,0-.28-.7h0l-2.47-4.47v0l1.43,8.41h0l0,0a2.14,2.14,0,0,0,.59-.48,3.22,3.22,0,0,0,.24-.28,2.93,2.93,0,0,0,.35-.65A3.09,3.09,0,0,0,814.32,351.26Zm0,0a4.09,4.09,0,0,0-.28-.7h0l-2.47-4.47v0l1.43,8.41h0l0,0a2.14,2.14,0,0,0,.59-.48,3.22,3.22,0,0,0,.24-.28,2.93,2.93,0,0,0,.35-.65A3.09,3.09,0,0,0,814.32,351.26Zm0,0a4.09,4.09,0,0,0-.28-.7h0l-2.47-4.47v0l1.43,8.41h0l0,0a2.14,2.14,0,0,0,.59-.48,3.22,3.22,0,0,0,.24-.28,2.93,2.93,0,0,0,.35-.65A3.09,3.09,0,0,0,814.32,351.26Zm0,0a4.09,4.09,0,0,0-.28-.7h0l-2.47-4.47v0l1.43,8.41h0l0,0a2.14,2.14,0,0,0,.59-.48,3.22,3.22,0,0,0,.24-.28,2.93,2.93,0,0,0,.35-.65A3.09,3.09,0,0,0,814.32,351.26Zm0,0a4.09,4.09,0,0,0-.28-.7h0l-2.47-4.47v0l1.43,8.41h0l0,0a2.14,2.14,0,0,0,.59-.48,3.22,3.22,0,0,0,.24-.28,2.93,2.93,0,0,0,.35-.65A3.09,3.09,0,0,0,814.32,351.26Zm0,0a4.09,4.09,0,0,0-.28-.7h0l-2.47-4.47v0l1.43,8.41h0l0,0a2.14,2.14,0,0,0,.59-.48,3.22,3.22,0,0,0,.24-.28,2.93,2.93,0,0,0,.35-.65A3.09,3.09,0,0,0,814.32,351.26Zm0,0a4.09,4.09,0,0,0-.28-.7h0l-2.47-4.47v0l1.43,8.41h0l0,0a2.14,2.14,0,0,0,.59-.48,3.22,3.22,0,0,0,.24-.28,2.93,2.93,0,0,0,.35-.65A3.09,3.09,0,0,0,814.32,351.26Zm0,0a4.09,4.09,0,0,0-.28-.7h0l-2.47-4.47v0l1.43,8.41h0l0,0a2.14,2.14,0,0,0,.59-.48,3.22,3.22,0,0,0,.24-.28,2.93,2.93,0,0,0,.35-.65A3.09,3.09,0,0,0,814.32,351.26Zm0,0a4.09,4.09,0,0,0-.28-.7h0l-2.47-4.47v0l1.43,8.41h0l0,0a2.14,2.14,0,0,0,.59-.48,3.22,3.22,0,0,0,.24-.28,2.93,2.93,0,0,0,.35-.65A3.09,3.09,0,0,0,814.32,351.26Zm0,0a4.09,4.09,0,0,0-.28-.7h0l-2.47-4.47v0l1.43,8.41h0l0,0a2.14,2.14,0,0,0,.59-.48,3.22,3.22,0,0,0,.24-.28,2.93,2.93,0,0,0,.35-.65A3.09,3.09,0,0,0,814.32,351.26Zm0,0a4.09,4.09,0,0,0-.28-.7h0l-2.47-4.47v0l1.43,8.41h0l0,0a2.14,2.14,0,0,0,.59-.48,3.22,3.22,0,0,0,.24-.28,2.93,2.93,0,0,0,.35-.65A3.09,3.09,0,0,0,814.32,351.26Zm0,0a4.09,4.09,0,0,0-.28-.7h0l-2.47-4.47v0l1.43,8.41h0l0,0a2.14,2.14,0,0,0,.59-.48,3.22,3.22,0,0,0,.24-.28,2.93,2.93,0,0,0,.35-.65A3.09,3.09,0,0,0,814.32,351.26Zm0,0a4.09,4.09,0,0,0-.28-.7h0l-2.47-4.47v0l1.43,8.41h0l0,0a2.14,2.14,0,0,0,.59-.48,3.22,3.22,0,0,0,.24-.28,2.93,2.93,0,0,0,.35-.65A3.09,3.09,0,0,0,814.32,351.26Zm-56,28.18-1.34.24a2.68,2.68,0,0,1-1.81-.31h0A2.81,2.81,0,0,1,754,378h0a2.41,2.41,0,0,1-.2-.66l-.11-.67v0l-1.36-8.06h0v0l-1.66-3h0l-2.28-4.12,1.37,8.07h0l.91,5.4v0l.28,1.57v0l.71,4.21a2.54,2.54,0,0,0,2.94,2.14l2.34-.43h0l2.82-.51h0Zm56-28.18a4.09,4.09,0,0,0-.28-.7h0l-2.47-4.47v0l1.43,8.41h0l0,0a2.14,2.14,0,0,0,.59-.48,3.22,3.22,0,0,0,.24-.28,2.93,2.93,0,0,0,.35-.65A3.09,3.09,0,0,0,814.32,351.26Zm0,0a4.09,4.09,0,0,0-.28-.7h0l-2.47-4.47v0l1.43,8.41h0l0,0a2.14,2.14,0,0,0,.59-.48,3.22,3.22,0,0,0,.24-.28,2.93,2.93,0,0,0,.35-.65A3.09,3.09,0,0,0,814.32,351.26Zm0,0a4.09,4.09,0,0,0-.28-.7h0l-2.47-4.47v0l1.43,8.41h0l0,0a2.14,2.14,0,0,0,.59-.48,3.22,3.22,0,0,0,.24-.28,2.93,2.93,0,0,0,.35-.65A3.09,3.09,0,0,0,814.32,351.26Zm0,0a4.09,4.09,0,0,0-.28-.7h0l-2.47-4.47v0l1.43,8.41h0l0,0a2.14,2.14,0,0,0,.59-.48,3.22,3.22,0,0,0,.24-.28,2.93,2.93,0,0,0,.35-.65A3.09,3.09,0,0,0,814.32,351.26Zm0,0a4.09,4.09,0,0,0-.28-.7h0l-2.47-4.47v0l1.43,8.41h0l0,0a2.14,2.14,0,0,0,.59-.48,3.22,3.22,0,0,0,.24-.28,2.93,2.93,0,0,0,.35-.65A3.09,3.09,0,0,0,814.32,351.26Zm0,0a4.09,4.09,0,0,0-.28-.7h0l-2.47-4.47v0l1.43,8.41h0l0,0a2.14,2.14,0,0,0,.59-.48,3.22,3.22,0,0,0,.24-.28,2.93,2.93,0,0,0,.35-.65A3.09,3.09,0,0,0,814.32,351.26Zm0,0a4.09,4.09,0,0,0-.28-.7h0l-2.47-4.47v0l1.43,8.41h0l0,0a2.14,2.14,0,0,0,.59-.48,3.22,3.22,0,0,0,.24-.28,2.93,2.93,0,0,0,.35-.65A3.09,3.09,0,0,0,814.32,351.26Zm0,0a4.09,4.09,0,0,0-.28-.7h0l-2.47-4.47v0l1.43,8.41h0l0,0a2.14,2.14,0,0,0,.59-.48,3.22,3.22,0,0,0,.24-.28,2.93,2.93,0,0,0,.35-.65A3.09,3.09,0,0,0,814.32,351.26Zm0,0a4.09,4.09,0,0,0-.28-.7h0l-2.47-4.47v0l1.43,8.41h0l0,0a2.14,2.14,0,0,0,.59-.48,3.22,3.22,0,0,0,.24-.28,2.93,2.93,0,0,0,.35-.65A3.09,3.09,0,0,0,814.32,351.26Zm0,0a4.09,4.09,0,0,0-.28-.7h0l-2.47-4.47v0l1.43,8.41h0l0,0a2.14,2.14,0,0,0,.59-.48,3.22,3.22,0,0,0,.24-.28,2.93,2.93,0,0,0,.35-.65A3.09,3.09,0,0,0,814.32,351.26Zm0,0a4.09,4.09,0,0,0-.28-.7h0l-2.47-4.47v0l1.43,8.41h0l0,0a2.14,2.14,0,0,0,.59-.48,3.22,3.22,0,0,0,.24-.28,2.93,2.93,0,0,0,.35-.65A3.09,3.09,0,0,0,814.32,351.26Zm0,0a4.09,4.09,0,0,0-.28-.7h0l-2.47-4.47v0l1.43,8.41h0l0,0a2.14,2.14,0,0,0,.59-.48,3.22,3.22,0,0,0,.24-.28,2.93,2.93,0,0,0,.35-.65A3.09,3.09,0,0,0,814.32,351.26Zm0,0a4.09,4.09,0,0,0-.28-.7h0l-2.47-4.47v0l1.43,8.41h0l0,0a2.14,2.14,0,0,0,.59-.48,3.22,3.22,0,0,0,.24-.28,2.93,2.93,0,0,0,.35-.65A3.09,3.09,0,0,0,814.32,351.26Zm0,0a4.09,4.09,0,0,0-.28-.7h0l-2.47-4.47v0l1.43,8.41h0l0,0a2.14,2.14,0,0,0,.59-.48,3.22,3.22,0,0,0,.24-.28,2.93,2.93,0,0,0,.35-.65A3.09,3.09,0,0,0,814.32,351.26Zm0,0a4.09,4.09,0,0,0-.28-.7h0l-2.47-4.47v0l1.43,8.41h0l0,0a2.14,2.14,0,0,0,.59-.48,3.22,3.22,0,0,0,.24-.28,2.93,2.93,0,0,0,.35-.65A3.09,3.09,0,0,0,814.32,351.26Zm0,0a4.09,4.09,0,0,0-.28-.7h0l-2.47-4.47v0l1.43,8.41h0l0,0a2.14,2.14,0,0,0,.59-.48,3.22,3.22,0,0,0,.24-.28,2.93,2.93,0,0,0,.35-.65A3.09,3.09,0,0,0,814.32,351.26Zm0,0a4.09,4.09,0,0,0-.28-.7h0l-2.47-4.47v0l1.43,8.41h0l0,0a2.14,2.14,0,0,0,.59-.48,3.22,3.22,0,0,0,.24-.28,2.93,2.93,0,0,0,.35-.65A3.09,3.09,0,0,0,814.32,351.26Zm0,0a4.09,4.09,0,0,0-.28-.7h0l-2.47-4.47v0l1.43,8.41h0l0,0a2.14,2.14,0,0,0,.59-.48,3.22,3.22,0,0,0,.24-.28,2.93,2.93,0,0,0,.35-.65A3.09,3.09,0,0,0,814.32,351.26Zm-60.45-65.35-3.2.58h0l-4.36.8-7.67,1.41a2.63,2.63,0,0,0-2,3.05l.2,1.26h0l.5,2.87h0l2.48-1.49h0l0-.17a2.88,2.88,0,0,1,2.25-3.35l5.25-1,3.43-2.07h0l2-1.21,1.21-.73Zm43.52,86.36-12.47,2.29h0l-2.28.42-1.5.28h0l-3.76.68h0L773.94,378h0l-3.27,2,7.58-1.4h0l3.1-.57h0l2.53-.47,12.35-2.26h0l2.52-.46Zm7.81-1.43.27.46.38-.58ZM816,355.9l-.51-3v0l-1.31-7.72v0l-2.48-14.67-1.46-8.65h0l-.5-2.89h0l-.78-4.62h0l-.59-3.46h0L804,285.09h0l-.47-2.74-.47-2.78a2.54,2.54,0,0,0-2.94-2.14l-21.33,3.92h0l-2.82.51.21.39.06.1h0l1.12,2h0l2.82-.52h0l8.3-1.52h0l9.2-1.69a2.75,2.75,0,0,1,3,1.69,3.27,3.27,0,0,1,.19.65l.35,2.09h0l4.36,25.69h0l.58,3.46h0l.77,4.5h0l.58,3.46.77,4.51.58,3.47h0l.06.34.72,4.27.5,2.94h0l.05.24v0l1.37,8.06v0l1.43,8.41h0l.47,2.87h0l.33,1.92c.55-.73,1.1-1.44,1.65-2.14l.6-.76Zm2.14,12.67-.65-3.83c-.68,1.22-1.34,2.48-2,3.78s-1.18,2.33-1.76,3.54l1.76-.32h0l.61-.11a2.6,2.6,0,0,0,2-3.06Z"/>
              <path class="cls-2" d="M790.13,307.45l1.77,3.2,2.83-.52,3.8-.7a1.71,1.71,0,0,0,1.29-2,1.66,1.66,0,0,0-1.6-1.44,1.18,1.18,0,0,0-.26,0l-5,.92Z"/>
              <path class="cls-2" d="M794.21,314.79,796,318l2.82-.52,1.06-.19a1.69,1.69,0,0,0,1.28-2,1.73,1.73,0,0,0-.54-1,1.58,1.58,0,0,0-1-.42l-.27,0-2.15.4H797Z"/>
              <path class="cls-2" d="M802.39,329.57a1.55,1.55,0,0,1,1.08.64,1.77,1.77,0,0,1,.34.78,1.87,1.87,0,0,1-.09.95l-1-1.73Z"/>
              <path class="cls-2" d="M797.82,322.23h.51l1.73,3.12,1.13-.21a1.6,1.6,0,0,0,1.23-1.15,1.73,1.73,0,0,0,.05-.85,1.65,1.65,0,0,0-.43-.91,1.59,1.59,0,0,0-.87-.51h0l-.27,0-.28,0-2.32.43Z"/>
            </g>
            <g>
              <path class="cls-2" d="M817.8,351.74l-2.35-4.25v0l-1.31-2.33,0,0L810.2,338v0l-.1-.18h0l-1.72-3.1-2.13-3.84-.37-.67-1.93-3.46L802.42,324h0l-1-1.74-.29-.51h0l-1.64-3-.72-1.29-1.76-3.2h0v0l-1.92-3.47-.36-.67L793,306.93h0l-2.9-5.22-1.92-3.48-.07-.12-1.52-2.74-5.69-10.27-.69-1.23-.85-1.52h0l-.55-1-4.35-7.88a2.5,2.5,0,0,0-3.47-1l-16.36,9.84h0l-3.86,2.32-4.39,2.63L736.79,293l-19.9,12a2.69,2.69,0,0,0-.92,3.6l33.79,60.93h0l.91,1.64h0l3,5.48v0l.74,1.33.77,1.36h0l1.72,3.11h0l2.43,4.37a2.5,2.5,0,0,0,3.47,1l15.4-9.27h0l1-.57h0l3.76-2.27.77-.46h0l1.15-.7h0l10.3-6.19L793.89,366l-12,7.21-3.41,2.05h0l-1.15.68h0L773.94,378h0l-3.27,2-6.6,4a2.72,2.72,0,0,1-3.78-1.05l-.51-.91-1.4-2.53-.8-1.44h0l-.83-1.52-.68-1.22h0l-2.68-4.81h0l-1-1.85h0l-1.65-3h0l-2.28-4.12-28.65-51.67a3,3,0,0,1,1-3.94l16.53-9.94h0l2.48-1.49h0l7.47-4.48,3.43-2.07,2-1.21,1.21-.73,5.93-3.56,9.88-5.93a2.7,2.7,0,0,1,3.78,1l2.44,4.4.22.38.06.1h0l1.12,2h0l.39.71,6,10.78,1.3,2.35.48.85,1.45,2.63,3.19,5.75.59,1.06.3.54.89,1.6.07.14,1.93,3.47.3.54L796,318l.44.77,1.86,3.38h0l0,.08h0l1.73,3.11h0l.78,1.4,1.55,2.81h0l.11.19.06.11.18.34.72,1.28.25.45,1.53,2.78,1.92,3.47,2.58,4.65h0l1,1.7h0l.86,1.53v0l2.47,4.45h0a4.09,4.09,0,0,1,.28.7,3.08,3.08,0,0,1-.12,1.83,2.93,2.93,0,0,1-.35.65,3.22,3.22,0,0,1-.24.28,2.14,2.14,0,0,1-.59.48l0,0h0l-6.87,4.13-5.78,3.47-.21.13,1.39,2.34,4.1-2.47,4.73-2.84,3.12-1.88h0l2-1.18h0l.51-.3.91-.55a.09.09,0,0,0,.06,0l1-1.25v0a2.93,2.93,0,0,0,.18-1A2.64,2.64,0,0,0,817.8,351.74ZM793.89,366l-12,7.21-3.41,2.05h0l-1.15.68,3.76-.68h1.66l-.12-.28,2.28-.42h0l10.3-6.19ZM813,354.52h0l-6.87,4.13-5.78,3.47-.21.13,1.39,2.34,4.1-2.47,4.73-2.84,3.12-1.88h0Zm-10.24-24.31-.19-.34.18.34.72,1.28ZM757.57,378h0l-.83-1.52-.68-1.22h0l-2.68-4.81h0l-1-1.85,1.36,8.06v0l.74,1.33.77,1.36h0a2.68,2.68,0,0,0,1.81.31l1.34-.24Zm-6.9-90.16h0l-3.43,2.07,3.43-2.07,2-1.21Zm-8.68,3a2.88,2.88,0,0,0-2.25,3.35l0,.17,7.47-4.48ZM793.89,366l-12,7.21-3.41,2.05h0l-1.15.68,3.76-.68h1.66l-.12-.28,2.28-.42h0l10.3-6.19ZM813,354.52h0l-6.87,4.13-5.78,3.47-.21.13,1.39,2.34,4.1-2.47,4.73-2.84,3.12-1.88h0Zm-10.24-24.31-.19-.34.18.34.72,1.28ZM757.57,378h0l-.83-1.52-.68-1.22h0l-2.68-4.81h0l-1-1.85,1.36,8.06v0l.74,1.33.77,1.36h0a2.68,2.68,0,0,0,1.81.31l1.34-.24Zm-6.9-90.16h0l-3.43,2.07,3.43-2.07,2-1.21Zm-8.68,3a2.88,2.88,0,0,0-2.25,3.35l0,.17,7.47-4.48Zm60.77,39.34-.19-.34.18.34.72,1.28ZM793.89,366l-12,7.21-3.41,2.05h0l-1.15.68,3.76-.68h1.66l-.12-.28,2.28-.42h0l10.3-6.19Zm-36.32,12h0l-.83-1.52-.68-1.22h0l-2.68-4.81h0l-1-1.85,1.36,8.06v0l.74,1.33.77,1.36h0a2.68,2.68,0,0,0,1.81.31l1.34-.24Zm-6.9-90.16h0l-3.43,2.07,3.43-2.07,2-1.21Zm-8.68,3a2.88,2.88,0,0,0-2.25,3.35l0,.17,7.47-4.48Zm60.77,39.34-.19-.34.18.34.72,1.28ZM793.89,366l-12,7.21-3.41,2.05h0l-1.15.68,3.76-.68h1.66l-.12-.28,2.28-.42h0l10.3-6.19Zm-36.32,12h0l-.83-1.52-.68-1.22h0l-2.68-4.81h0l-1-1.85,1.36,8.06v0l.74,1.33.77,1.36h0a2.68,2.68,0,0,0,1.81.31l1.34-.24Zm-6.9-90.16h0l-3.43,2.07,3.43-2.07,2-1.21Zm-8.68,3a2.88,2.88,0,0,0-2.25,3.35l0,.17,7.47-4.48Zm0,0a2.88,2.88,0,0,0-2.25,3.35l0,.17,7.47-4.48Zm8.68-3h0l-3.43,2.07,3.43-2.07,2-1.21Zm6.9,90.16h0l-.83-1.52-.68-1.22h0l-2.68-4.81h0l-1-1.85,1.36,8.06v0l.74,1.33.77,1.36h0a2.68,2.68,0,0,0,1.81.31l1.34-.24Zm36.32-12-12,7.21-3.41,2.05h0l-1.15.68,3.76-.68h1.66l-.12-.28,2.28-.42h0l10.3-6.19Zm8.87-35.79-.19-.34.18.34.72,1.28ZM742,290.87a2.88,2.88,0,0,0-2.25,3.35l0,.17,7.47-4.48Zm8.68-3h0l-3.43,2.07,3.43-2.07,2-1.21Zm6.9,90.16h0l-.83-1.52-.68-1.22h0l-2.68-4.81h0l-1-1.85,1.36,8.06v0l.74,1.33.77,1.36h0a2.68,2.68,0,0,0,1.81.31l1.34-.24Zm36.32-12-12,7.21-3.41,2.05h0l-1.15.68,3.76-.68h1.66l-.12-.28,2.28-.42h0l10.3-6.19Zm8.87-35.79-.19-.34.18.34.72,1.28ZM742,290.87a2.88,2.88,0,0,0-2.25,3.35l0,.17,7.47-4.48Zm8.68-3h0l-3.43,2.07,3.43-2.07,2-1.21Zm6.9,90.16h0l-.83-1.52-.68-1.22h0l-2.68-4.81h0l-1-1.85,1.36,8.06v0l.74,1.33.77,1.36h0a2.68,2.68,0,0,0,1.81.31l1.34-.24Zm45.19-47.79-.19-.34.18.34.72,1.28ZM793.89,366l-12,7.21-3.41,2.05h0l-1.15.68,3.76-.68h1.66l-.12-.28,2.28-.42h0l10.3-6.19ZM813,354.52h0l-6.87,4.13-5.78,3.47-.21.13,1.39,2.34,4.1-2.47,4.73-2.84,3.12-1.88h0Zm-71-63.65a2.88,2.88,0,0,0-2.25,3.35l0,.17,7.47-4.48Zm8.68-3h0l-3.43,2.07,3.43-2.07,2-1.21Zm6.9,90.16h0l-.83-1.52-.68-1.22h0l-2.68-4.81h0l-1-1.85,1.36,8.06v0l.74,1.33.77,1.36h0a2.68,2.68,0,0,0,1.81.31l1.34-.24Zm45.19-47.79-.19-.34.18.34.72,1.28ZM793.89,366l-12,7.21-3.41,2.05h0l-1.15.68,3.76-.68h1.66l-.12-.28,2.28-.42h0l10.3-6.19ZM813,354.52h0l-6.87,4.13-5.78,3.47-.21.13,1.39,2.34,4.1-2.47,4.73-2.84,3.12-1.88h0Zm-71-63.65a2.88,2.88,0,0,0-2.25,3.35l0,.17,7.47-4.48Zm8.68-3h0l-3.43,2.07,3.43-2.07,2-1.21Zm6.9,90.16h0l-.83-1.52-.68-1.22h0l-2.68-4.81h0l-1-1.85,1.36,8.06v0l.74,1.33.77,1.36h0a2.68,2.68,0,0,0,1.81.31l1.34-.24Zm45.19-47.79-.19-.34.18.34.72,1.28ZM793.89,366l-12,7.21-3.41,2.05h0l-1.15.68,3.76-.68h1.66l-.12-.28,2.28-.42h0l10.3-6.19ZM813,354.52h0l-6.87,4.13-5.78,3.47-.21.13,1.39,2.34,4.1-2.47,4.73-2.84,3.12-1.88h0Z"/>
              <g>
                <path class="cls-2" d="M758.21,308.7l15.14-9.09,2-1.21h0l.6-.36a1.41,1.41,0,0,1,.76-.21,1.45,1.45,0,0,1,.73.19h0a1.7,1.7,0,0,1,.71.7,1.79,1.79,0,0,1,.23.89,1.67,1.67,0,0,1-.78,1.44l-12.73,7.65-2,1.23h0l-3.72,2.23L754.38,315,751,317l-2.7,1.62-5.85,3.51-2.48,1.5-5.16,3.09a1.58,1.58,0,0,1-2.21-.67,1.72,1.72,0,0,1,.55-2.33l6.2-3.73,2.49-1.49,4.38-2.63,2.08-1.25L751,313l2.21-1.33h0l2.53-1.52Z"/>
                <path class="cls-2" d="M736.45,333a1.59,1.59,0,0,0,2.21.68L741.4,332l2.49-1.49,4.43-2.67,2.7-1.63,6-3.62h0l4.11-2.47,4.31-2.6h0l1.44-.86,7.51-4.51,2-1.21h0l3.76-2.26,1.24-.75a1.63,1.63,0,0,0,.78-1.57,1.76,1.76,0,0,0-.23-.76,1.66,1.66,0,0,0-1.44-.89,1.55,1.55,0,0,0-.77.22l-4.48,2.69h0l-1.75,1.06-5.77,3.47-.93.55-6.58,4L756,319.27l-.06,0L751,322.25l-2.7,1.62L748,324h0l-4.76,2.86-2.49,1.49L737,330.67A1.72,1.72,0,0,0,736.45,333Z"/>
                <path class="cls-2" d="M771.88,328.13l.3-.18,5.47-3.29,3-1.79,4.53-2.72,2.29-1.38a1.59,1.59,0,0,1,.78-.22,1.75,1.75,0,0,1,1.66,1.6,1.63,1.63,0,0,1-.22,1.06,1.58,1.58,0,0,1-.55.57l-4.79,2.88-2.55,1.53-3.22,1.94-7.5,4.5-.23.14-5.55,3.33-2.89,1.74h0l-4.58,2.75-1.94,1.17h0l-4.82,2.9-2.7,1.62-1.6,1-.4.24a1.59,1.59,0,0,1-2.21-.67,1.75,1.75,0,0,1,.55-2.34l1.45-.86,2.21-1.34,2.7-1.62,1.74-1.05h0l5.83-3.5,2.61-1.57,3.16-1.9Z"/>
                <path class="cls-2" d="M747.94,353.73a1.56,1.56,0,0,0,.38.46,1.54,1.54,0,0,0,1.84.21l.86-.52,1.46-.87,1.59-1h0l1.79-1.07,4-2.39,5.19-3.11h0l2.29-1.38,5.78-3.48.35-.21h0l7.12-4.28,3.83-2.3,1.93-1.17,6.52-3.91.07,0a1.67,1.67,0,0,0,.54-.55,1.79,1.79,0,0,0,0-1.79,1.65,1.65,0,0,0-1.44-.88,1.51,1.51,0,0,0-.77.21l-4.09,2.46-3.91,2.35-3.59,2.15-4.86,2.94-.9.53-7.49,4.5-2.56,1.54-3.22,1.94-5.23,3.14h0l-4.4,2.64-2.53,1.52c-.06.05-.12.08-.17.13A1.75,1.75,0,0,0,747.94,353.73Z"/>
                <path class="cls-2" d="M740.28,339.91a1.6,1.6,0,0,0,2.21.68l.33-.2,2.48-1.49,3-1.81,2.7-1.63,8.69-5.22h0l3.5-2.1,4.93-3h0l.83-.49,7.5-4.51,2.62-1.58,3.15-1.89,3-1.81a1.64,1.64,0,0,0,.75-1.1,1.82,1.82,0,0,0-.2-1.24,1.58,1.58,0,0,0-.26-.36,1.65,1.65,0,0,0-1.18-.53,1.59,1.59,0,0,0-.78.22l-.51.31L778,315.26l-2.36,1.42-5.77,3.47-.31.18-7.19,4.33-3.76,2.26L756.76,328,751,331.46l-.88.53h0l-1.8,1.08-3.63,2.18-2.49,1.5-1.37.82A1.74,1.74,0,0,0,740.28,339.91Z"/>
                <path class="cls-2" d="M751.77,360.64a1.63,1.63,0,0,0,1.86.82,1.38,1.38,0,0,0,.36-.15l2.54-1.53.22-.13,5.14-3.09,5.8-3.49h0l1.69-1,5.78-3.48,1-.59,6.51-3.91,4.45-2.67,1.34-.81,7.1-4.27.38-.23.86-.51a1.74,1.74,0,0,0,.54-2.33,1.82,1.82,0,0,0-.57-.63,1.58,1.58,0,0,0-.87-.26,1.54,1.54,0,0,0-.77.21l-.08.05-5.78,3.47-3.31,2-4.17,2.51-4.27,2.57-1.52.91-7.48,4.5-1.94,1.17h0l-3.84,2.3-4.6,2.77-5.78,3.48A1.73,1.73,0,0,0,751.77,360.64Z"/>
                <path class="cls-2" d="M755.6,367.55a1.61,1.61,0,0,0,2.22.67l12.54-7.54,1.08-.64,5.79-3.48,1.58-1,5.9-3.54,5-3h0l.73-.44,7.49-4.5.24-.14,2.39-1.44a1.7,1.7,0,0,0,.72-1.9,1.75,1.75,0,0,0-.17-.43,1.68,1.68,0,0,0-1.45-.89,1.46,1.46,0,0,0-.77.22l-1.85,1.1-5.78,3.48-2.7,1.62-4.79,2.88-3.67,2.2h0l-2.1,1.27-7.49,4.5-1.34.8L764.76,360l-4,2.41h0l-4.57,2.76A1.74,1.74,0,0,0,755.6,367.55Z"/>
                <path class="cls-2" d="M734.81,310.26a1.62,1.62,0,0,0,2.27.64l.67-.4,2.49-1.5,8.08-4.85,2.7-1.62,2.08-1.25,5.57-3.34,4.63-2.79a1.79,1.79,0,0,0,.61-2.38,1.67,1.67,0,0,0-1.45-.87,1.6,1.6,0,0,0-.83.23L751,298.52l-2.7,1.63-8.7,5.22-2.48,1.49-1.72,1A1.76,1.76,0,0,0,734.81,310.26Z"/>
              </g>
            </g>
          </g>
          <g>
            <path class="cls-2" d="M816.87,355.35l-.91.55-.51.3h0v-3.35l-1.31-7.72,0,0L810.2,338v0l-.1-.18h0l-1.72-3.1-2.13-3.84c-.81.15-1.62.31-2.42.52l-.35.09a30.46,30.46,0,0,0-6,2.24,31.81,31.81,0,0,0-9.34,7h0a31.66,31.66,0,0,0-5.57,8.55,30.38,30.38,0,0,0-1.73,5.05,31.67,31.67,0,0,0,1,18.84q.33.9.72,1.77l2.28-.42h0l12.47-2.29-2.17-3.9L793.89,366l-2.2-3.94c-1.47-2.35,3.67-7.77,5.73-4.4l2.71,4.59,1.39,2.34,3.68,6.25.27.46.38-.58c2.58-4,5.25-7.83,7.95-11.4.55-.73,1.1-1.44,1.65-2.14l.6-.76c.29-.38.59-.75.88-1.11A.09.09,0,0,1,816.87,355.35Zm-4.68,19.91h.48a2.84,2.84,0,0,0,2.78-2.89v-3.85c-.6,1.15-1.18,2.33-1.76,3.54C813.19,373.1,812.69,374.17,812.19,375.26Zm4.68-19.91-.91.55.09.52c.29-.38.59-.75.88-1.11A.09.09,0,0,1,816.87,355.35Zm0,0-.91.55-.51.3h0v-3.35l-1.31-7.72,0,0L810.2,338l1.37,8.06v0l2.47,4.45h0a4.09,4.09,0,0,1,.28.7,3.08,3.08,0,0,1-.12,1.83,2.93,2.93,0,0,1-.35.65,3.22,3.22,0,0,1-.24.28,2.14,2.14,0,0,1-.59.48l0,0h0l-6.87,4.13-5.78,3.47-.21.13,1.39,2.34,3.68,6.25.27.46.38-.58c2.58-4,5.25-7.83,7.95-11.4.55-.73,1.1-1.44,1.65-2.14l.6-.76c.29-.38.59-.75.88-1.11A.09.09,0,0,1,816.87,355.35Zm0,0-.91.55-.51.3h0v-3.35l-1.31-7.72,0,0L810.2,338l1.37,8.06v0l2.47,4.45h0a4.09,4.09,0,0,1,.28.7,3.08,3.08,0,0,1-.12,1.83,2.93,2.93,0,0,1-.35.65,3.22,3.22,0,0,1-.24.28,2.14,2.14,0,0,1-.59.48l0,0h0l-6.87,4.13-5.78,3.47-.21.13,1.39,2.34,3.68,6.25.27.46.38-.58c2.58-4,5.25-7.83,7.95-11.4.55-.73,1.1-1.44,1.65-2.14l.6-.76c.29-.38.59-.75.88-1.11A.09.09,0,0,1,816.87,355.35Zm0,0-.91.55-.51.3h0v-3.35l-1.31-7.72,0,0L810.2,338l1.37,8.06v0l2.47,4.45h0a4.09,4.09,0,0,1,.28.7,3.08,3.08,0,0,1-.12,1.83,2.93,2.93,0,0,1-.35.65,3.22,3.22,0,0,1-.24.28,2.14,2.14,0,0,1-.59.48l0,0h0l-6.87,4.13-5.78,3.47-.21.13,1.39,2.34,3.68,6.25.27.46.38-.58c2.58-4,5.25-7.83,7.95-11.4.55-.73,1.1-1.44,1.65-2.14l.6-.76c.29-.38.59-.75.88-1.11A.09.09,0,0,1,816.87,355.35Zm-3.18,16.71c-.5,1-1,2.11-1.5,3.2h.48a2.84,2.84,0,0,0,2.78-2.89v-3.85C814.85,369.67,814.27,370.85,813.69,372.06Zm4.46-40.93q-1.33-.28-2.7-.45a31.77,31.77,0,0,0-3.8-.24h-.08c-.89,0-1.77,0-2.64.11s-1.8.18-2.69.33-1.62.31-2.42.52l-.35.09a30.46,30.46,0,0,0-6,2.24,31.81,31.81,0,0,0-9.34,7h0a31.66,31.66,0,0,0-5.57,8.55,30.38,30.38,0,0,0-1.73,5.05,31.67,31.67,0,0,0,1,18.84q.33.9.72,1.77l.12.28c.08.16.15.31.22.47.29.62.61,1.22.94,1.8.08.16.17.31.26.47a31.67,31.67,0,1,0,34-46.87Zm13.28,13.63a104.67,104.67,0,0,0-13.28,18.73c-.24.41-.47.83-.7,1.25-.68,1.22-1.34,2.48-2,3.78s-1.18,2.33-1.76,3.54c-.5,1-1,2.11-1.5,3.2-.41.89-.82,1.81-1.23,2.74l-.79,1.81c-2.93,2-6.3,3.08-7.91,1.17l-1.67-3-1.52-2.74-.26-.46-1.42-2.53-2.17-3.9L793.89,366l-2.2-3.94c-1.47-2.35,3.67-7.77,5.73-4.4l2.71,4.59,1.39,2.34,3.68,6.25.27.46.38-.58c2.58-4,5.25-7.83,7.95-11.4.55-.73,1.1-1.44,1.65-2.14l.6-.76c.29-.38.59-.75.88-1.11l1-1.25v0a1.68,1.68,0,0,1,.18-.21,99.5,99.5,0,0,1,11.13-11.58C831.45,342.05,832.15,342.92,831.43,344.76Zm-36.21,23.61L793.89,366l-12,7.21q.33.9.72,1.77l2.28-.42h0l12.47-2.29Zm18.47,3.69c-.5,1-1,2.11-1.5,3.2h.48a2.84,2.84,0,0,0,2.78-2.89v-3.85C814.85,369.67,814.27,370.85,813.69,372.06Zm3.18-16.71-.91.55-.51.3h0v-3.35l-1.31-7.72,0,0L810.2,338l1.37,8.06v0l2.47,4.45h0a4.09,4.09,0,0,1,.28.7,3.08,3.08,0,0,1-.12,1.83,2.93,2.93,0,0,1-.35.65,3.22,3.22,0,0,1-.24.28,2.14,2.14,0,0,1-.59.48l0,0h0l-6.87,4.13-5.78,3.47-.21.13,1.39,2.34,3.68,6.25.27.46.38-.58c2.58-4,5.25-7.83,7.95-11.4.55-.73,1.1-1.44,1.65-2.14l.6-.76c.29-.38.59-.75.88-1.11A.09.09,0,0,1,816.87,355.35Zm-3.18,16.71c-.5,1-1,2.11-1.5,3.2h.48a2.84,2.84,0,0,0,2.78-2.89v-3.85C814.85,369.67,814.27,370.85,813.69,372.06Zm3.18-16.71-.91.55-.51.3h0v-3.35l-1.31-7.72,0,0L810.2,338l1.37,8.06v0l2.47,4.45h0a4.09,4.09,0,0,1,.28.7,3.08,3.08,0,0,1-.12,1.83,2.93,2.93,0,0,1-.35.65,3.22,3.22,0,0,1-.24.28,2.14,2.14,0,0,1-.59.48l0,0h0l-6.87,4.13-5.78,3.47-.21.13,1.39,2.34,3.68,6.25.27.46.38-.58c2.58-4,5.25-7.83,7.95-11.4.55-.73,1.1-1.44,1.65-2.14l.6-.76c.29-.38.59-.75.88-1.11A.09.09,0,0,1,816.87,355.35Zm0,0-.91.55-.51.3h0v-3.35l-1.31-7.72,0,0L810.2,338l1.37,8.06v0l2.47,4.45h0a4.09,4.09,0,0,1,.28.7,3.08,3.08,0,0,1-.12,1.83,2.93,2.93,0,0,1-.35.65,3.22,3.22,0,0,1-.24.28,2.14,2.14,0,0,1-.59.48l0,0h0l-6.87,4.13-5.78,3.47-.21.13,1.39,2.34,3.68,6.25.27.46.38-.58c2.58-4,5.25-7.83,7.95-11.4.55-.73,1.1-1.44,1.65-2.14l.6-.76c.29-.38.59-.75.88-1.11A.09.09,0,0,1,816.87,355.35Zm0,0-.91.55-.51.3h0v1l.6-.76c.29-.38.59-.75.88-1.11A.09.09,0,0,1,816.87,355.35Z"/>
            <path class="cls-6" d="M818,354.06l-1,1.25"/>
          </g>
        </g>
      </g>
      <path class="cls-2" d="M526.5,288.1H702.05v1.18H526.5c-6.09,0-11,3.94-11,8.78v69.79c0,4.85,4.94,8.79,11,8.79H702.05v1.18H526.5c-6.9,0-12.52-4.47-12.52-10V298.06C514,292.57,519.6,288.1,526.5,288.1Z"/>
      <text class="cls-3" transform="translate(539.01 313.09)">Activate MItigation <tspan x="3.32" y="16.02">and Preparedness </tspan><tspan x="3.86" y="32.03">of the Emergen</tspan><tspan class="cls-7" x="96.6" y="32.03">c</tspan><tspan x="102.88" y="32.03">y </tspan><tspan x="42.04" y="48.05">Plan.</tspan></text>
    </g>
    <g>
      <g>
        <circle class="cls-1" cx="397.34" cy="165.85" r="88.78"/>
        <g>
          <path class="cls-2" d="M426.4,138.38l.07.09Z"/>
          <path class="cls-2" d="M429.38,152v-13.7l0-.13a3.74,3.74,0,0,0-.12-.45,1.93,1.93,0,0,0-.11-.29,3,3,0,0,0-.53-.79h0l-.06-.07h0a1.19,1.19,0,0,0-.22-.33l-23.16-24.8h0a1.18,1.18,0,0,0-.31-.24l-.1-.13-.2-.13a2.8,2.8,0,0,0-.68-.43c-.07,0-.15-.06-.21-.09a3.18,3.18,0,0,0-.74-.17,1.42,1.42,0,0,0-.31,0H348.67a3,3,0,0,0-3,3V218.43a3,3,0,0,0,2.69,3,2.14,2.14,0,0,0,.32,0h78a3,3,0,0,0,2.73-3V178.19c-.71,1-1.42,1.92-2.1,2.91l-.69,1v36.32a.25.25,0,0,1-.21.25H348.64a.25.25,0,0,1-.22-.25V113.28a.25.25,0,0,1,.25-.25h54l.06,0s0,0,0,0l.15.13.1.12v23.75a1.24,1.24,0,0,0,1.24,1.23h22.09l.14.15.09.09V155.1A24.55,24.55,0,0,0,429.38,152Zm-24-16.08v-20l18.7,20Z"/>
          <path class="cls-2" d="M356.65,181.86l38.27.1h0a1.65,1.65,0,0,0,0-3.29l-38.27-.1h0a1.65,1.65,0,0,0,0,3.29Z"/>
          <path class="cls-2" d="M356.65,194.9h40.66a1.65,1.65,0,0,0,0-3.29H356.65a1.65,1.65,0,0,0,0,3.29Z"/>
          <path class="cls-2" d="M408.15,204.65h-51.5a1.65,1.65,0,0,0,0,3.29h51.5a1.65,1.65,0,0,0,0-3.29Z"/>
          <path class="cls-11" d="M439.42,142.44a2.11,2.11,0,0,1,2.95-.37l1.28-1.65a2.1,2.1,0,0,1,2.94-.37l1.66,1.29a2.1,2.1,0,0,1,.36,2.94l-1.28,1.65a2.1,2.1,0,0,1,.36,2.94l-29.59,38-9.74,5.69-.64.83a1.05,1.05,0,0,1-1.66-1.29l.64-.83,3.13-10.84,29.59-38ZM428.3,167a1,1,0,1,1-1.65-1.29l13.51-17.36L438.5,147l-25.73,33.08,5,3.86,25.74-33.08-1.66-1.28L428.3,167Zm16.45-17.73,1.29-1.65-5-3.86-1.29,1.65,5,3.86Zm-35,39.12.73.58,5.85-3.42-4.71-3.66-1.87,6.5Zm35.93-43.71L447,143l-1.65-1.28L444,143.36Z"/>
          <g>
            <path class="cls-2" d="M398.84,159.84l-20-33.49a.8.8,0,0,0-1.36,0l-20,33.49a.8.8,0,0,0,.69,1.2h40A.8.8,0,0,0,398.84,159.84Zm-4.21-.67H361.71A.8.8,0,0,1,361,158l16.46-28.5a.79.79,0,0,1,1.37,0L395.31,158A.79.79,0,0,1,394.63,159.17Z"/>
            <path class="cls-2" d="M378.39,139a1.14,1.14,0,0,0-1.13,1.13l.41,8.48a.74.74,0,0,0,.74.7.71.71,0,0,0,.5-.21.73.73,0,0,0,.23-.49l.38-8.48A1.14,1.14,0,0,0,378.39,139Z"/>
            <path class="cls-2" d="M378.39,152.14a1.07,1.07,0,1,0,0,2.13,1.07,1.07,0,0,0,0-2.13Z"/>
          </g>
        </g>
      </g>
      <text class="cls-3" transform="translate(349.32 63.62)">Record an aler<tspan class="cls-7" x="85.22" y="0">t</tspan><tspan x="90.54" y="0">.</tspan></text>
      <path class="cls-2" d="M459.31,16.49H335.38a8.71,8.71,0,0,0-8.71,8.71v84.21h1.49V25.2A7.23,7.23,0,0,1,335.38,18H459.31a7.23,7.23,0,0,1,7.22,7.22v84.21H468V25.2A8.71,8.71,0,0,0,459.31,16.49Z"/>
    </g>
    <g>
      <g>
        <circle class="cls-1" cx="607.79" cy="1525.76" r="88.78"/>
        <g>
          <path class="cls-2" d="M607.79,1585.3a59.54,59.54,0,1,1,59.54-59.54A59.61,59.61,0,0,1,607.79,1585.3Zm0-112.67a53.13,53.13,0,1,0,53.13,53.13A53.19,53.19,0,0,0,607.79,1472.63Z"/>
          <rect class="cls-2" x="569.62" y="1514.57" width="76.34" height="22.38"/>
        </g>
      </g>
      <text class="cls-3" transform="translate(550.98 1633.8)">Mark the end of an <tspan x="13.65" y="16.02">incident event</tspan></text>
      <path class="cls-2" d="M669.75,1673.82H545.83a8.71,8.71,0,0,1-8.71-8.7v-84.21h1.48v84.21a7.23,7.23,0,0,0,7.23,7.22H669.75a7.24,7.24,0,0,0,7.23-7.22v-84.21h1.48v84.21A8.71,8.71,0,0,1,669.75,1673.82Z"/>
    </g>
    <line class="cls-12" x1="500.05" y1="147.06" x2="713.98" y2="249.07"/>
    <line class="cls-12" x1="310.49" y1="427.16" x2="494.55" y2="336.72"/>
    <line class="cls-12" x1="514.98" y1="873.69" x2="699.04" y2="783.24"/>
    <line class="cls-12" x1="516.03" y1="1276.14" x2="700.09" y2="1185.69"/>
    <line class="cls-12" x1="323.51" y1="617.09" x2="481.53" y2="687.16"/>
    <line class="cls-12" x1="339.57" y1="959.61" x2="497.59" y2="1029.69"/>
    <line class="cls-12" x1="361.06" y1="1392.93" x2="493.42" y2="1504.12"/>
  </g>
</svg>
