<svg id="Layer_1" data-name="Layer 1" xmlns="http://www.w3.org/2000/svg" viewBox="0 0 500 500"><defs><style>.cls-2{fill:#2d98d4}</style></defs><circle cx="249.76" cy="253.96" r="167.19" fill="#29abe2" opacity=".19"/><path class="cls-2" d="M249 240.21a16.56 16.56 0 0 0-1.51 33V337a2.28 2.28 0 0 0 1.51 2.2 2.24 2.24 0 0 0 3-2.13v-63.9a16.56 16.56 0 0 0-3-33zm11.83 18.49a11.25 11.25 0 1 1-13-13 11.24 11.24 0 0 1 13.02 13zm-92.9-5.52a70.46 70.46 0 0 1 20.85-50.26 2.25 2.25 0 0 0 0-3.18c-.87-.88-5.25-2.87-6.13-2-14.29 14.26-22.79 36.36-22.79 56.57s10 40.34 24.35 54.6c.44.44 2.53-.83 3.11-.83s1-1 1.46-1.46a2.25 2.25 0 0 0 0-3.18 70.53 70.53 0 0 1-20.85-50.26zm49.51-24.79c-.88-.88-4.17-1.32-5.05-.45-6.63 6.59-10 16.65-10 26.06s4.36 18.35 11 25a2.91 2.91 0 0 0 2.69.13c.42-.39 1-.7 1.43-1.14a2.26 2.26 0 0 0 0-3.18 30.54 30.54 0 0 1 0-43.21 2.25 2.25 0 0 0-.07-3.21z"/><path class="cls-2" d="M160.36 171.35c-.88-.88-5.5-3.44-6.38-2.56-21.86 21.86-34.84 53.48-34.84 84.39s13.52 64.22 35.38 86.09c.44.44 4.2-2 4.77-2s.86-1.55 1.3-2a2.5 2.5 0 0 0-.23-3.37 111.23 111.23 0 0 1 0-157.33 2.25 2.25 0 0 0 0-3.22zm171.22 81.83a70.46 70.46 0 0 0-20.85-50.26 2.25 2.25 0 0 1 0-3.18c.87-.88 5.25-2.87 6.13-2 14.3 14.26 22.79 36.36 22.79 56.57s-10 40.34-24.34 54.6c-.44.44-2.54-.83-3.11-.83s-1-1-1.47-1.46a2.25 2.25 0 0 1 0-3.18 70.49 70.49 0 0 0 20.85-50.26zm-49.51-24.79c.88-.88 4.17-1.32 5.06-.45 6.62 6.59 10 16.65 10 26.06s-4.35 18.35-11 25a2.91 2.91 0 0 1-2.69.13c-.42-.39-1-.7-1.42-1.14a2.25 2.25 0 0 1 0-3.18 30.55 30.55 0 0 0 0-43.21 2.25 2.25 0 0 1 .05-3.21z"/><path class="cls-2" d="M339.15 171.35c.88-.88 5.5-3.44 6.38-2.56 21.87 21.86 34.84 53.48 34.84 84.39S366.85 317.4 345 339.27c-.44.44-4.19-2-4.77-2s-.85-1.55-1.29-2a2.49 2.49 0 0 1 .22-3.37 111.23 111.23 0 0 0 0-157.33 2.25 2.25 0 0 1-.01-3.22z"/><path class="cls-2" d="M249.76 54c-110.46 0-200 89.54-200 200s89.54 200 200 200 200-89.53 200-200-89.54-200-200-200zm0 385.49a185.49 185.49 0 0 1 0-371c102.44 0 185.49 83 185.49 185.49S352.2 439.45 249.76 439.45z"/></svg>