<svg id="Layer_1" data-name="Layer 1" xmlns="http://www.w3.org/2000/svg" viewBox="0 0 1000 1700"><defs><style>.cls-1,.cls-2{fill:#2d98d4}.cls-1{opacity:.19}.cls-3{font-size:13.35px;fill:#333;font-family:Ubuntu-Light,Ubuntu;font-weight:300}.cls-6{fill:none}.cls-7{letter-spacing:.01em}.cls-8{letter-spacing:.02em}</style></defs><circle class="cls-1" cx="779.09" cy="1102.95" r="88.78"/><path class="cls-2" d="M811 1056.46h-15.6a21.58 21.58 0 0 0-32.71 0h-15.6a9.16 9.16 0 0 0-9.15 9.15v82.19a9.17 9.17 0 0 0 9.15 9.15H811a9.16 9.16 0 0 0 9.15-9.15v-82.19a9.15 9.15 0 0 0-9.15-9.15zm-31.95-3.67a17.84 17.84 0 1 1-17.84 17.84 17.86 17.86 0 0 1 17.88-17.84zm37.27 95a5.32 5.32 0 0 1-5.32 5.32h-63.87a5.33 5.33 0 0 1-5.32-5.32v-82.19a5.32 5.32 0 0 1 5.32-5.32h12.92a21.46 21.46 0 0 0-2.63 10.34 21.67 21.67 0 1 0 43.34 0 21.47 21.47 0 0 0-2.64-10.34H811a5.32 5.32 0 0 1 5.32 5.32v82.19zm-54.49-31.27l-5 5-2.81-2.81a1.92 1.92 0 1 0-2.71 2.71l4.16 4.16a1.92 1.92 0 0 0 1.36.56 1.9 1.9 0 0 0 1.35-.56l6.38-6.38a1.92 1.92 0 0 0-2.71-2.71zM763 1132a1.92 1.92 0 0 0-2.71 0l-2.29 2.3-2.34-2.33a1.91 1.91 0 1 0-2.7 2.7l2.33 2.34-2.33 2.34a1.91 1.91 0 0 0 1.35 3.26 1.87 1.87 0 0 0 1.35-.56l2.34-2.33 2.33 2.33a1.87 1.87 0 0 0 1.35.56 1.91 1.91 0 0 0 1.36-3.26l-2.34-2.34 2.34-2.34a1.91 1.91 0 0 0-.04-2.67zm40.91-11.84h-29.74a1.92 1.92 0 0 0 0 3.83h29.74a1.92 1.92 0 1 0 0-3.83zm0-15h-29.74a1.92 1.92 0 0 0 0 3.83h29.74a1.92 1.92 0 1 0 0-3.83zm0 29.95h-29.74a1.91 1.91 0 1 0 0 3.82h29.74a1.91 1.91 0 1 0 0-3.82zm-42-33.54l-5 5-2.81-2.81a1.91 1.91 0 0 0-2.71 2.7l4.16 4.17a1.92 1.92 0 0 0 1.36.56 1.9 1.9 0 0 0 1.35-.56l6.38-6.38a1.92 1.92 0 0 0-2.71-2.71zm7.44-29h7.86v7.88a1.92 1.92 0 1 0 3.83 0v-7.88h7.88a1.92 1.92 0 0 0 0-3.83H781v-7.85a1.92 1.92 0 1 0-3.83 0v7.85h-7.86a1.92 1.92 0 1 0 0 3.83zm-243.42-14.47h175.55v1.18H525.93c-6.09 0-11 3.94-11 8.78v69.79c0 4.84 4.94 8.78 11 8.78h175.55v1.18H525.93c-6.9 0-12.52-4.47-12.52-10v-69.79c0-5.46 5.59-9.92 12.52-9.92z"/><text class="cls-3" transform="translate(556.87 1098.88)"><tspan letter-spacing="-.02em">P</tspan><tspan x="7.62" y="0">erform Damage </tspan><tspan x="15.61" y="16.02" letter-spacing=".01em">A</tspan><tspan x="24.34" y="16.02">ssessment</tspan></text><circle class="cls-1" cx="246.66" cy="880.71" r="88.78"/><path class="cls-2" d="M282.85 830.09h-14.93a3.38 3.38 0 0 1 .19.64l.35 2.1h11.45a2.83 2.83 0 0 1 2.77 2.88v69.22l.6-.76c.29-.37.59-.75.89-1.11s.68-.84 1-1.25l.18-.22v-68.87a2.58 2.58 0 0 0-2.5-2.63zM224 924.23l-.67-1.22a2.84 2.84 0 0 1-2.68-2.88v-2l-1-1.85-1.65-3v9.8a2.68 2.68 0 0 0 .27 1.17 2.5 2.5 0 0 0 2.25 1.44h4.36zm-3.52-94.14a2.57 2.57 0 0 0-2.51 2.31 1.63 1.63 0 0 0 0 .31v2.87l3.2-1.93 5.93-3.56zm64.25 82.4c-.68 1.22-1.34 2.49-2 3.79v3.85a2.83 2.83 0 0 1-2.77 2.88h-.49c-.4.9-.82 1.81-1.22 2.74h4.65a2.58 2.58 0 0 0 2.53-2.64v-11.87zM266.3 923h-20.59l-1.15.69-3.4 2h26.67zm-22.86-92.92l1.13 2 2.82-.51 8.29-1.52z"/><path class="cls-2" d="M272.82 858.54l.58 3.47h2.94a1.67 1.67 0 0 0 1.6-1.74 1.82 1.82 0 0 0-.47-1.23 1.53 1.53 0 0 0-1.13-.5zm-6.3 3.07l-2.15.4h3.46a1.58 1.58 0 0 0-1.05-.42 1.14 1.14 0 0 0-.26.02zm9.82 4.9h-2.18l.59 3.47h1.59a1.51 1.51 0 0 0 1.07-.44 1.79 1.79 0 0 0 .53-1.3 1.82 1.82 0 0 0-.47-1.22 1.55 1.55 0 0 0-1.13-.51zm.54 16.06l.5 2.95a1.84 1.84 0 0 0 .09-2.55 1.59 1.59 0 0 0-.59-.4zm.59 8.43a1.51 1.51 0 0 0-.48-.36l.94 1.7a.41.41 0 0 0 0-.11 1.8 1.8 0 0 0-.46-1.23zm-1.13-16.51h-.82l.58 3.47h.24a1.66 1.66 0 0 0 1.6-1.74 1.8 1.8 0 0 0-.47-1.22 1.54 1.54 0 0 0-1.13-.51z"/><path class="cls-2" d="M281.55 899a2.77 2.77 0 0 0-.28-.7l-2.47-4.46 1.43 8.4a2.48 2.48 0 0 0 .59-.48l.24-.28a3.13 3.13 0 0 0 .35-.65 3 3 0 0 0 .14-1.83zm0 0a2.77 2.77 0 0 0-.28-.7l-2.47-4.46 1.43 8.4a2.48 2.48 0 0 0 .59-.48l.24-.28a3.13 3.13 0 0 0 .35-.65 3 3 0 0 0 .14-1.83zm0 0a2.77 2.77 0 0 0-.28-.7l-2.47-4.46 1.43 8.4a2.48 2.48 0 0 0 .59-.48l.24-.28a3.13 3.13 0 0 0 .35-.65 3 3 0 0 0 .14-1.83zm0 0a2.77 2.77 0 0 0-.28-.7l-2.47-4.46 1.43 8.4a2.48 2.48 0 0 0 .59-.48l.24-.28a3.13 3.13 0 0 0 .35-.65 3 3 0 0 0 .14-1.83zm0 0a2.77 2.77 0 0 0-.28-.7l-2.47-4.46 1.43 8.4a2.48 2.48 0 0 0 .59-.48l.24-.28a3.13 3.13 0 0 0 .35-.65 3 3 0 0 0 .14-1.83zm0 0a2.77 2.77 0 0 0-.28-.7l-2.47-4.46 1.43 8.4a2.48 2.48 0 0 0 .59-.48l.24-.28a3.13 3.13 0 0 0 .35-.65 3 3 0 0 0 .14-1.83zm0 0a2.77 2.77 0 0 0-.28-.7l-2.47-4.46 1.43 8.4a2.48 2.48 0 0 0 .59-.48l.24-.28a3.13 3.13 0 0 0 .35-.65 3 3 0 0 0 .14-1.83zm0 0a2.77 2.77 0 0 0-.28-.7l-2.47-4.46 1.43 8.4a2.48 2.48 0 0 0 .59-.48l.24-.28a3.13 3.13 0 0 0 .35-.65 3 3 0 0 0 .14-1.83zm0 0a2.77 2.77 0 0 0-.28-.7l-2.47-4.46 1.43 8.4a2.48 2.48 0 0 0 .59-.48l.24-.28a3.13 3.13 0 0 0 .35-.65 3 3 0 0 0 .14-1.83zm0 0a2.77 2.77 0 0 0-.28-.7l-2.47-4.46 1.43 8.4a2.48 2.48 0 0 0 .59-.48l.24-.28a3.13 3.13 0 0 0 .35-.65 3 3 0 0 0 .14-1.83zm0 0a2.77 2.77 0 0 0-.28-.7l-2.47-4.46 1.43 8.4a2.48 2.48 0 0 0 .59-.48l.24-.28a3.13 3.13 0 0 0 .35-.65 3 3 0 0 0 .14-1.83zm0 0a2.77 2.77 0 0 0-.28-.7l-2.47-4.46 1.43 8.4a2.48 2.48 0 0 0 .59-.48l.24-.28a3.13 3.13 0 0 0 .35-.65 3 3 0 0 0 .14-1.83zm0 0a2.77 2.77 0 0 0-.28-.7l-2.47-4.46 1.43 8.4a2.48 2.48 0 0 0 .59-.48l.24-.28a3.13 3.13 0 0 0 .35-.65 3 3 0 0 0 .14-1.83zm0 0a2.77 2.77 0 0 0-.28-.7l-2.47-4.46 1.43 8.4a2.48 2.48 0 0 0 .59-.48l.24-.28a3.13 3.13 0 0 0 .35-.65 3 3 0 0 0 .14-1.83zm0 0a2.77 2.77 0 0 0-.28-.7l-2.47-4.46 1.43 8.4a2.48 2.48 0 0 0 .59-.48l.24-.28a3.13 3.13 0 0 0 .35-.65 3 3 0 0 0 .14-1.83zm0 0a2.77 2.77 0 0 0-.28-.7l-2.47-4.46 1.43 8.4a2.48 2.48 0 0 0 .59-.48l.24-.28a3.13 3.13 0 0 0 .35-.65 3 3 0 0 0 .14-1.83zm0 0a2.77 2.77 0 0 0-.28-.7l-2.47-4.46 1.43 8.4a2.48 2.48 0 0 0 .59-.48l.24-.28a3.13 3.13 0 0 0 .35-.65 3 3 0 0 0 .14-1.83zm-56 28.17l-1.33.24a2.62 2.62 0 0 1-1.81-.31 2.83 2.83 0 0 1-1.2-1.35 2.67 2.67 0 0 1-.19-.66l-.11-.67-1.36-8.06-1.66-3-2.28-4.12 1.38 8.07.9 5.4.27 1.57.71 4.22a2.53 2.53 0 0 0 2.93 2.13l2.35-.43 2.82-.51zm56-28.17a2.77 2.77 0 0 0-.28-.7l-2.47-4.46 1.43 8.4a2.48 2.48 0 0 0 .59-.48l.24-.28a3.13 3.13 0 0 0 .35-.65 3 3 0 0 0 .14-1.83zm0 0a2.77 2.77 0 0 0-.28-.7l-2.47-4.46 1.43 8.4a2.48 2.48 0 0 0 .59-.48l.24-.28a3.13 3.13 0 0 0 .35-.65 3 3 0 0 0 .14-1.83zm0 0a2.77 2.77 0 0 0-.28-.7l-2.47-4.46 1.43 8.4a2.48 2.48 0 0 0 .59-.48l.24-.28a3.13 3.13 0 0 0 .35-.65 3 3 0 0 0 .14-1.83zm0 0a2.77 2.77 0 0 0-.28-.7l-2.47-4.46 1.43 8.4a2.48 2.48 0 0 0 .59-.48l.24-.28a3.13 3.13 0 0 0 .35-.65 3 3 0 0 0 .14-1.83zm0 0a2.77 2.77 0 0 0-.28-.7l-2.47-4.46 1.43 8.4a2.48 2.48 0 0 0 .59-.48l.24-.28a3.13 3.13 0 0 0 .35-.65 3 3 0 0 0 .14-1.83zm0 0a2.77 2.77 0 0 0-.28-.7l-2.47-4.46 1.43 8.4a2.48 2.48 0 0 0 .59-.48l.24-.28a3.13 3.13 0 0 0 .35-.65 3 3 0 0 0 .14-1.83zm0 0a2.77 2.77 0 0 0-.28-.7l-2.47-4.46 1.43 8.4a2.48 2.48 0 0 0 .59-.48l.24-.28a3.13 3.13 0 0 0 .35-.65 3 3 0 0 0 .14-1.83zm0 0a2.77 2.77 0 0 0-.28-.7l-2.47-4.46 1.43 8.4a2.48 2.48 0 0 0 .59-.48l.24-.28a3.13 3.13 0 0 0 .35-.65 3 3 0 0 0 .14-1.83zm0 0a2.77 2.77 0 0 0-.28-.7l-2.47-4.46 1.43 8.4a2.48 2.48 0 0 0 .59-.48l.24-.28a3.13 3.13 0 0 0 .35-.65 3 3 0 0 0 .14-1.83zm0 0a2.77 2.77 0 0 0-.28-.7l-2.47-4.46 1.43 8.4a2.48 2.48 0 0 0 .59-.48l.24-.28a3.13 3.13 0 0 0 .35-.65 3 3 0 0 0 .14-1.83zm0 0a2.77 2.77 0 0 0-.28-.7l-2.47-4.46 1.43 8.4a2.48 2.48 0 0 0 .59-.48l.24-.28a3.13 3.13 0 0 0 .35-.65 3 3 0 0 0 .14-1.83zm0 0a2.77 2.77 0 0 0-.28-.7l-2.47-4.46 1.43 8.4a2.48 2.48 0 0 0 .59-.48l.24-.28a3.13 3.13 0 0 0 .35-.65 3 3 0 0 0 .14-1.83zm0 0a2.77 2.77 0 0 0-.28-.7l-2.47-4.46 1.43 8.4a2.48 2.48 0 0 0 .59-.48l.24-.28a3.13 3.13 0 0 0 .35-.65 3 3 0 0 0 .14-1.83zm0 0a2.77 2.77 0 0 0-.28-.7l-2.47-4.46 1.43 8.4a2.48 2.48 0 0 0 .59-.48l.24-.28a3.13 3.13 0 0 0 .35-.65 3 3 0 0 0 .14-1.83zm0 0a2.77 2.77 0 0 0-.28-.7l-2.47-4.46 1.43 8.4a2.48 2.48 0 0 0 .59-.48l.24-.28a3.13 3.13 0 0 0 .35-.65 3 3 0 0 0 .14-1.83zm0 0a2.77 2.77 0 0 0-.28-.7l-2.47-4.46 1.43 8.4a2.48 2.48 0 0 0 .59-.48l.24-.28a3.13 3.13 0 0 0 .35-.65 3 3 0 0 0 .14-1.83zm0 0a2.77 2.77 0 0 0-.28-.7l-2.47-4.46 1.43 8.4a2.48 2.48 0 0 0 .59-.48l.24-.28a3.13 3.13 0 0 0 .35-.65 3 3 0 0 0 .14-1.83zm0 0a2.77 2.77 0 0 0-.28-.7l-2.47-4.46 1.43 8.4a2.48 2.48 0 0 0 .59-.48l.24-.28a3.13 3.13 0 0 0 .35-.65 3 3 0 0 0 .14-1.83zm-60.44-65.36l-3.2.59-4.35.8-7.67 1.4a2.63 2.63 0 0 0-2.06 3l.21 1.26.49 2.88 2.47-1.5v-.18a2.88 2.88 0 0 1 2.25-3.34l5.25-1 3.43-2.07 2-1.21 1.2-.73zM264.63 920l-12.47 2.29-2.29.42-1.5.28-3.76.69-3.38 2-3.26 2 7.58-1.39 3.1-.57 2.52-.47 12.32-2.25 2.51-.46zm7.81-1.43l.27.46.38-.58zm10.76-14.94l-.51-3-1.31-7.72-2.48-14.67-1.47-8.65-.49-2.89-.78-4.63-.59-3.47-4.36-25.69-.46-2.74-.47-2.78a2.55 2.55 0 0 0-2.94-2.14L246 829.1l-2.81.5.2.39.06.1 1.12 2 2.81-.52 8.29-1.52 9.19-1.69a2.78 2.78 0 0 1 3 1.69 4.45 4.45 0 0 1 .19.65l.35 2.09 4.35 25.69.58 3.47.77 4.5.59 3.47.76 4.5.59 3.47.06.34.72 4.27.5 2.94v.24l1.37 8.07 1.43 8.4.48 2.88.33 1.92c.54-.72 1.09-1.44 1.64-2.14l.6-.76zm2.14 12.68l-.65-3.84c-.68 1.22-1.34 2.49-2 3.79-.59 1.14-1.17 2.32-1.76 3.53l1.76-.32.61-.11a2.6 2.6 0 0 0 2.08-2.58 2.42 2.42 0 0 0-.04-.45z"/><path class="cls-2" d="M257.37 855.2l1.77 3.2 2.83-.52 3.8-.7a1.71 1.71 0 0 0 1.29-2 1.67 1.67 0 0 0-1.6-1.44h-.27l-5 .92zm4.07 7.35l1.78 3.2 2.82-.52 1.06-.2a1.69 1.69 0 0 0 1.28-2 1.78 1.78 0 0 0-.54-1 1.58 1.58 0 0 0-1-.42 1.09 1.09 0 0 0-.26 0l-2.15.39h-.11zm8.19 14.77a1.53 1.53 0 0 1 1.07.64 1.82 1.82 0 0 1 .25 1.73L270 878zm-4.57-7.32h.51l1.72 3.11 1.14-.21a1.58 1.58 0 0 0 1.22-1.15 1.81 1.81 0 0 0-.37-1.75 1.57 1.57 0 0 0-.88-.52h-.55l-2.33.43z"/><path class="cls-2" d="M285 899.49l-2.35-4.25-1.31-2.33-3.93-7.09-.09-.18-1.73-3.1-2.12-3.83-.37-.68-1.93-3.46-1.52-2.76-1-1.75-.29-.51-1.63-3-.72-1.29-1.77-3.2-1.92-3.47-.37-.66-1.78-3.2-2.9-5.23-1.91-3.5-.07-.13-1.52-2.74-5.68-10.27-.69-1.23-.85-1.51-.55-1-4.35-7.88a2.48 2.48 0 0 0-3.46-1l-16.37 9.84-3.87 2.31-4.38 2.64-9.57 5.74-19.9 12a2.69 2.69 0 0 0-.92 3.6L217 917.26l.9 1.64 3 5.47.74 1.33.77 1.36 1.72 3.11 2.42 4.37a2.5 2.5 0 0 0 3.48 1l15.4-9.26.95-.57 3.76-2.27.86-.44 1.16-.7 10.29-6.18-1.32-2.38-12 7.21-3.4 2-1.15.69-3.38 2-3.26 2-6.6 4a2.71 2.71 0 0 1-3.78-1l-.52-.91-1.4-2.53-.8-1.43-.84-1.52-.67-1.22-2.67-4.82-1-1.85-1.65-3-2.28-4.12L187 857.52a3 3 0 0 1 1-3.94l16.53-9.93 2.47-1.5 7.46-4.49 3.44-2.06 2-1.22 1.2-.73 5.93-3.55 9.88-5.94a2.71 2.71 0 0 1 3.79 1.05l2.44 4.4.21.38.06.1 1.12 2 .38.71 6 10.78 1.29 2.36.48.84 1.45 2.63 3.2 5.75.59 1.06.3.54.88 1.6.08.14 1.92 3.47.31.54 1.77 3.2.43.77 1.87 3.38.05.08 1.72 3.11.78 1.39 1.56 2.81.11.19.05.11.19.34.71 1.28.25.45 1.54 2.78 1.92 3.47 2.58 4.65.94 1.7.86 1.54 2.47 4.44a2.77 2.77 0 0 1 .28.7 3.05 3.05 0 0 1-.11 1.82 3.13 3.13 0 0 1-.35.65l-.24.28a2.48 2.48 0 0 1-.59.48l-6.87 4.13-5.77 3.48-.21.12 1.38 2.34 4.1-2.46 4.73-2.85 3.13-1.88 2-1.19.51-.3.91-.55h.06c.34-.42.68-.84 1-1.25a2.78 2.78 0 0 0 .18-1 2.66 2.66 0 0 0-.35-1.23zm-23.91 14.26l-12 7.21-3.4 2-1.15.69 3.76-.69h1.7l-.13-.28 2.29-.42 10.29-6.18zm19.1-11.48l-6.87 4.13-5.77 3.48-.21.12 1.38 2.34 4.1-2.46 4.73-2.85 3.13-1.88zM270 878l-.19-.34.19.34.71 1.28zm-45.19 47.8l-.84-1.52-.67-1.22-2.67-4.82-1-1.85 1.36 8.06.74 1.33.77 1.36a2.62 2.62 0 0 0 1.81.31l1.33-.24zm-6.89-90.17l-3.43 2.07 3.44-2.06 2-1.22zm-8.69 3A2.88 2.88 0 0 0 207 842v.18l7.46-4.49zm51.91 75.12l-12 7.21-3.4 2-1.15.69 3.76-.69H250l-.13-.28 2.29-.42 10.29-6.18zm19.1-11.48l-6.87 4.13-5.77 3.48-.21.12 1.38 2.34 4.1-2.46 4.73-2.85 3.13-1.88zM270 878l-.19-.34.19.34.71 1.28zm-45.19 47.8l-.84-1.52-.67-1.22-2.67-4.82-1-1.85 1.36 8.06.74 1.33.77 1.36a2.62 2.62 0 0 0 1.81.31l1.33-.24zm-6.89-90.17l-3.43 2.07 3.44-2.06 2-1.22zm-8.69 3A2.88 2.88 0 0 0 207 842v.18l7.46-4.49zM270 878l-.19-.34.19.34.71 1.28zm-8.86 35.79l-12 7.21-3.4 2-1.15.69 3.76-.69H250l-.13-.28 2.29-.42 10.29-6.18zm-36.33 12l-.84-1.52-.67-1.22-2.67-4.82-1-1.85 1.36 8.06.74 1.33.77 1.36a2.62 2.62 0 0 0 1.81.31l1.33-.24zm-6.89-90.17l-3.43 2.07 3.44-2.06 2-1.22zm-8.69 3A2.88 2.88 0 0 0 207 842v.18l7.46-4.49zM270 878l-.19-.34.19.34.71 1.28zm-8.86 35.79l-12 7.21-3.4 2-1.15.69 3.76-.69H250l-.13-.28 2.29-.42 10.29-6.18zm-36.33 12l-.84-1.52-.67-1.22-2.67-4.82-1-1.85 1.36 8.06.74 1.33.77 1.36a2.62 2.62 0 0 0 1.81.31l1.33-.24zm-6.89-90.17l-3.43 2.07 3.44-2.06 2-1.22zm-8.69 3A2.88 2.88 0 0 0 207 842v.18l7.46-4.49zm0 0A2.88 2.88 0 0 0 207 842v.18l7.46-4.49zm8.69-3l-3.43 2.07 3.44-2.06 2-1.22zm6.89 90.17l-.84-1.52-.67-1.22-2.67-4.82-1-1.85 1.36 8.06.74 1.33.77 1.36a2.62 2.62 0 0 0 1.81.31l1.33-.24zm36.33-12l-12 7.21-3.4 2-1.15.69 3.76-.69H250l-.13-.28 2.29-.42 10.29-6.18zM270 878l-.19-.34.19.34.71 1.28zm-60.77-39.33A2.88 2.88 0 0 0 207 842v.18l7.46-4.49zm8.69-3l-3.43 2.07 3.44-2.06 2-1.22zm6.89 90.17l-.84-1.52-.67-1.22-2.67-4.82-1-1.85 1.36 8.06.74 1.33.77 1.36a2.62 2.62 0 0 0 1.81.31l1.33-.24zm36.33-12l-12 7.21-3.4 2-1.15.69 3.76-.69H250l-.13-.28 2.29-.42 10.29-6.18zM270 878l-.19-.34.19.34.71 1.28zm-60.77-39.33A2.88 2.88 0 0 0 207 842v.18l7.46-4.49zm8.69-3l-3.43 2.07 3.44-2.06 2-1.22zm6.89 90.17l-.84-1.52-.67-1.22-2.67-4.82-1-1.85 1.36 8.06.74 1.33.77 1.36a2.62 2.62 0 0 0 1.81.31l1.33-.24zM270 878l-.19-.34.19.34.71 1.28zm-8.86 35.79l-12 7.21-3.4 2-1.15.69 3.76-.69H250l-.13-.28 2.29-.42 10.29-6.18zm19.1-11.48l-6.87 4.13-5.77 3.48-.21.12 1.38 2.34 4.1-2.46 4.73-2.85 3.13-1.88zm-71-63.64A2.88 2.88 0 0 0 207 842v.18l7.46-4.49zm8.69-3l-3.43 2.07 3.44-2.06 2-1.22zm6.89 90.17l-.84-1.52-.67-1.22-2.67-4.82-1-1.85 1.36 8.06.74 1.33.77 1.36a2.62 2.62 0 0 0 1.81.31l1.33-.24zM270 878l-.19-.34.19.34.71 1.28zm-8.86 35.79l-12 7.21-3.4 2-1.15.69 3.76-.69H250l-.13-.28 2.29-.42 10.29-6.18zm19.1-11.48l-6.87 4.13-5.77 3.48-.21.12 1.38 2.34 4.1-2.46 4.73-2.85 3.13-1.88zm-71-63.64A2.88 2.88 0 0 0 207 842v.18l7.46-4.49zm8.69-3l-3.43 2.07 3.44-2.06 2-1.22zm6.89 90.17l-.84-1.52-.67-1.22-2.67-4.82-1-1.85 1.36 8.06.74 1.33.77 1.36a2.62 2.62 0 0 0 1.81.31l1.33-.24zM270 878l-.19-.34.19.34.71 1.28zm-8.86 35.79l-12 7.21-3.4 2-1.15.69 3.76-.69H250l-.13-.28 2.29-.42 10.29-6.18zm19.1-11.48l-6.87 4.13-5.77 3.48-.21.12 1.38 2.34 4.1-2.46 4.73-2.85 3.13-1.88z"/><path class="cls-2" d="M225.45 856.45l15.13-9.09 2-1.21.59-.36a1.56 1.56 0 0 1 .76-.21 1.51 1.51 0 0 1 .74.19 1.77 1.77 0 0 1 .71.7 1.82 1.82 0 0 1 .23.89 1.67 1.67 0 0 1-.78 1.44l-12.73 7.65-2 1.23-3.73 2.23-4.73 2.85-3.36 2-2.71 1.62-5.84 3.51-2.49 1.5-5.15 3.1a1.59 1.59 0 0 1-2.21-.67 1.73 1.73 0 0 1 .55-2.34l6.2-3.73 2.48-1.49 4.38-2.63 2.08-1.25 2.71-1.63 2.21-1.33 2.54-1.52zm-21.76 24.31a1.59 1.59 0 0 0 2.21.67l2.73-1.65 2.5-1.49 4.42-2.66 2.71-1.63 6-3.62 4.1-2.47 4.32-2.59 1.44-.87 7.51-4.51 2-1.21 3.76-2.26 1.24-.74a1.63 1.63 0 0 0 .77-1.58 1.79 1.79 0 0 0-.22-.76 1.68 1.68 0 0 0-1.45-.89 1.52 1.52 0 0 0-.76.22l-4.49 2.7-1.75 1.05-5.73 3.45-.93.56-6.58 3.95-4.29 2.57h-.06l-4.88 3-2.71 1.62-.28.18-4.76 2.85-2.48 1.5-3.78 2.27a1.73 1.73 0 0 0-.56 2.34zm35.42-4.88l.3-.18 5.48-3.29 3-1.79 4.53-2.72 2.29-1.38a1.55 1.55 0 0 1 .77-.22 1.68 1.68 0 0 1 1.45.89 1.72 1.72 0 0 1 .22.71 1.79 1.79 0 0 1-.22 1.07 1.64 1.64 0 0 1-.55.56l-4.79 2.88-2.59 1.53-3.23 1.94-7.5 4.51-.22.13-5.55 3.33-2.89 1.74-4.61 2.77-1.93 1.16-4.82 2.9-2.7 1.58-1.55 1-.4.23a1.61 1.61 0 0 1-2.22-.67 1.73 1.73 0 0 1 .56-2.33l1.44-.87 2.21-1.33 2.71-1.63 1.74-1 5.84-3.51 2.61-1.57 3.15-1.89zm-23.94 25.6a1.61 1.61 0 0 0 .38.46 1.54 1.54 0 0 0 1.84.21l.87-.52 1.46-.87 1.58-1 1.8-1.07 4-2.39 5.2-3.11 2.29-1.38 5.79-3.47.34-.22 7.11-4.28 3.83-2.3 1.94-1.16 6.52-3.92h.06a1.5 1.5 0 0 0 .54-.55 1.74 1.74 0 0 0 0-1.78 1.65 1.65 0 0 0-1.44-.88 1.45 1.45 0 0 0-.78.21l-4.08 2.45-3.91 2.36-3.59 2.15-4.86 2.93-.91.53-7.48 4.51-2.56 1.53-3.23 1.94-5.21 3.14-4.4 2.65-2.53 1.52-.18.12a1.76 1.76 0 0 0-.39 2.19zm-7.65-13.81a1.6 1.6 0 0 0 2.21.67l.32-.19 2.49-1.5 3-1.81 2.71-1.62 8.68-5.23 3.5-2.11 4.93-3 .83-.49 7.51-4.51 2.62-1.58 3.14-1.89 3-1.81a1.68 1.68 0 0 0 .75-1.09 1.84 1.84 0 0 0-.2-1.25 1.76 1.76 0 0 0-1.45-.89 1.55 1.55 0 0 0-.77.22l-.52.31-5.07 3.1-2.37 1.42-5.77 3.47-.3.18-7.2 4.33-3.75 2.26-1.81 1.1-5.74 3.45-.88.53-1.81 1.08-3.65 2.18-2.48 1.49-1.37.82a1.73 1.73 0 0 0-.55 2.36zM219 908.39a1.61 1.61 0 0 0 1.86.82 1.19 1.19 0 0 0 .35-.15l2.54-1.52.23-.14 5.14-3.09 5.8-3.48 1.68-1 5.78-3.48 1-.58 6.51-3.92 4.44-2.67 1.34-.8 7.11-4.28.38-.23.85-.51a1.73 1.73 0 0 0 .55-2.33 1.8 1.8 0 0 0-.57-.62 1.56 1.56 0 0 0-.87-.27 1.49 1.49 0 0 0-.78.22h-.08l-5.77 3.46-3.31 2-4.18 2.54-4.26 2.57-1.52.9-7.49 4.5-1.93 1.17-3.83 2.3-4.6 2.77-5.79 3.48a1.74 1.74 0 0 0-.58 2.34zm3.84 6.91a1.59 1.59 0 0 0 2.21.67l12.55-7.54 1.08-.64 5.78-3.48 1.59-1 5.9-3.54 5-3 .73-.44 7.48-4.5.25-.14 2.38-1.44a1.74 1.74 0 0 0 .55-2.33A1.66 1.66 0 0 0 267 887a1.49 1.49 0 0 0-.78.22l-1.84 1.11-5.79 3.47-2.69 1.62-4.79 2.88-3.67 2.2-2.1 1.27-7.5 4.5-1.34.81-4.5 2.71-4 2.41-4.61 2.8a1.75 1.75 0 0 0-.55 2.3zM202 858a1.63 1.63 0 0 0 2.28.63l.67-.4 2.49-1.49 8.07-4.86 2.71-1.62 2.08-1.25 5.56-3.34 4.64-2.79a1.78 1.78 0 0 0 .6-2.38 1.66 1.66 0 0 0-1.44-.87 1.62 1.62 0 0 0-.83.24l-10.61 6.38-2.71 1.63-8.69 5.22-2.49 1.5-1.71 1a1.77 1.77 0 0 0-.62 2.4z"/><path class="cls-2" d="M284.11 903.1l-.91.55-.51.3v-3.35l-1.31-7.72-3.93-7.09-.09-.18-1.73-3.1-2.12-3.83c-.81.14-1.63.3-2.42.51l-.36.09a31.6 31.6 0 0 0-15.29 9.28 31.85 31.85 0 0 0-5.58 8.55 32.33 32.33 0 0 0-1.73 5 31.88 31.88 0 0 0 1 18.84c.22.6.47 1.2.72 1.77l2.29-.42 12.49-2.3-2.18-3.89-1.32-2.38-2.2-3.94c-1.47-2.35 3.66-7.77 5.73-4.4l2.71 4.59 1.38 2.34 3.69 6.25.27.46.38-.58c2.58-4 5.24-7.82 8-11.4.54-.72 1.09-1.44 1.64-2.14l.6-.76c.29-.37.59-.75.89-1.11zm-4.69 19.9h.49a2.83 2.83 0 0 0 2.77-2.88v-3.85c-.59 1.14-1.17 2.32-1.76 3.53-.5 1.06-1 2.12-1.5 3.2zm4.69-19.91l-.91.55.08.52c.29-.37.59-.75.89-1.11zm0 0l-.91.55-.51.3v-3.35l-1.31-7.72-3.93-7.09 1.37 8.07 2.47 4.44a2.77 2.77 0 0 1 .28.7 3.05 3.05 0 0 1-.11 1.82 3.13 3.13 0 0 1-.35.65l-.24.28a2.48 2.48 0 0 1-.59.48l-6.87 4.13-5.77 3.48-.21.12 1.38 2.34 3.69 6.25.27.46.38-.58c2.58-4 5.24-7.82 8-11.4.54-.72 1.09-1.44 1.64-2.14l.6-.76c.29-.37.59-.75.89-1.11zm0 0l-.91.55-.51.3v-3.35l-1.31-7.72-3.93-7.09 1.37 8.07 2.47 4.44a2.77 2.77 0 0 1 .28.7 3.05 3.05 0 0 1-.11 1.82 3.13 3.13 0 0 1-.35.65l-.24.28a2.48 2.48 0 0 1-.59.48l-6.87 4.13-5.77 3.48-.21.12 1.38 2.34 3.69 6.25.27.46.38-.58c2.58-4 5.24-7.82 8-11.4.54-.72 1.09-1.44 1.64-2.14l.6-.76c.29-.37.59-.75.89-1.11zm0 0l-.91.55-.51.3v-3.35l-1.31-7.72-3.93-7.09 1.37 8.07 2.47 4.44a2.77 2.77 0 0 1 .28.7 3.05 3.05 0 0 1-.11 1.82 3.13 3.13 0 0 1-.35.65l-.24.28a2.48 2.48 0 0 1-.59.48l-6.87 4.13-5.77 3.48-.21.12 1.38 2.34 3.69 6.25.27.46.38-.58c2.58-4 5.24-7.82 8-11.4.54-.72 1.09-1.44 1.64-2.14l.6-.76c.29-.37.59-.75.89-1.11zm-3.19 16.71c-.5 1.05-1 2.11-1.5 3.2h.49a2.83 2.83 0 0 0 2.77-2.88v-3.85c-.59 1.15-1.17 2.33-1.76 3.54zm4.46-40.93q-1.32-.28-2.7-.45a31.61 31.61 0 0 0-3.79-.24h-.09c-.88 0-1.76 0-2.63.11s-1.8.19-2.69.34-1.63.3-2.42.51l-.36.09a31.6 31.6 0 0 0-15.29 9.28 31.85 31.85 0 0 0-5.58 8.55 32.33 32.33 0 0 0-1.73 5 31.88 31.88 0 0 0 1 18.84c.22.6.47 1.2.72 1.77l.13.28c.07.16.15.32.22.47q.43.93.93 1.8c.09.16.17.31.27.47a31.66 31.66 0 1 0 34-46.87zm13.28 13.64a105.45 105.45 0 0 0-13.28 18.72l-.69 1.25c-.68 1.22-1.34 2.49-2 3.79-.59 1.14-1.17 2.32-1.76 3.53-.5 1.05-1 2.11-1.5 3.2-.4.9-.82 1.81-1.22 2.74-.27.6-.53 1.2-.79 1.81-2.94 2.05-6.31 3.08-7.92 1.17l-1.66-3-1.54-2.72-.26-.46-1.41-2.54-2.18-3.89-1.32-2.38-2.2-3.94c-1.47-2.35 3.66-7.77 5.73-4.4l2.71 4.59 1.38 2.34 3.69 6.25.27.46.38-.58c2.58-4 5.24-7.82 8-11.4.54-.72 1.09-1.44 1.64-2.14l.6-.76c.29-.37.59-.75.89-1.11s.68-.84 1-1.25l.18-.22A101.17 101.17 0 0 1 296.51 890c2.17-.2 2.87.67 2.15 2.52zm-36.21 23.61l-1.32-2.38-12 7.21c.22.6.47 1.2.72 1.77l2.29-.42 12.49-2.3zm18.47 3.68c-.5 1.05-1 2.11-1.5 3.2h.49a2.83 2.83 0 0 0 2.77-2.88v-3.85c-.59 1.15-1.17 2.33-1.76 3.54zm3.19-16.71l-.91.55-.51.3v-3.35l-1.31-7.72-3.93-7.09 1.37 8.07 2.47 4.44a2.77 2.77 0 0 1 .28.7 3.05 3.05 0 0 1-.11 1.82 3.13 3.13 0 0 1-.35.65l-.24.28a2.48 2.48 0 0 1-.59.48l-6.87 4.13-5.77 3.48-.21.12 1.38 2.34 3.69 6.25.27.46.38-.58c2.58-4 5.24-7.82 8-11.4.54-.72 1.09-1.44 1.64-2.14l.6-.76c.29-.37.59-.75.89-1.11zm-3.19 16.71c-.5 1.05-1 2.11-1.5 3.2h.49a2.83 2.83 0 0 0 2.77-2.88v-3.85c-.59 1.15-1.17 2.33-1.76 3.54zm3.19-16.71l-.91.55-.51.3v-3.35l-1.31-7.72-3.93-7.09 1.37 8.07 2.47 4.44a2.77 2.77 0 0 1 .28.7 3.05 3.05 0 0 1-.11 1.82 3.13 3.13 0 0 1-.35.65l-.24.28a2.48 2.48 0 0 1-.59.48l-6.87 4.13-5.77 3.48-.21.12 1.38 2.34 3.69 6.25.27.46.38-.58c2.58-4 5.24-7.82 8-11.4.54-.72 1.09-1.44 1.64-2.14l.6-.76c.29-.37.59-.75.89-1.11zm0 0l-.91.55-.51.3v-3.35l-1.31-7.72-3.93-7.09 1.37 8.07 2.47 4.44a2.77 2.77 0 0 1 .28.7 3.05 3.05 0 0 1-.11 1.82 3.13 3.13 0 0 1-.35.65l-.24.28a2.48 2.48 0 0 1-.59.48l-6.87 4.13-5.77 3.48-.21.12 1.38 2.34 3.69 6.25.27.46.38-.58c2.58-4 5.24-7.82 8-11.4.54-.72 1.09-1.44 1.64-2.14l.6-.76c.29-.37.59-.75.89-1.11zm0 0l-.91.55-.51.3v1l.6-.76c.29-.37.59-.75.89-1.11z"/><path class="cls-6" d="M285.2 901.81c-.35.41-.69.83-1 1.25"/><path class="cls-2" d="M496.7 835.85H321.14V837H496.7c6.08 0 11 4 11 8.79v69.81c0 4.85-5 8.79-11 8.79H321.14v1.18H496.7c6.9 0 12.51-4.47 12.51-10v-69.75c0-5.5-5.61-9.97-12.51-9.97z"/><text class="cls-3" transform="translate(363.98 868.24)">Activate Response <tspan x="13.96" y="16.02">actions of the </tspan><tspan x="7.03" y="32.04">Emergen</tspan><tspan class="cls-7" x="60.82" y="32.04">c</tspan><tspan x="67.11" y="32.04">y Plan</tspan></text><circle class="cls-1" cx="210.78" cy="1317.02" r="88.78"/><path class="cls-2" d="M247 1266.4h-15a3.27 3.27 0 0 1 .19.65l.35 2.1H244a2.82 2.82 0 0 1 2.77 2.87v69.23l.6-.77.89-1.11 1-1.25.17-.21V1269a2.59 2.59 0 0 0-2.43-2.6zm-58.89 94.15l-.67-1.22a2.82 2.82 0 0 1-2.67-2.88v-1.94l-1-1.85-1.65-3v9.8a2.78 2.78 0 0 0 .26 1.16 2.52 2.52 0 0 0 2.25 1.43H189zm-3.52-94.15a2.58 2.58 0 0 0-2.51 2.32 1.67 1.67 0 0 0 0 .32v2.86l3.2-1.93 5.93-3.56zm64.25 82.4c-.68 1.23-1.34 2.49-2 3.79v3.85a2.84 2.84 0 0 1-2.77 2.89h-.48c-.41.89-.83 1.8-1.23 2.73H247a2.57 2.57 0 0 0 2.53-2.63v-11.88zm-18.39 10.53h-20.63l-1.14.68-3.41 2h26.67zm-22.86-92.93l1.13 2 2.82-.52 8.3-1.52z"/><path class="cls-2" d="M236.93 1294.85l.58 3.47h2.94a1.66 1.66 0 0 0 1.6-1.74 1.78 1.78 0 0 0-.47-1.22 1.5 1.5 0 0 0-1.13-.51zm-6.3 3.07l-2.15.4h3.46a1.58 1.58 0 0 0-1-.42zm9.82 4.91h-2.17l.58 3.47h1.59a1.52 1.52 0 0 0 1.08-.45 1.85 1.85 0 0 0 .05-2.52 1.4 1.4 0 0 0-.55-.38 1.37 1.37 0 0 0-.58-.12zm.55 16.05l.5 2.95a1.83 1.83 0 0 0 .09-2.54 1.61 1.61 0 0 0-.59-.41zm.58 8.39a1.44 1.44 0 0 0-.48-.37l.94 1.71a.49.49 0 0 0 0-.12 1.78 1.78 0 0 0-.46-1.22zm-1.13-16.46h-.82l.58 3.46h.24a1.66 1.66 0 0 0 1.6-1.73 1.82 1.82 0 0 0-.47-1.23 1.53 1.53 0 0 0-1.13-.5z"/><path class="cls-2" d="M245.66 1335.33a3.36 3.36 0 0 0-.27-.7l-2.48-4.46 1.43 8.4a3.09 3.09 0 0 0 .59-.48l.24-.29a3.13 3.13 0 0 0 .35-.65 3 3 0 0 0 .14-1.82zm0 0a3.36 3.36 0 0 0-.27-.7l-2.48-4.46 1.43 8.4a3.09 3.09 0 0 0 .59-.48l.24-.29a3.13 3.13 0 0 0 .35-.65 3 3 0 0 0 .14-1.82zm0 0a3.36 3.36 0 0 0-.27-.7l-2.48-4.46 1.43 8.4a3.09 3.09 0 0 0 .59-.48l.24-.29a3.13 3.13 0 0 0 .35-.65 3 3 0 0 0 .14-1.82zm0 0a3.36 3.36 0 0 0-.27-.7l-2.48-4.46 1.43 8.4a3.09 3.09 0 0 0 .59-.48l.24-.29a3.13 3.13 0 0 0 .35-.65 3 3 0 0 0 .14-1.82zm0 0a3.36 3.36 0 0 0-.27-.7l-2.48-4.46 1.43 8.4a3.09 3.09 0 0 0 .59-.48l.24-.29a3.13 3.13 0 0 0 .35-.65 3 3 0 0 0 .14-1.82zm0 0a3.36 3.36 0 0 0-.27-.7l-2.48-4.46 1.43 8.4a3.09 3.09 0 0 0 .59-.48l.24-.29a3.13 3.13 0 0 0 .35-.65 3 3 0 0 0 .14-1.82zm0 0a3.36 3.36 0 0 0-.27-.7l-2.48-4.46 1.43 8.4a3.09 3.09 0 0 0 .59-.48l.24-.29a3.13 3.13 0 0 0 .35-.65 3 3 0 0 0 .14-1.82zm0 0a3.36 3.36 0 0 0-.27-.7l-2.48-4.46 1.43 8.4a3.09 3.09 0 0 0 .59-.48l.24-.29a3.13 3.13 0 0 0 .35-.65 3 3 0 0 0 .14-1.82zm0 0a3.36 3.36 0 0 0-.27-.7l-2.48-4.46 1.43 8.4a3.09 3.09 0 0 0 .59-.48l.24-.29a3.13 3.13 0 0 0 .35-.65 3 3 0 0 0 .14-1.82zm0 0a3.36 3.36 0 0 0-.27-.7l-2.48-4.46 1.43 8.4a3.09 3.09 0 0 0 .59-.48l.24-.29a3.13 3.13 0 0 0 .35-.65 3 3 0 0 0 .14-1.82zm0 0a3.36 3.36 0 0 0-.27-.7l-2.48-4.46 1.43 8.4a3.09 3.09 0 0 0 .59-.48l.24-.29a3.13 3.13 0 0 0 .35-.65 3 3 0 0 0 .14-1.82zm0 0a3.36 3.36 0 0 0-.27-.7l-2.48-4.46 1.43 8.4a3.09 3.09 0 0 0 .59-.48l.24-.29a3.13 3.13 0 0 0 .35-.65 3 3 0 0 0 .14-1.82zm0 0a3.36 3.36 0 0 0-.27-.7l-2.48-4.46 1.43 8.4a3.09 3.09 0 0 0 .59-.48l.24-.29a3.13 3.13 0 0 0 .35-.65 3 3 0 0 0 .14-1.82zm0 0a3.36 3.36 0 0 0-.27-.7l-2.48-4.46 1.43 8.4a3.09 3.09 0 0 0 .59-.48l.24-.29a3.13 3.13 0 0 0 .35-.65 3 3 0 0 0 .14-1.82zm0 0a3.36 3.36 0 0 0-.27-.7l-2.48-4.46 1.43 8.4a3.09 3.09 0 0 0 .59-.48l.24-.29a3.13 3.13 0 0 0 .35-.65 3 3 0 0 0 .14-1.82zm0 0a3.36 3.36 0 0 0-.27-.7l-2.48-4.46 1.43 8.4a3.09 3.09 0 0 0 .59-.48l.24-.29a3.13 3.13 0 0 0 .35-.65 3 3 0 0 0 .14-1.82zm0 0a3.36 3.36 0 0 0-.27-.7l-2.48-4.46 1.43 8.4a3.09 3.09 0 0 0 .59-.48l.24-.29a3.13 3.13 0 0 0 .35-.65 3 3 0 0 0 .14-1.82zm-55.94 28.18l-1.34.24a2.68 2.68 0 0 1-1.81-.32 2.8 2.8 0 0 1-1.2-1.36 2.34 2.34 0 0 1-.2-.65l-.11-.68-1.36-8.06-1.66-3-2.28-4.13 1.37 8.08.91 5.4.27 1.57.71 4.21a2.54 2.54 0 0 0 2.93 2.14l2.35-.43 2.83-.52zm55.94-28.18a3.36 3.36 0 0 0-.27-.7l-2.48-4.46 1.43 8.4a3.09 3.09 0 0 0 .59-.48l.24-.29a3.13 3.13 0 0 0 .35-.65 3 3 0 0 0 .14-1.82zm0 0a3.36 3.36 0 0 0-.27-.7l-2.48-4.46 1.43 8.4a3.09 3.09 0 0 0 .59-.48l.24-.29a3.13 3.13 0 0 0 .35-.65 3 3 0 0 0 .14-1.82zm0 0a3.36 3.36 0 0 0-.27-.7l-2.48-4.46 1.43 8.4a3.09 3.09 0 0 0 .59-.48l.24-.29a3.13 3.13 0 0 0 .35-.65 3 3 0 0 0 .14-1.82zm0 0a3.36 3.36 0 0 0-.27-.7l-2.48-4.46 1.43 8.4a3.09 3.09 0 0 0 .59-.48l.24-.29a3.13 3.13 0 0 0 .35-.65 3 3 0 0 0 .14-1.82zm0 0a3.36 3.36 0 0 0-.27-.7l-2.48-4.46 1.43 8.4a3.09 3.09 0 0 0 .59-.48l.24-.29a3.13 3.13 0 0 0 .35-.65 3 3 0 0 0 .14-1.82zm0 0a3.36 3.36 0 0 0-.27-.7l-2.48-4.46 1.43 8.4a3.09 3.09 0 0 0 .59-.48l.24-.29a3.13 3.13 0 0 0 .35-.65 3 3 0 0 0 .14-1.82zm0 0a3.36 3.36 0 0 0-.27-.7l-2.48-4.46 1.43 8.4a3.09 3.09 0 0 0 .59-.48l.24-.29a3.13 3.13 0 0 0 .35-.65 3 3 0 0 0 .14-1.82zm0 0a3.36 3.36 0 0 0-.27-.7l-2.48-4.46 1.43 8.4a3.09 3.09 0 0 0 .59-.48l.24-.29a3.13 3.13 0 0 0 .35-.65 3 3 0 0 0 .14-1.82zm0 0a3.36 3.36 0 0 0-.27-.7l-2.48-4.46 1.43 8.4a3.09 3.09 0 0 0 .59-.48l.24-.29a3.13 3.13 0 0 0 .35-.65 3 3 0 0 0 .14-1.82zm0 0a3.36 3.36 0 0 0-.27-.7l-2.48-4.46 1.43 8.4a3.09 3.09 0 0 0 .59-.48l.24-.29a3.13 3.13 0 0 0 .35-.65 3 3 0 0 0 .14-1.82zm0 0a3.36 3.36 0 0 0-.27-.7l-2.48-4.46 1.43 8.4a3.09 3.09 0 0 0 .59-.48l.24-.29a3.13 3.13 0 0 0 .35-.65 3 3 0 0 0 .14-1.82zm0 0a3.36 3.36 0 0 0-.27-.7l-2.48-4.46 1.43 8.4a3.09 3.09 0 0 0 .59-.48l.24-.29a3.13 3.13 0 0 0 .35-.65 3 3 0 0 0 .14-1.82zm0 0a3.36 3.36 0 0 0-.27-.7l-2.48-4.46 1.43 8.4a3.09 3.09 0 0 0 .59-.48l.24-.29a3.13 3.13 0 0 0 .35-.65 3 3 0 0 0 .14-1.82zm0 0a3.36 3.36 0 0 0-.27-.7l-2.48-4.46 1.43 8.4a3.09 3.09 0 0 0 .59-.48l.24-.29a3.13 3.13 0 0 0 .35-.65 3 3 0 0 0 .14-1.82zm0 0a3.36 3.36 0 0 0-.27-.7l-2.48-4.46 1.43 8.4a3.09 3.09 0 0 0 .59-.48l.24-.29a3.13 3.13 0 0 0 .35-.65 3 3 0 0 0 .14-1.82zm0 0a3.36 3.36 0 0 0-.27-.7l-2.48-4.46 1.43 8.4a3.09 3.09 0 0 0 .59-.48l.24-.29a3.13 3.13 0 0 0 .35-.65 3 3 0 0 0 .14-1.82zm0 0a3.36 3.36 0 0 0-.27-.7l-2.48-4.46 1.43 8.4a3.09 3.09 0 0 0 .59-.48l.24-.29a3.13 3.13 0 0 0 .35-.65 3 3 0 0 0 .14-1.82zm0 0a3.36 3.36 0 0 0-.27-.7l-2.48-4.46 1.43 8.4a3.09 3.09 0 0 0 .59-.48l.24-.29a3.13 3.13 0 0 0 .35-.65 3 3 0 0 0 .14-1.82zM185.22 1270l-3.2.59-4.36.8-7.67 1.41a2.62 2.62 0 0 0-2.05 3l.2 1.25.5 2.88 2.47-1.49v-.18a2.87 2.87 0 0 1 2.25-3.34l5.25-1 3.43-2.07 2-1.2 1.2-.73zm43.52 86.36l-12.47 2.3-2.28.42-1.5.28-3.76.69-3.39 2-3.26 2 7.58-1.39 3.1-.57 2.52-.46 12.36-2.27 2.52-.47zm7.81-1.43l.27.47c.13-.19.25-.39.38-.59zm10.76-14.93l-.51-3-1.3-7.72-2.5-14.77-1.46-8.65-.54-2.86-.78-4.62-.59-3.46-4.36-25.7-.46-2.75-.47-2.78a2.54 2.54 0 0 0-2.94-2.13l-21.33 3.92-2.81.51.21.38.05.1 1.12 2 2.81-.53 8.3-1.52 9.2-1.68a2.76 2.76 0 0 1 3 1.68 4.45 4.45 0 0 1 .19.65l.35 2.1 4.36 25.7.57 3.46.78 4.5.58 3.47.77 4.51.58 3.46.06.33.72 4.28.5 2.93v.23l1.37 8.07 1.43 8.4.48 2.87.33 1.91c.54-.72 1.09-1.43 1.64-2.13l.6-.77zm2.14 12.67l-.65-3.84c-.68 1.23-1.34 2.49-2 3.79-.59 1.14-1.17 2.32-1.75 3.54l1.75-.33.61-.1a2.61 2.61 0 0 0 2.08-2.59 2.49 2.49 0 0 0-.04-.5z"/><path class="cls-2" d="M221.48 1291.51l1.77 3.2 2.83-.52 3.8-.69a1.71 1.71 0 0 0 1.29-2 1.68 1.68 0 0 0-1.6-1.45 1.09 1.09 0 0 0-.26 0l-5 .91zm4.08 7.35l1.77 3.2 2.82-.52 1.06-.19a1.69 1.69 0 0 0 1.28-2 1.75 1.75 0 0 0-.54-1 1.58 1.58 0 0 0-1-.42 1.15 1.15 0 0 0-.26 0l-2.15.39h-.11zm8.18 14.77a1.54 1.54 0 0 1 1.07.65 1.57 1.57 0 0 1 .34.78 1.68 1.68 0 0 1-.09 1l-.95-1.73zm-4.57-7.33h.51l1.72 3.12 1.14-.21a1.6 1.6 0 0 0 1.23-1.15 1.86 1.86 0 0 0 0-.85 1.72 1.72 0 0 0-.43-.91 1.56 1.56 0 0 0-.87-.51 1.27 1.27 0 0 0-.28 0h-.27l-2.32.43z"/><path class="cls-2" d="M249.15 1335.8l-2.35-4.25-1.3-2.34-3.93-7.09-.1-.18-1.73-3.1-2.12-3.84-.37-.67-1.93-3.47-1.52-2.75-.95-1.74-.3-.52-1.64-3-.72-1.29-1.77-3.2-1.92-3.47-.37-.67-1.77-3.19-2.9-5.23-1.92-3.47-.08-.12-1.52-2.74-5.68-10.28-.69-1.23-.85-1.51-.55-1-4.35-7.88a2.48 2.48 0 0 0-3.46-1l-16.37 9.83-3.87 2.31-4.38 2.64-9.52 5.72-19.9 12a2.68 2.68 0 0 0-.92 3.6l33.79 60.93.91 1.65 3 5.47.74 1.33.77 1.37 1.72 3.12 2.43 4.37a2.49 2.49 0 0 0 3.47 1l15.4-9.27 1-.57 3.76-2.26.77-.47 1.16-.7 10.29-6.19-1.32-2.37-12 7.21-3.4 2-1.15.69-3.39 2-3.26 2-6.6 4a2.72 2.72 0 0 1-3.78-1.06l-.51-.91-1.4-2.52-.8-1.44-.84-1.51-.67-1.22-2.67-4.82-1-1.85-1.65-3-2.28-4.13-28.65-51.67a3 3 0 0 1 1-3.93l16.54-9.94 2.47-1.49 7.47-4.49 3.43-2.06 2-1.21 1.2-.73 5.93-3.56 9.88-5.94a2.71 2.71 0 0 1 3.79 1l2.44 4.4.22.38.05.1 1.12 2 .39.7 6 10.78 1.29 2.36.48.84 1.45 2.63 3.2 5.75.59 1.07.3.53.89 1.6.07.15 1.93 3.47.3.53 1.77 3.2.43.77 1.87 3.38.05.08 1.73 3.1.77 1.39 1.56 2.82.11.19v.11l.19.34.71 1.28.25.45 1.54 2.78 1.92 3.47 2.58 4.64.94 1.69.86 1.54 2.48 4.44a3.36 3.36 0 0 1 .27.7 3 3 0 0 1-.11 1.82 3.13 3.13 0 0 1-.35.65l-.24.29a3.09 3.09 0 0 1-.59.48l-6.88 4.13-5.77 3.47-.21.13 1.38 2.33 4.1-2.46 4.73-2.84 3.13-1.88 2-1.19.51-.3.91-.55s.05 0 .06-.05l1-1.25a2.93 2.93 0 0 0 .17-1 2.66 2.66 0 0 0-.39-1.14zm-23.91 14.27l-12 7.21-3.4 2-1.15.69 3.76-.69h1.66l-.12-.28 2.28-.42 10.29-6.19zm19.1-11.48l-6.88 4.13-5.77 3.47-.21.13 1.38 2.33 4.1-2.46 4.73-2.84 3.13-1.88zm-10.23-24.31l-.2-.34.19.34.71 1.28zm-45.19 47.79l-.84-1.51-.67-1.22-2.67-4.82-1-1.85 1.36 8.06.74 1.33.77 1.37a2.68 2.68 0 0 0 1.81.32l1.34-.24zM182 1271.9l-3.43 2.07 3.43-2.06 2-1.21zm-8.68 3a2.87 2.87 0 0 0-2.25 3.34v.18l7.47-4.49zm51.9 75.13l-12 7.21-3.4 2-1.15.69 3.76-.69h1.66l-.12-.28 2.28-.42 10.29-6.19zm19.1-11.48l-6.88 4.13-5.77 3.47-.21.13 1.38 2.33 4.1-2.46 4.73-2.84 3.13-1.88zm-10.23-24.31l-.2-.34.19.34.71 1.28zm-45.19 47.79l-.84-1.51-.67-1.22-2.67-4.82-1-1.85 1.36 8.06.74 1.33.77 1.37a2.68 2.68 0 0 0 1.81.32l1.34-.24zm-6.9-90.13l-3.43 2.07 3.43-2.06 2-1.21zm-8.68 3a2.87 2.87 0 0 0-2.25 3.34v.18l7.47-4.49zm60.77 39.34l-.2-.34.19.34.71 1.28zm-8.87 35.79l-12 7.21-3.4 2-1.15.69 3.76-.69h1.66l-.12-.28 2.28-.42 10.29-6.19zm-36.32 12l-.84-1.51-.67-1.22-2.67-4.82-1-1.85 1.36 8.06.74 1.33.77 1.37a2.68 2.68 0 0 0 1.81.32l1.34-.24zm-6.9-90.13l-3.43 2.07 3.43-2.06 2-1.21zm-8.68 3a2.87 2.87 0 0 0-2.25 3.34v.18l7.47-4.49zm60.77 39.34l-.2-.34.19.34.71 1.28zm-8.87 35.79l-12 7.21-3.4 2-1.15.69 3.76-.69h1.66l-.12-.28 2.28-.42 10.29-6.19zm-36.32 12l-.84-1.51-.67-1.22-2.67-4.82-1-1.85 1.36 8.06.74 1.33.77 1.37a2.68 2.68 0 0 0 1.81.32l1.34-.24zm-6.9-90.13l-3.43 2.07 3.43-2.06 2-1.21zm-8.68 3a2.87 2.87 0 0 0-2.25 3.34v.18l7.47-4.49zm0 0a2.87 2.87 0 0 0-2.25 3.34v.18l7.47-4.49zm8.68-3l-3.43 2.07 3.43-2.06 2-1.21zm6.9 90.17l-.84-1.51-.67-1.22-2.67-4.82-1-1.85 1.36 8.06.74 1.33.77 1.37a2.68 2.68 0 0 0 1.81.32l1.34-.24zm36.32-12l-12 7.21-3.4 2-1.15.69 3.76-.69h1.66l-.12-.28 2.28-.42 10.29-6.19zm8.87-35.79l-.2-.34.19.34.71 1.28zm-60.77-39.34a2.87 2.87 0 0 0-2.25 3.34v.18l7.47-4.49zm8.68-3l-3.43 2.07 3.43-2.06 2-1.21zm6.9 90.17l-.84-1.51-.67-1.22-2.67-4.82-1-1.85 1.36 8.06.74 1.33.77 1.37a2.68 2.68 0 0 0 1.81.32l1.34-.24zm36.32-12l-12 7.21-3.4 2-1.15.69 3.76-.69h1.66l-.12-.28 2.28-.42 10.29-6.19zm8.87-35.79l-.2-.34.19.34.71 1.28zm-60.77-39.34a2.87 2.87 0 0 0-2.25 3.34v.18l7.47-4.49zm8.68-3l-3.43 2.07 3.43-2.06 2-1.21zm6.9 90.17l-.84-1.51-.67-1.22-2.67-4.82-1-1.85 1.36 8.06.74 1.33.77 1.37a2.68 2.68 0 0 0 1.81.32l1.34-.24zm45.19-47.79l-.2-.34.19.34.71 1.28zm-8.87 35.79l-12 7.21-3.4 2-1.15.69 3.76-.69h1.66l-.12-.28 2.28-.42 10.29-6.19zm19.1-11.48l-6.88 4.13-5.77 3.47-.21.13 1.38 2.33 4.1-2.46 4.73-2.84 3.13-1.88zm-71-63.65a2.87 2.87 0 0 0-2.25 3.34v.18l7.47-4.49zm8.68-3l-3.43 2.07 3.43-2.06 2-1.21zm6.9 90.17l-.84-1.51-.67-1.22-2.67-4.82-1-1.85 1.36 8.06.74 1.33.77 1.37a2.68 2.68 0 0 0 1.81.32l1.34-.24zm45.19-47.79l-.2-.34.19.34.71 1.28zm-8.87 35.79l-12 7.21-3.4 2-1.15.69 3.76-.69h1.66l-.12-.28 2.28-.42 10.29-6.19zm19.1-11.48l-6.88 4.13-5.77 3.47-.21.13 1.38 2.33 4.1-2.46 4.73-2.84 3.13-1.88zm-71-63.65a2.87 2.87 0 0 0-2.25 3.34v.18l7.47-4.49zm8.68-3l-3.43 2.07 3.43-2.06 2-1.21zm6.9 90.17l-.84-1.51-.67-1.22-2.67-4.82-1-1.85 1.36 8.06.74 1.33.77 1.37a2.68 2.68 0 0 0 1.81.32l1.34-.24zm45.19-47.79l-.2-.34.19.34.71 1.28zm-8.87 35.79l-12 7.21-3.4 2-1.15.69 3.76-.69h1.66l-.12-.28 2.28-.42 10.29-6.19zm19.1-11.48l-6.88 4.13-5.77 3.47-.21.13 1.38 2.33 4.1-2.46 4.73-2.84 3.13-1.88z"/><path class="cls-2" d="M189.56 1292.77l15.13-9.1 2-1.21.6-.36a1.5 1.5 0 0 1 .75-.21 1.42 1.42 0 0 1 .74.2 1.68 1.68 0 0 1 .71.69 1.82 1.82 0 0 1 .23.89 1.68 1.68 0 0 1-.78 1.45l-12.73 7.65-2 1.22-3.72 2.24-4.74 2.84-3.36 2-2.7 1.62-5.85 3.51-2.49 1.49-5.15 3.1a1.59 1.59 0 0 1-2.21-.67 1.73 1.73 0 0 1 .55-2.34l6.2-3.72 2.48-1.5 4.38-2.63 2.09-1.25 2.7-1.63 2.21-1.32 2.53-1.52zm-21.76 24.3a1.59 1.59 0 0 0 2.21.67l2.73-1.64 2.5-1.5 4.42-2.66 2.71-1.63 6-3.62 4.1-2.47 4.32-2.59 1.44-.86 7.51-4.51 2-1.21 3.76-2.26 1.24-.75a1.63 1.63 0 0 0 .77-1.58 1.71 1.71 0 0 0-.22-.75 1.68 1.68 0 0 0-1.45-.89 1.53 1.53 0 0 0-.76.21l-4.49 2.7-1.76 1.06-5.76 3.47-.93.55-6.58 4-4.31 2.59h-.06l-4.88 2.94-2.71 1.62-.28.18-4.75 2.86-2.49 1.49-3.78 2.28a1.72 1.72 0 0 0-.5 2.3zm35.43-4.88l.29-.17 5.48-3.3 3-1.79 4.53-2.72 2.29-1.37a1.46 1.46 0 0 1 .78-.22 1.66 1.66 0 0 1 1.44.89 1.68 1.68 0 0 1 .22.7 1.66 1.66 0 0 1-.22 1.07 1.48 1.48 0 0 1-.55.56l-4.79 2.88-2.55 1.53-3.22 1.94-7.51 4.51-.22.14-5.55 3.33-2.89 1.74-4.59 2.75-1.93 1.17-4.82 2.89-2.7 1.62-1.6 1-.4.24a1.6 1.6 0 0 1-2.22-.68 1.73 1.73 0 0 1 .56-2.33l1.44-.87 2.22-1.33 2.7-1.62 1.74-1 5.83-3.5 2.61-1.57 3.15-1.9zm-23.94 25.6a1.61 1.61 0 0 0 .37.47 1.55 1.55 0 0 0 1.84.21l.87-.52 1.46-.88 1.59-1 1.8-1.08 4-2.38 5.2-3.12 2.29-1.37 5.78-3.48.35-.22 7.11-4.27 3.84-2.3 1.93-1.17 6.52-3.91h.06a1.53 1.53 0 0 0 .54-.56 1.74 1.74 0 0 0 0-1.78 1.65 1.65 0 0 0-1.44-.88 1.58 1.58 0 0 0-.78.21l-4.08 2.45-3.91 2.36-3.63 2.13-4.86 2.93-.91.54-7.48 4.5-2.56 1.54-3.22 1.94-5.23 3.14-4.4 2.64-2.53 1.52-.18.13a1.75 1.75 0 0 0-.34 2.21zm-7.66-13.79a1.59 1.59 0 0 0 2.21.67l.32-.19 2.49-1.49 3-1.82 2.71-1.62 8.68-5.22 3.5-2.11 4.93-3 .84-.5 7.5-4.51 2.62-1.57 3.14-1.89 3-1.82a1.63 1.63 0 0 0 .75-1.09 1.81 1.81 0 0 0-.2-1.24 1.22 1.22 0 0 0-.27-.36 1.58 1.58 0 0 0-1.17-.53 1.46 1.46 0 0 0-.78.22l-.52.31-5.13 3.09-2.37 1.42-5.76 3.46-.31.19-7.19 4.32-3.76 2.26-1.81 1.09-5.74 3.46-.88.52-1.81 1.09-3.62 2.18-2.49 1.49-1.37.83a1.72 1.72 0 0 0-.51 2.36zm11.49 20.71a1.62 1.62 0 0 0 1.86.82 1.84 1.84 0 0 0 .36-.15l2.54-1.53.22-.13 5.14-3.1 5.8-3.48 1.68-1 5.79-3.47 1-.59 6.51-3.91 4.45-2.67 1.33-.81 7.11-4.27.38-.23.85-.51a1.74 1.74 0 0 0 .55-2.34 1.71 1.71 0 0 0-.57-.62 1.54 1.54 0 0 0-.87-.27 1.59 1.59 0 0 0-.78.22h-.08l-5.77 3.47-3.31 2-4.18 2.51-4.26 2.57-1.52.91-7.48 4.5-1.94 1.16-3.83 2.3-4.6 2.77-5.79 3.48a1.75 1.75 0 0 0-.59 2.37zm3.88 6.91a1.62 1.62 0 0 0 2.22.67l12.54-7.54 1.08-.65 5.78-3.48 1.59-.95 5.9-3.55 5-3 .73-.43 7.49-4.5.24-.15 2.39-1.43a1.72 1.72 0 0 0 .72-1.9 2 2 0 0 0-.18-.44 1.66 1.66 0 0 0-1.44-.89 1.52 1.52 0 0 0-.77.22l-1.85 1.11-5.78 3.48-2.7 1.62-4.79 2.88-3.67 2.2-2.1 1.26-7.5 4.5-1.33.81-4.45 2.67-4 2.41-4.57 2.75a1.76 1.76 0 0 0-.55 2.33zm-20.85-57.29a1.64 1.64 0 0 0 2.28.64l.67-.4 2.49-1.5 8.07-4.85 2.71-1.62 2.08-1.25L190 1282l4.64-2.79a1.77 1.77 0 0 0 .61-2.37 1.65 1.65 0 0 0-1.45-.87 1.6 1.6 0 0 0-.83.23l-10.61 6.38-2.71 1.63-8.69 5.22-2.48 1.5-1.72 1a1.78 1.78 0 0 0-.61 2.4z"/><path class="cls-2" d="M248.22 1339.42l-.91.55-.51.3v-3.35l-1.3-7.72-3.93-7.09-.1-.18-1.73-3.1-2.12-3.84c-.81.14-1.63.31-2.42.51l-.36.1a31 31 0 0 0-5.95 2.23 31.72 31.72 0 0 0-9.34 7 31.55 31.55 0 0 0-8.26 21.34 31.45 31.45 0 0 0 2 11.1c.23.6.47 1.19.73 1.77l2.28-.42 12.47-2.3-2.18-3.89-1.32-2.37-2.2-3.94c-1.47-2.36 3.67-7.78 5.73-4.41l2.71 4.6 1.38 2.33 3.69 6.25.27.47c.13-.19.25-.39.38-.59 2.58-4 5.24-7.82 8-11.4.54-.72 1.09-1.43 1.64-2.13l.6-.77.89-1.11s-.12.04-.14.06zm-4.68 19.91h.46a2.84 2.84 0 0 0 2.77-2.89v-3.85c-.59 1.14-1.17 2.32-1.75 3.54-.48 1.04-1.02 2.1-1.48 3.2zm4.68-19.91l-.91.55.08.51.89-1.11s-.04.03-.06.05zm0 0l-.91.55-.51.3v-3.35l-1.3-7.72-3.93-7.09 1.37 8.07 2.48 4.44a3.36 3.36 0 0 1 .27.7 3 3 0 0 1-.11 1.82 3.13 3.13 0 0 1-.35.65l-.24.29a3.09 3.09 0 0 1-.59.48l-6.88 4.13-5.77 3.47-.21.13 1.38 2.33 3.69 6.25.27.47c.13-.19.25-.39.38-.59 2.58-4 5.24-7.82 8-11.4.54-.72 1.09-1.43 1.64-2.13l.6-.77.89-1.11s-.15.06-.17.08zm0 0l-.91.55-.51.3v-3.35l-1.3-7.72-3.93-7.09 1.37 8.07 2.48 4.44a3.36 3.36 0 0 1 .27.7 3 3 0 0 1-.11 1.82 3.13 3.13 0 0 1-.35.65l-.24.29a3.09 3.09 0 0 1-.59.48l-6.88 4.13-5.77 3.47-.21.13 1.38 2.33 3.69 6.25.27.47c.13-.19.25-.39.38-.59 2.58-4 5.24-7.82 8-11.4.54-.72 1.09-1.43 1.64-2.13l.6-.77.89-1.11s-.15.06-.17.08zm0 0l-.91.55-.51.3v-3.35l-1.3-7.72-3.93-7.09 1.37 8.07 2.48 4.44a3.36 3.36 0 0 1 .27.7 3 3 0 0 1-.11 1.82 3.13 3.13 0 0 1-.35.65l-.24.29a3.09 3.09 0 0 1-.59.48l-6.88 4.13-5.77 3.47-.21.13 1.38 2.33 3.69 6.25.27.47c.13-.19.25-.39.38-.59 2.58-4 5.24-7.82 8-11.4.54-.72 1.09-1.43 1.64-2.13l.6-.77.89-1.11s-.15.06-.17.08zm-3.22 16.71c-.5 1-1 2.1-1.5 3.2h.5a2.84 2.84 0 0 0 2.77-2.89v-3.85c-.57 1.14-1.15 2.32-1.77 3.54zm4.45-40.94q-1.32-.27-2.7-.45a31.49 31.49 0 0 0-3.79-.23h-.09c-.88 0-1.76 0-2.63.1s-1.8.19-2.69.34-1.63.31-2.42.51l-.36.1a31 31 0 0 0-5.95 2.23 31.72 31.72 0 0 0-9.34 7 31.55 31.55 0 0 0-8.26 21.34 31.45 31.45 0 0 0 2 11.1c.23.6.47 1.19.73 1.77l.12.28c.08.15.15.31.22.47.29.61.61 1.21.93 1.8l.27.46a31.67 31.67 0 1 0 34-46.87zm13.28 13.64a106 106 0 0 0-13.28 18.72l-.69 1.25c-.68 1.23-1.34 2.49-2 3.79-.59 1.14-1.17 2.32-1.75 3.54-.5 1-1 2.1-1.5 3.2-.41.89-.83 1.8-1.23 2.73-.27.6-.52 1.2-.79 1.82-2.93 2-6.31 3.08-7.91 1.17l-1.67-3-1.53-2.73-.25-.47-1.42-2.53-2.18-3.89-1.32-2.37-2.2-3.94c-1.47-2.36 3.67-7.78 5.73-4.41l2.71 4.6 1.38 2.33 3.69 6.25.27.47c.13-.19.25-.39.38-.59 2.58-4 5.24-7.82 8-11.4.54-.72 1.09-1.43 1.64-2.13l.6-.77.89-1.11 1-1.25.17-.21a100.35 100.35 0 0 1 11.13-11.58c2.2-.2 2.9.68 2.17 2.51zm-36.21 23.61l-1.32-2.37-12 7.21c.23.6.47 1.19.73 1.77l2.28-.42 12.47-2.3zm18.48 3.69c-.5 1-1 2.1-1.5 3.2h.5a2.84 2.84 0 0 0 2.77-2.89v-3.85c-.57 1.14-1.15 2.32-1.77 3.54zm3.18-16.71l-.91.55-.51.3v-3.35l-1.3-7.72-3.93-7.09 1.37 8.07 2.48 4.44a3.36 3.36 0 0 1 .27.7 3 3 0 0 1-.11 1.82 3.13 3.13 0 0 1-.35.65l-.24.29a3.09 3.09 0 0 1-.59.48l-6.88 4.13-5.77 3.47-.21.13 1.38 2.33 3.69 6.25.27.47c.13-.19.25-.39.38-.59 2.58-4 5.24-7.82 8-11.4.54-.72 1.09-1.43 1.64-2.13l.6-.77.89-1.11s-.11.06-.13.08zm-3.18 16.71c-.5 1-1 2.1-1.5 3.2h.5a2.84 2.84 0 0 0 2.77-2.89v-3.85c-.57 1.14-1.15 2.32-1.77 3.54zm3.18-16.71l-.91.55-.51.3v-3.35l-1.3-7.72-3.93-7.09 1.37 8.07 2.48 4.44a3.36 3.36 0 0 1 .27.7 3 3 0 0 1-.11 1.82 3.13 3.13 0 0 1-.35.65l-.24.29a3.09 3.09 0 0 1-.59.48l-6.88 4.13-5.77 3.47-.21.13 1.38 2.33 3.69 6.25.27.47c.13-.19.25-.39.38-.59 2.58-4 5.24-7.82 8-11.4.54-.72 1.09-1.43 1.64-2.13l.6-.77.89-1.11s-.11.06-.13.08zm0 0l-.91.55-.51.3v-3.35l-1.3-7.72-3.93-7.09 1.37 8.07 2.48 4.44a3.36 3.36 0 0 1 .27.7 3 3 0 0 1-.11 1.82 3.13 3.13 0 0 1-.35.65l-.24.29a3.09 3.09 0 0 1-.59.48l-6.88 4.13-5.77 3.47-.21.13 1.38 2.33 3.69 6.25.27.47c.13-.19.25-.39.38-.59 2.58-4 5.24-7.82 8-11.4.54-.72 1.09-1.43 1.64-2.13l.6-.77.89-1.11s-.11.06-.13.08zm0 0l-.91.55-.51.3v1l.6-.77.89-1.11-.03.03z"/><path class="cls-6" d="M249.31 1338.12l-1 1.25"/><path class="cls-2" d="M463.36 1272.17H287.81v1.18h175.55c6.09 0 11 3.94 11 8.78v69.79c0 4.84-4.95 8.78-11 8.78H287.81v1.18h175.55c6.91 0 12.52-4.47 12.52-10v-69.79c0-5.46-5.61-9.92-12.52-9.92z"/><text class="cls-3" transform="translate(336.01 1304.55)">Activate Recove<tspan class="cls-8" x="94.94" y="0">r</tspan><tspan x="100.21" y="0">y </tspan><tspan x="12.63" y="16.02">actions of the </tspan><tspan x="5.7" y="32.04">Emergen</tspan><tspan class="cls-7" x="59.49" y="32.04">c</tspan><tspan x="65.78" y="32.04">y Plan</tspan></text><circle class="cls-1" cx="779.43" cy="698.13" r="88.78"/><path class="cls-2" d="M814.39 652.19c-.51 0-1-.07-1.52-.07H746a16.26 16.26 0 0 0-16.26 16.26v.77l2.26 46.52a16.21 16.21 0 0 0 15 15.44 22.93 22.93 0 0 1-2.24 5.7 4.81 4.81 0 0 0 .33 5.38 4.72 4.72 0 0 0 3.86 1.94 5.59 5.59 0 0 0 1.22-.16A29.56 29.56 0 0 0 769 731h27.3l12.13.16a16.18 16.18 0 0 0 16.18-14.72l4.44-46.5a16.27 16.27 0 0 0-14.66-17.75zm10.68 17.25L820.63 716a12.33 12.33 0 0 1-12.32 11.2h-40.9a1.21 1.21 0 0 0-.38 0 3.46 3.46 0 0 0-.62.36 1.89 1.89 0 0 0-.25.31l-.16.13c-4 7.51-11.39 10.72-16.9 12.09a.92.92 0 0 1-1-.33 1 1 0 0 1 0-1.13 28.26 28.26 0 0 0 3.16-9.32V729a.67.67 0 0 0 0-.2 1.34 1.34 0 0 0 0-.4 1.54 1.54 0 0 0-.15-.32 2.11 2.11 0 0 0-.21-.31l-.34-.21-.32-.17-.36-.14h-1.68a12.37 12.37 0 0 1-12.37-11.8l-2.22-46.65a12.4 12.4 0 0 1 11.8-13h67.34a12.23 12.23 0 0 1 9.23 4 12.43 12.43 0 0 1 3.09 9.64z"/><path class="cls-2" d="M759.68 675.39l11.86 11.86 2.22-2.22-11.88-11.86c-.46-.46 0-2.07 0-2.07l-8-6.91-3.19 3.18 6.94 8s1.65-.37 2.05.02zm28.91 18.89l-7.82 7.82 17 17a3.52 3.52 0 0 0 5 0l2.77-2.77a3.52 3.52 0 0 0 0-5z"/><path class="cls-2" d="M758.74 718.76l31-31a13 13 0 0 0 18.5-12 13.05 13.05 0 0 0-1.27-5.28L799.5 678a4.76 4.76 0 0 1-6.73-6.74l7.53-7.38a13 13 0 0 0-17.3 17.3L752 712a4.76 4.76 0 0 0 6.73 6.74zm-250.33-65.49h194.34v1.18H508.41c-6.74 0-12.22 3.94-12.22 8.78V733c0 4.85 5.48 8.78 12.22 8.78h194.34V743H508.41c-7.64 0-13.86-4.46-13.86-10v-69.77c0-5.49 6.22-9.96 13.86-9.96z"/><text class="cls-3" transform="translate(527.59 678.44)">File a se<tspan class="cls-8" x="46.73" y="0">r</tspan><tspan x="52" y="0">vice request </tspan><tspan x="4.77" y="16.02">(create a tic</tspan><tspan x="73.98" y="16.02" letter-spacing="-.01em">k</tspan><tspan x="80.38" y="16.02">et)and </tspan><tspan x="-12.41" y="32.03">noti</tspan><tspan x="11.28" y="32.03" letter-spacing=".02em">f</tspan><tspan x="16.55" y="32.03">y municipal (agen</tspan><tspan class="cls-7" x="119.61" y="32.03">c</tspan><tspan x="125.89" y="32.03">y) </tspan><tspan x="9.39" y="48.05">for critical actions</tspan></text><circle class="cls-1" cx="246.66" cy="515.54" r="88.78"/><path class="cls-2" d="M313.65 493.62a14.46 14.46 0 0 0-10.54-4.53h-18.89a2 2 0 0 0 0 4h18.89a10.62 10.62 0 0 1 10.61 10.63v.48l-1.95 41.07a10.6 10.6 0 0 1-10.62 10.1h-1.49a1.85 1.85 0 0 0-.44.18l-.25.18a1.65 1.65 0 0 0-.5.58 1.75 1.75 0 0 0-.18.87v.56a24.08 24.08 0 0 0 3.63 9.55c-5.28-1.08-12.35-3.84-16.06-10.81a1.18 1.18 0 0 0-.18-.21 1.43 1.43 0 0 0-.28-.32l-.25-.18a2.24 2.24 0 0 0-.4-.22h-36.4a10.56 10.56 0 0 1-10.56-9.59l-.46-4.76h19.22a16.65 16.65 0 0 0 16.64-15.13l4.57-47.84A16.71 16.71 0 0 0 262.67 460c-.52-.05-1-.07-1.56-.07h-68.78a16.72 16.72 0 0 0-16.72 16.72v.79l2.28 47.83a16.69 16.69 0 0 0 15.45 15.89 23.75 23.75 0 0 1-2.3 5.85 5 5 0 0 0 .34 5.54 4.82 4.82 0 0 0 4 2 5.29 5.29 0 0 0 1.25-.16A30.43 30.43 0 0 0 215.94 541h17.41l.48 5.12a14.53 14.53 0 0 0 14.53 13.2h34.49c4.57 7.57 12.33 10.61 18.17 11.8a5.48 5.48 0 0 0 .81 0 3.85 3.85 0 0 0 3.22-1.73 4 4 0 0 0 0-4.49 19.17 19.17 0 0 1-2.48-5.72 14.56 14.56 0 0 0 13.14-13.89l2-41a14.48 14.48 0 0 0-4.06-10.67zm-99 43.41h-.28a1.34 1.34 0 0 0-.4 0 4 4 0 0 0-.63.37 1.92 1.92 0 0 0-.26.32 1.24 1.24 0 0 0-.18.22c-4.11 7.72-11.71 11-17.37 12.43a1 1 0 0 1-1-.34 1 1 0 0 1 0-1.17 29.11 29.11 0 0 0 3.26-9.57v-.54a2.54 2.54 0 0 0 0-.39 1.5 1.5 0 0 0-.16-.34 1.66 1.66 0 0 0-.22-.32l-.35-.22-.32-.18-.38-.14h-1.71A12.71 12.71 0 0 1 181.89 525l-2.29-48a12.75 12.75 0 0 1 12.14-13.33H261a12.58 12.58 0 0 1 9.49 4.09 12.8 12.8 0 0 1 3.18 9.93l-4.57 47.83a12.68 12.68 0 0 1-12.67 11.52h-41.7zm-3.22-48.87a5.8 5.8 0 1 1-5.8-5.8 5.8 5.8 0 0 1 5.8 5.8zm42 0a5.8 5.8 0 1 1-5.8-5.8 5.81 5.81 0 0 1 5.82 5.78zm-16.31 24.68a10.54 10.54 0 0 1-21 0 1 1 0 0 1 .89-1.05h19.1a1 1 0 0 1 1 .95.34.34 0 0 1 .03.1zm52.74 13.6a4.11 4.11 0 1 1 4.11-4.11 4.11 4.11 0 0 1-4.09 4.11zM275 539.13a7.49 7.49 0 0 1 7.45 6.73.71.71 0 0 1-.66.74h-13.61a.71.71 0 0 1-.72-.68v-.06a7.49 7.49 0 0 1 7.51-6.75zm204.65-68.45H323.58v1.18h156.07c5.41 0 9.81 3.95 9.81 8.79v69.79c0 4.84-4.4 8.78-9.81 8.78H323.58v1.18h156.07c6.13 0 11.12-4.47 11.12-10v-69.75c0-5.5-4.99-9.97-11.12-9.97z"/><text class="cls-3" transform="translate(358.39 503.07)">Collect feedback <tspan x="-.01" y="16.02">from community </tspan><tspan x="26.26" y="32.03">leaders.</tspan></text><circle class="cls-1" cx="779.43" cy="332.96" r="88.78"/><path class="cls-2" d="M815.62 282.34h-14.93a3.36 3.36 0 0 1 .18.64l.35 2.1h11.45a2.84 2.84 0 0 1 2.78 2.88v69.22l.6-.76c.29-.38.59-.75.88-1.11l1-1.25a1.68 1.68 0 0 1 .18-.21V285a2.59 2.59 0 0 0-2.49-2.66zm-58.89 94.14l-.68-1.22a2.82 2.82 0 0 1-2.68-2.88v-1.94l-1-1.85-1.65-3v9.8a2.78 2.78 0 0 0 .26 1.16 2.51 2.51 0 0 0 2.22 1.45h4.37zm-3.53-94.14a2.55 2.55 0 0 0-2.5 2.31 1.05 1.05 0 0 0 0 .31v2.87l3.2-1.93 5.93-3.55zm64.25 82.4c-.68 1.22-1.34 2.48-2 3.78v3.85a2.84 2.84 0 0 1-2.78 2.89h-.48c-.41.89-.82 1.81-1.23 2.74h4.66a2.59 2.59 0 0 0 2.53-2.64v-11.87c-.24.41-.47.83-.7 1.25zm-18.38 10.52h-20.6l-1.14.69-3.41 2.05h26.67zm-22.87-92.92l1.13 2 2.83-.51 8.3-1.52z"/><path class="cls-2" d="M805.58 310.78l.58 3.47h3a1.66 1.66 0 0 0 1.59-1.74 1.82 1.82 0 0 0-.47-1.22 1.53 1.53 0 0 0-1.12-.51zm-6.3 3.08l-2.14.39h3.46a1.6 1.6 0 0 0-1.05-.42 1.24 1.24 0 0 0-.27.03zm9.83 4.9h-2.18l.59 3.47h1.59a1.55 1.55 0 0 0 1.07-.44 1.84 1.84 0 0 0 .52-1.3 1.8 1.8 0 0 0-.47-1.22 1.39 1.39 0 0 0-.54-.39 1.43 1.43 0 0 0-.58-.12zm.54 16.06l.5 2.95a1.85 1.85 0 0 0 .08-2.55 1.44 1.44 0 0 0-.58-.4zm.58 8.38a1.32 1.32 0 0 0-.48-.36l.94 1.7a.45.45 0 0 0 0-.12 1.8 1.8 0 0 0-.46-1.22zm-1.12-16.46h-.83l.58 3.47h.25a1.66 1.66 0 0 0 1.59-1.74 1.82 1.82 0 0 0-.47-1.23 1.52 1.52 0 0 0-1.12-.5z"/><path class="cls-2" d="M814.32 351.26a4.09 4.09 0 0 0-.28-.7l-2.47-4.47 1.43 8.41a2.14 2.14 0 0 0 .59-.48 3.22 3.22 0 0 0 .24-.28 2.93 2.93 0 0 0 .35-.65 3.09 3.09 0 0 0 .14-1.83zm0 0a4.09 4.09 0 0 0-.28-.7l-2.47-4.47 1.43 8.41a2.14 2.14 0 0 0 .59-.48 3.22 3.22 0 0 0 .24-.28 2.93 2.93 0 0 0 .35-.65 3.09 3.09 0 0 0 .14-1.83zm0 0a4.09 4.09 0 0 0-.28-.7l-2.47-4.47 1.43 8.41a2.14 2.14 0 0 0 .59-.48 3.22 3.22 0 0 0 .24-.28 2.93 2.93 0 0 0 .35-.65 3.09 3.09 0 0 0 .14-1.83zm0 0a4.09 4.09 0 0 0-.28-.7l-2.47-4.47 1.43 8.41a2.14 2.14 0 0 0 .59-.48 3.22 3.22 0 0 0 .24-.28 2.93 2.93 0 0 0 .35-.65 3.09 3.09 0 0 0 .14-1.83zm0 0a4.09 4.09 0 0 0-.28-.7l-2.47-4.47 1.43 8.41a2.14 2.14 0 0 0 .59-.48 3.22 3.22 0 0 0 .24-.28 2.93 2.93 0 0 0 .35-.65 3.09 3.09 0 0 0 .14-1.83zm0 0a4.09 4.09 0 0 0-.28-.7l-2.47-4.47 1.43 8.41a2.14 2.14 0 0 0 .59-.48 3.22 3.22 0 0 0 .24-.28 2.93 2.93 0 0 0 .35-.65 3.09 3.09 0 0 0 .14-1.83zm0 0a4.09 4.09 0 0 0-.28-.7l-2.47-4.47 1.43 8.41a2.14 2.14 0 0 0 .59-.48 3.22 3.22 0 0 0 .24-.28 2.93 2.93 0 0 0 .35-.65 3.09 3.09 0 0 0 .14-1.83zm0 0a4.09 4.09 0 0 0-.28-.7l-2.47-4.47 1.43 8.41a2.14 2.14 0 0 0 .59-.48 3.22 3.22 0 0 0 .24-.28 2.93 2.93 0 0 0 .35-.65 3.09 3.09 0 0 0 .14-1.83zm0 0a4.09 4.09 0 0 0-.28-.7l-2.47-4.47 1.43 8.41a2.14 2.14 0 0 0 .59-.48 3.22 3.22 0 0 0 .24-.28 2.93 2.93 0 0 0 .35-.65 3.09 3.09 0 0 0 .14-1.83zm0 0a4.09 4.09 0 0 0-.28-.7l-2.47-4.47 1.43 8.41a2.14 2.14 0 0 0 .59-.48 3.22 3.22 0 0 0 .24-.28 2.93 2.93 0 0 0 .35-.65 3.09 3.09 0 0 0 .14-1.83zm0 0a4.09 4.09 0 0 0-.28-.7l-2.47-4.47 1.43 8.41a2.14 2.14 0 0 0 .59-.48 3.22 3.22 0 0 0 .24-.28 2.93 2.93 0 0 0 .35-.65 3.09 3.09 0 0 0 .14-1.83zm0 0a4.09 4.09 0 0 0-.28-.7l-2.47-4.47 1.43 8.41a2.14 2.14 0 0 0 .59-.48 3.22 3.22 0 0 0 .24-.28 2.93 2.93 0 0 0 .35-.65 3.09 3.09 0 0 0 .14-1.83zm0 0a4.09 4.09 0 0 0-.28-.7l-2.47-4.47 1.43 8.41a2.14 2.14 0 0 0 .59-.48 3.22 3.22 0 0 0 .24-.28 2.93 2.93 0 0 0 .35-.65 3.09 3.09 0 0 0 .14-1.83zm0 0a4.09 4.09 0 0 0-.28-.7l-2.47-4.47 1.43 8.41a2.14 2.14 0 0 0 .59-.48 3.22 3.22 0 0 0 .24-.28 2.93 2.93 0 0 0 .35-.65 3.09 3.09 0 0 0 .14-1.83zm0 0a4.09 4.09 0 0 0-.28-.7l-2.47-4.47 1.43 8.41a2.14 2.14 0 0 0 .59-.48 3.22 3.22 0 0 0 .24-.28 2.93 2.93 0 0 0 .35-.65 3.09 3.09 0 0 0 .14-1.83zm0 0a4.09 4.09 0 0 0-.28-.7l-2.47-4.47 1.43 8.41a2.14 2.14 0 0 0 .59-.48 3.22 3.22 0 0 0 .24-.28 2.93 2.93 0 0 0 .35-.65 3.09 3.09 0 0 0 .14-1.83zm0 0a4.09 4.09 0 0 0-.28-.7l-2.47-4.47 1.43 8.41a2.14 2.14 0 0 0 .59-.48 3.22 3.22 0 0 0 .24-.28 2.93 2.93 0 0 0 .35-.65 3.09 3.09 0 0 0 .14-1.83zm-56 28.18l-1.34.24a2.68 2.68 0 0 1-1.81-.31A2.81 2.81 0 0 1 754 378a2.41 2.41 0 0 1-.2-.66l-.11-.67-1.36-8.06-1.66-3-2.28-4.12 1.37 8.07.91 5.4.28 1.57.71 4.21a2.54 2.54 0 0 0 2.94 2.14l2.34-.43 2.82-.51zm56-28.18a4.09 4.09 0 0 0-.28-.7l-2.47-4.47 1.43 8.41a2.14 2.14 0 0 0 .59-.48 3.22 3.22 0 0 0 .24-.28 2.93 2.93 0 0 0 .35-.65 3.09 3.09 0 0 0 .14-1.83zm0 0a4.09 4.09 0 0 0-.28-.7l-2.47-4.47 1.43 8.41a2.14 2.14 0 0 0 .59-.48 3.22 3.22 0 0 0 .24-.28 2.93 2.93 0 0 0 .35-.65 3.09 3.09 0 0 0 .14-1.83zm0 0a4.09 4.09 0 0 0-.28-.7l-2.47-4.47 1.43 8.41a2.14 2.14 0 0 0 .59-.48 3.22 3.22 0 0 0 .24-.28 2.93 2.93 0 0 0 .35-.65 3.09 3.09 0 0 0 .14-1.83zm0 0a4.09 4.09 0 0 0-.28-.7l-2.47-4.47 1.43 8.41a2.14 2.14 0 0 0 .59-.48 3.22 3.22 0 0 0 .24-.28 2.93 2.93 0 0 0 .35-.65 3.09 3.09 0 0 0 .14-1.83zm0 0a4.09 4.09 0 0 0-.28-.7l-2.47-4.47 1.43 8.41a2.14 2.14 0 0 0 .59-.48 3.22 3.22 0 0 0 .24-.28 2.93 2.93 0 0 0 .35-.65 3.09 3.09 0 0 0 .14-1.83zm0 0a4.09 4.09 0 0 0-.28-.7l-2.47-4.47 1.43 8.41a2.14 2.14 0 0 0 .59-.48 3.22 3.22 0 0 0 .24-.28 2.93 2.93 0 0 0 .35-.65 3.09 3.09 0 0 0 .14-1.83zm0 0a4.09 4.09 0 0 0-.28-.7l-2.47-4.47 1.43 8.41a2.14 2.14 0 0 0 .59-.48 3.22 3.22 0 0 0 .24-.28 2.93 2.93 0 0 0 .35-.65 3.09 3.09 0 0 0 .14-1.83zm0 0a4.09 4.09 0 0 0-.28-.7l-2.47-4.47 1.43 8.41a2.14 2.14 0 0 0 .59-.48 3.22 3.22 0 0 0 .24-.28 2.93 2.93 0 0 0 .35-.65 3.09 3.09 0 0 0 .14-1.83zm0 0a4.09 4.09 0 0 0-.28-.7l-2.47-4.47 1.43 8.41a2.14 2.14 0 0 0 .59-.48 3.22 3.22 0 0 0 .24-.28 2.93 2.93 0 0 0 .35-.65 3.09 3.09 0 0 0 .14-1.83zm0 0a4.09 4.09 0 0 0-.28-.7l-2.47-4.47 1.43 8.41a2.14 2.14 0 0 0 .59-.48 3.22 3.22 0 0 0 .24-.28 2.93 2.93 0 0 0 .35-.65 3.09 3.09 0 0 0 .14-1.83zm0 0a4.09 4.09 0 0 0-.28-.7l-2.47-4.47 1.43 8.41a2.14 2.14 0 0 0 .59-.48 3.22 3.22 0 0 0 .24-.28 2.93 2.93 0 0 0 .35-.65 3.09 3.09 0 0 0 .14-1.83zm0 0a4.09 4.09 0 0 0-.28-.7l-2.47-4.47 1.43 8.41a2.14 2.14 0 0 0 .59-.48 3.22 3.22 0 0 0 .24-.28 2.93 2.93 0 0 0 .35-.65 3.09 3.09 0 0 0 .14-1.83zm0 0a4.09 4.09 0 0 0-.28-.7l-2.47-4.47 1.43 8.41a2.14 2.14 0 0 0 .59-.48 3.22 3.22 0 0 0 .24-.28 2.93 2.93 0 0 0 .35-.65 3.09 3.09 0 0 0 .14-1.83zm0 0a4.09 4.09 0 0 0-.28-.7l-2.47-4.47 1.43 8.41a2.14 2.14 0 0 0 .59-.48 3.22 3.22 0 0 0 .24-.28 2.93 2.93 0 0 0 .35-.65 3.09 3.09 0 0 0 .14-1.83zm0 0a4.09 4.09 0 0 0-.28-.7l-2.47-4.47 1.43 8.41a2.14 2.14 0 0 0 .59-.48 3.22 3.22 0 0 0 .24-.28 2.93 2.93 0 0 0 .35-.65 3.09 3.09 0 0 0 .14-1.83zm0 0a4.09 4.09 0 0 0-.28-.7l-2.47-4.47 1.43 8.41a2.14 2.14 0 0 0 .59-.48 3.22 3.22 0 0 0 .24-.28 2.93 2.93 0 0 0 .35-.65 3.09 3.09 0 0 0 .14-1.83zm0 0a4.09 4.09 0 0 0-.28-.7l-2.47-4.47 1.43 8.41a2.14 2.14 0 0 0 .59-.48 3.22 3.22 0 0 0 .24-.28 2.93 2.93 0 0 0 .35-.65 3.09 3.09 0 0 0 .14-1.83zm0 0a4.09 4.09 0 0 0-.28-.7l-2.47-4.47 1.43 8.41a2.14 2.14 0 0 0 .59-.48 3.22 3.22 0 0 0 .24-.28 2.93 2.93 0 0 0 .35-.65 3.09 3.09 0 0 0 .14-1.83zm-60.45-65.35l-3.2.58-4.36.8-7.67 1.41a2.63 2.63 0 0 0-2 3.05l.2 1.26.5 2.87 2.48-1.49v-.17a2.88 2.88 0 0 1 2.25-3.35l5.25-1 3.43-2.07 2-1.21 1.21-.73zm43.52 86.36l-12.47 2.29-2.28.42-1.5.28-3.76.68-3.44 2.06-3.27 2 7.58-1.4 3.1-.57 2.53-.47 12.35-2.26 2.52-.46zm7.81-1.43l.27.46.38-.58zM816 355.9l-.51-3-1.31-7.72-2.48-14.67-1.46-8.65-.5-2.89-.78-4.62-.59-3.46-4.37-25.8-.47-2.74-.47-2.78a2.54 2.54 0 0 0-2.94-2.14l-21.33 3.92-2.82.51.21.39.06.1 1.12 2 2.82-.52 8.3-1.52 9.2-1.69a2.75 2.75 0 0 1 3 1.69 3.27 3.27 0 0 1 .19.65l.35 2.09 4.36 25.69.58 3.46.77 4.5.58 3.46.77 4.51.58 3.47.06.34.72 4.27.5 2.94.05.24 1.37 8.06 1.43 8.41.47 2.87.33 1.92c.55-.73 1.1-1.44 1.65-2.14l.6-.76zm2.14 12.67l-.65-3.83c-.68 1.22-1.34 2.48-2 3.78s-1.18 2.33-1.76 3.54l1.76-.32.61-.11a2.6 2.6 0 0 0 2-3.06z"/><path class="cls-2" d="M790.13 307.45l1.77 3.2 2.83-.52 3.8-.7a1.71 1.71 0 0 0 1.29-2 1.66 1.66 0 0 0-1.6-1.44 1.18 1.18 0 0 0-.26 0l-5 .92zm4.08 7.34L796 318l2.82-.52 1.06-.19a1.69 1.69 0 0 0 1.28-2 1.73 1.73 0 0 0-.54-1 1.58 1.58 0 0 0-1-.42h-.27l-2.15.4h-.2zm8.18 14.78a1.55 1.55 0 0 1 1.08.64 1.77 1.77 0 0 1 .34.78 1.87 1.87 0 0 1-.09.95l-1-1.73zm-4.57-7.34h.51l1.73 3.12 1.13-.21a1.6 1.6 0 0 0 1.23-1.15 1.73 1.73 0 0 0 .05-.85 1.65 1.65 0 0 0-.43-.91 1.59 1.59 0 0 0-.87-.51h-.55l-2.32.43z"/><path class="cls-2" d="M817.8 351.74l-2.35-4.25-1.31-2.33-3.94-7.16-.1-.18-1.72-3.1-2.13-3.84-.37-.67-1.93-3.46-1.53-2.75-1-1.74-.29-.51-1.64-3-.72-1.29-1.76-3.2-1.92-3.47-.36-.67-1.73-3.19-2.9-5.22-1.92-3.48-.07-.12-1.52-2.74-5.69-10.27-.69-1.23-.85-1.52-.55-1-4.35-7.88a2.5 2.5 0 0 0-3.47-1l-16.36 9.84-3.86 2.32-4.39 2.63-9.59 5.74-19.9 12a2.69 2.69 0 0 0-.92 3.6l33.79 60.93.91 1.64 3 5.48.74 1.33.77 1.36 1.72 3.11 2.43 4.37a2.5 2.5 0 0 0 3.47 1l15.4-9.27 1-.57 3.76-2.27.77-.46 1.15-.7 10.3-6.19-1.29-2.36-12 7.21-3.41 2.05-1.15.68-3.39 2.06-3.27 2-6.6 4a2.72 2.72 0 0 1-3.78-1.05l-.51-.91-1.4-2.53-.8-1.44-.83-1.52-.68-1.22-2.68-4.81-1-1.85-1.65-3-2.28-4.12-28.65-51.67a3 3 0 0 1 1-3.94l16.53-9.94 2.48-1.49 7.47-4.48 3.43-2.07 2-1.21 1.21-.73 5.93-3.56 9.88-5.93a2.7 2.7 0 0 1 3.78 1l2.44 4.4.22.38.06.1 1.12 2 .39.71 6 10.78 1.3 2.35.48.85 1.45 2.63 3.19 5.75.59 1.06.3.54.89 1.6.07.14 1.93 3.47.3.54L796 318l.44.77 1.86 3.38v.08l1.73 3.11.78 1.4 1.55 2.81.11.19.06.11.18.34.72 1.28.25.45 1.53 2.78 1.92 3.47 2.58 4.65 1 1.7.86 1.53 2.47 4.45a4.09 4.09 0 0 1 .28.7 3.08 3.08 0 0 1-.12 1.83 2.93 2.93 0 0 1-.35.65 3.22 3.22 0 0 1-.24.28 2.14 2.14 0 0 1-.59.48l-6.87 4.13-5.78 3.47-.21.13 1.39 2.34 4.1-2.47 4.73-2.84 3.12-1.88 2-1.18.51-.3.91-.55a.09.09 0 0 0 .06 0l1-1.25a2.93 2.93 0 0 0 .18-1 2.64 2.64 0 0 0-.36-1.3zM793.89 366l-12 7.21-3.41 2.05-1.15.68 3.76-.68h1.66l-.12-.28 2.28-.42 10.3-6.19zM813 354.52l-6.87 4.13-5.78 3.47-.21.13 1.39 2.34 4.1-2.47 4.73-2.84 3.12-1.88zm-10.24-24.31l-.19-.34.18.34.72 1.28zM757.57 378l-.83-1.52-.68-1.22-2.68-4.81-1-1.85 1.36 8.06.74 1.33.77 1.36a2.68 2.68 0 0 0 1.81.31l1.34-.24zm-6.9-90.16l-3.43 2.07 3.43-2.07 2-1.21zm-8.68 3a2.88 2.88 0 0 0-2.25 3.35v.17l7.47-4.48zm51.9 75.16l-12 7.21-3.41 2.05-1.15.68 3.76-.68h1.66l-.12-.28 2.28-.42 10.3-6.19zM813 354.52l-6.87 4.13-5.78 3.47-.21.13 1.39 2.34 4.1-2.47 4.73-2.84 3.12-1.88zm-10.24-24.31l-.19-.34.18.34.72 1.28zM757.57 378l-.83-1.52-.68-1.22-2.68-4.81-1-1.85 1.36 8.06.74 1.33.77 1.36a2.68 2.68 0 0 0 1.81.31l1.34-.24zm-6.9-90.16l-3.43 2.07 3.43-2.07 2-1.21zm-8.68 3a2.88 2.88 0 0 0-2.25 3.35v.17l7.47-4.48zm60.77 39.34l-.19-.34.18.34.72 1.28zM793.89 366l-12 7.21-3.41 2.05-1.15.68 3.76-.68h1.66l-.12-.28 2.28-.42 10.3-6.19zm-36.32 12l-.83-1.52-.68-1.22-2.68-4.81-1-1.85 1.36 8.06.74 1.33.77 1.36a2.68 2.68 0 0 0 1.81.31l1.34-.24zm-6.9-90.16l-3.43 2.07 3.43-2.07 2-1.21zm-8.68 3a2.88 2.88 0 0 0-2.25 3.35v.17l7.47-4.48zm60.77 39.34l-.19-.34.18.34.72 1.28zM793.89 366l-12 7.21-3.41 2.05-1.15.68 3.76-.68h1.66l-.12-.28 2.28-.42 10.3-6.19zm-36.32 12l-.83-1.52-.68-1.22-2.68-4.81-1-1.85 1.36 8.06.74 1.33.77 1.36a2.68 2.68 0 0 0 1.81.31l1.34-.24zm-6.9-90.16l-3.43 2.07 3.43-2.07 2-1.21zm-8.68 3a2.88 2.88 0 0 0-2.25 3.35v.17l7.47-4.48zm0 0a2.88 2.88 0 0 0-2.25 3.35v.17l7.47-4.48zm8.68-3l-3.43 2.07 3.43-2.07 2-1.21zm6.9 90.16l-.83-1.52-.68-1.22-2.68-4.81-1-1.85 1.36 8.06.74 1.33.77 1.36a2.68 2.68 0 0 0 1.81.31l1.34-.24zm36.32-12l-12 7.21-3.41 2.05-1.15.68 3.76-.68h1.66l-.12-.28 2.28-.42 10.3-6.19zm8.87-35.79l-.19-.34.18.34.72 1.28zM742 290.87a2.88 2.88 0 0 0-2.25 3.35v.17l7.47-4.48zm8.68-3l-3.43 2.07 3.43-2.07 2-1.21zm6.9 90.16l-.83-1.52-.68-1.22-2.68-4.81-1-1.85 1.36 8.06.74 1.33.77 1.36a2.68 2.68 0 0 0 1.81.31l1.34-.24zm36.32-12l-12 7.21-3.41 2.05-1.15.68 3.76-.68h1.66l-.12-.28 2.28-.42 10.3-6.19zm8.87-35.79l-.19-.34.18.34.72 1.28zM742 290.87a2.88 2.88 0 0 0-2.25 3.35v.17l7.47-4.48zm8.68-3l-3.43 2.07 3.43-2.07 2-1.21zm6.9 90.16l-.83-1.52-.68-1.22-2.68-4.81-1-1.85 1.36 8.06.74 1.33.77 1.36a2.68 2.68 0 0 0 1.81.31l1.34-.24zm45.19-47.79l-.19-.34.18.34.72 1.28zM793.89 366l-12 7.21-3.41 2.05-1.15.68 3.76-.68h1.66l-.12-.28 2.28-.42 10.3-6.19zM813 354.52l-6.87 4.13-5.78 3.47-.21.13 1.39 2.34 4.1-2.47 4.73-2.84 3.12-1.88zm-71-63.65a2.88 2.88 0 0 0-2.25 3.35v.17l7.47-4.48zm8.68-3l-3.43 2.07 3.43-2.07 2-1.21zm6.9 90.16l-.83-1.52-.68-1.22-2.68-4.81-1-1.85 1.36 8.06.74 1.33.77 1.36a2.68 2.68 0 0 0 1.81.31l1.34-.24zm45.19-47.79l-.19-.34.18.34.72 1.28zM793.89 366l-12 7.21-3.41 2.05-1.15.68 3.76-.68h1.66l-.12-.28 2.28-.42 10.3-6.19zM813 354.52l-6.87 4.13-5.78 3.47-.21.13 1.39 2.34 4.1-2.47 4.73-2.84 3.12-1.88zm-71-63.65a2.88 2.88 0 0 0-2.25 3.35v.17l7.47-4.48zm8.68-3l-3.43 2.07 3.43-2.07 2-1.21zm6.9 90.16l-.83-1.52-.68-1.22-2.68-4.81-1-1.85 1.36 8.06.74 1.33.77 1.36a2.68 2.68 0 0 0 1.81.31l1.34-.24zm45.19-47.79l-.19-.34.18.34.72 1.28zM793.89 366l-12 7.21-3.41 2.05-1.15.68 3.76-.68h1.66l-.12-.28 2.28-.42 10.3-6.19zM813 354.52l-6.87 4.13-5.78 3.47-.21.13 1.39 2.34 4.1-2.47 4.73-2.84 3.12-1.88z"/><path class="cls-2" d="M758.21 308.7l15.14-9.09 2-1.21.6-.36a1.41 1.41 0 0 1 .76-.21 1.45 1.45 0 0 1 .73.19 1.7 1.7 0 0 1 .71.7 1.79 1.79 0 0 1 .23.89 1.67 1.67 0 0 1-.78 1.44l-12.73 7.65-2 1.23-3.72 2.23-4.77 2.84-3.38 2-2.7 1.62-5.85 3.51-2.48 1.5-5.16 3.09a1.58 1.58 0 0 1-2.21-.67 1.72 1.72 0 0 1 .55-2.33l6.2-3.73 2.49-1.49 4.38-2.63 2.08-1.25L751 313l2.21-1.33 2.53-1.52zM736.45 333a1.59 1.59 0 0 0 2.21.68l2.74-1.68 2.49-1.49 4.43-2.67 2.7-1.63 6-3.62 4.11-2.47 4.31-2.6 1.44-.86 7.51-4.51 2-1.21 3.76-2.26 1.24-.75a1.63 1.63 0 0 0 .78-1.57 1.76 1.76 0 0 0-.23-.76 1.66 1.66 0 0 0-1.44-.89 1.55 1.55 0 0 0-.77.22l-4.48 2.69-1.75 1.06-5.77 3.47-.93.55-6.58 4-4.22 2.57h-.06l-4.94 2.98-2.7 1.62-.3.13-4.76 2.86-2.49 1.49-3.75 2.32a1.72 1.72 0 0 0-.55 2.33zm35.43-4.87l.3-.18 5.47-3.29 3-1.79 4.53-2.72 2.29-1.38a1.59 1.59 0 0 1 .78-.22 1.75 1.75 0 0 1 1.66 1.6 1.63 1.63 0 0 1-.22 1.06 1.58 1.58 0 0 1-.55.57l-4.79 2.88-2.55 1.53-3.22 1.94-7.5 4.5-.23.14-5.55 3.33-2.89 1.74-4.58 2.75-1.94 1.17-4.82 2.9-2.7 1.62-1.6 1-.4.24a1.59 1.59 0 0 1-2.21-.67 1.75 1.75 0 0 1 .55-2.34l1.45-.86 2.21-1.34 2.7-1.62 1.74-1.05 5.83-3.5 2.61-1.57 3.16-1.9zm-23.94 25.6a1.56 1.56 0 0 0 .38.46 1.54 1.54 0 0 0 1.84.21l.86-.52 1.46-.87 1.59-1 1.79-1.07 4-2.39 5.19-3.11 2.29-1.38 5.78-3.48.35-.21 7.12-4.28 3.83-2.3 1.93-1.17 6.52-3.91h.07a1.67 1.67 0 0 0 .54-.55 1.79 1.79 0 0 0 0-1.79 1.65 1.65 0 0 0-1.44-.88 1.51 1.51 0 0 0-.77.21l-4.09 2.46-3.91 2.35-3.59 2.15-4.86 2.94-.9.53-7.49 4.5-2.56 1.54-3.22 1.94-5.23 3.14-4.4 2.64-2.53 1.52c-.06.05-.12.08-.17.13a1.75 1.75 0 0 0-.38 2.19zm-7.66-13.82a1.6 1.6 0 0 0 2.21.68l.33-.2 2.48-1.49 3-1.81 2.7-1.63 8.69-5.22 3.5-2.1 4.93-3 .83-.49 7.5-4.51 2.62-1.58 3.15-1.89 3-1.81a1.64 1.64 0 0 0 .75-1.1 1.82 1.82 0 0 0-.2-1.24 1.58 1.58 0 0 0-.26-.36 1.65 1.65 0 0 0-1.18-.53 1.59 1.59 0 0 0-.78.22l-.51.31-5.04 3.1-2.36 1.42-5.77 3.47-.31.18-7.19 4.33-3.76 2.26-1.85 1.08-5.76 3.46-.88.53-1.8 1.08-3.63 2.18-2.49 1.5-1.37.82a1.74 1.74 0 0 0-.55 2.34zm11.49 20.73a1.63 1.63 0 0 0 1.86.82 1.38 1.38 0 0 0 .36-.15l2.54-1.53.22-.13 5.14-3.09 5.8-3.49 1.69-1 5.78-3.48 1-.59 6.51-3.91 4.45-2.67 1.34-.81 7.1-4.27.38-.23.86-.51a1.74 1.74 0 0 0 .54-2.33 1.82 1.82 0 0 0-.57-.63 1.58 1.58 0 0 0-.87-.26 1.54 1.54 0 0 0-.77.21l-.08.05-5.78 3.47-3.31 2-4.17 2.51-4.27 2.57-1.52.91-7.48 4.5-1.94 1.17-3.84 2.3-4.6 2.77-5.78 3.48a1.73 1.73 0 0 0-.59 2.32zm3.83 6.91a1.61 1.61 0 0 0 2.22.67l12.54-7.54 1.08-.64 5.79-3.48 1.58-1 5.9-3.54 5-3 .73-.44 7.49-4.5.24-.14 2.39-1.44a1.7 1.7 0 0 0 .72-1.9 1.75 1.75 0 0 0-.17-.43 1.68 1.68 0 0 0-1.45-.89 1.46 1.46 0 0 0-.77.22l-1.85 1.1-5.78 3.48-2.7 1.62-4.79 2.88-3.67 2.2-2.1 1.27-7.49 4.5-1.34.8-4.41 2.65-4 2.41-4.57 2.76a1.74 1.74 0 0 0-.59 2.38zm-20.79-57.29a1.62 1.62 0 0 0 2.27.64l.67-.4 2.49-1.5 8.08-4.85 2.7-1.62 2.08-1.25 5.57-3.34 4.63-2.79a1.79 1.79 0 0 0 .61-2.38 1.67 1.67 0 0 0-1.45-.87 1.6 1.6 0 0 0-.83.23L751 298.52l-2.7 1.63-8.7 5.22-2.48 1.49-1.72 1a1.76 1.76 0 0 0-.59 2.4z"/><path class="cls-2" d="M816.87 355.35l-.91.55-.51.3v-3.35l-1.31-7.72-3.94-7.13-.1-.18-1.72-3.1-2.13-3.84c-.81.15-1.62.31-2.42.52l-.35.09a30.46 30.46 0 0 0-6 2.24 31.81 31.81 0 0 0-9.34 7 31.66 31.66 0 0 0-5.57 8.55 30.38 30.38 0 0 0-1.73 5.05 31.67 31.67 0 0 0 1 18.84q.33.9.72 1.77l2.28-.42 12.47-2.29-2.17-3.9-1.25-2.33-2.2-3.94c-1.47-2.35 3.67-7.77 5.73-4.4l2.71 4.59 1.39 2.34 3.68 6.25.27.46.38-.58c2.58-4 5.25-7.83 7.95-11.4.55-.73 1.1-1.44 1.65-2.14l.6-.76c.29-.38.59-.75.88-1.11a.09.09 0 0 1-.06.04zm-4.68 19.91h.48a2.84 2.84 0 0 0 2.78-2.89v-3.85c-.6 1.15-1.18 2.33-1.76 3.54-.5 1.04-1 2.11-1.5 3.2zm4.68-19.91l-.91.55.09.52c.29-.38.59-.75.88-1.11a.09.09 0 0 1-.06.04zm0 0l-.91.55-.51.3v-3.35l-1.31-7.72-3.94-7.13 1.37 8.06 2.47 4.45a4.09 4.09 0 0 1 .28.7 3.08 3.08 0 0 1-.12 1.83 2.93 2.93 0 0 1-.35.65 3.22 3.22 0 0 1-.24.28 2.14 2.14 0 0 1-.59.48l-6.87 4.13-5.78 3.47-.21.13 1.39 2.34 3.68 6.25.27.46.38-.58c2.58-4 5.25-7.83 7.95-11.4.55-.73 1.1-1.44 1.65-2.14l.6-.76c.29-.38.59-.75.88-1.11a.09.09 0 0 1-.09.11zm0 0l-.91.55-.51.3v-3.35l-1.31-7.72-3.94-7.13 1.37 8.06 2.47 4.45a4.09 4.09 0 0 1 .28.7 3.08 3.08 0 0 1-.12 1.83 2.93 2.93 0 0 1-.35.65 3.22 3.22 0 0 1-.24.28 2.14 2.14 0 0 1-.59.48l-6.87 4.13-5.78 3.47-.21.13 1.39 2.34 3.68 6.25.27.46.38-.58c2.58-4 5.25-7.83 7.95-11.4.55-.73 1.1-1.44 1.65-2.14l.6-.76c.29-.38.59-.75.88-1.11a.09.09 0 0 1-.09.11zm0 0l-.91.55-.51.3v-3.35l-1.31-7.72-3.94-7.13 1.37 8.06 2.47 4.45a4.09 4.09 0 0 1 .28.7 3.08 3.08 0 0 1-.12 1.83 2.93 2.93 0 0 1-.35.65 3.22 3.22 0 0 1-.24.28 2.14 2.14 0 0 1-.59.48l-6.87 4.13-5.78 3.47-.21.13 1.39 2.34 3.68 6.25.27.46.38-.58c2.58-4 5.25-7.83 7.95-11.4.55-.73 1.1-1.44 1.65-2.14l.6-.76c.29-.38.59-.75.88-1.11a.09.09 0 0 1-.09.11zm-3.18 16.71c-.5 1-1 2.11-1.5 3.2h.48a2.84 2.84 0 0 0 2.78-2.89v-3.85c-.6 1.15-1.18 2.33-1.76 3.54zm4.46-40.93q-1.33-.28-2.7-.45a31.77 31.77 0 0 0-3.8-.24h-.08c-.89 0-1.77 0-2.64.11s-1.8.18-2.69.33-1.62.31-2.42.52l-.35.09a30.46 30.46 0 0 0-6 2.24 31.81 31.81 0 0 0-9.34 7 31.66 31.66 0 0 0-5.57 8.55 30.38 30.38 0 0 0-1.73 5.05 31.67 31.67 0 0 0 1 18.84q.33.9.72 1.77l.12.28c.08.16.15.31.22.47.29.62.61 1.22.94 1.8.08.16.17.31.26.47a31.67 31.67 0 1 0 34-46.87zm13.28 13.63a104.67 104.67 0 0 0-13.28 18.73c-.24.41-.47.83-.7 1.25-.68 1.22-1.34 2.48-2 3.78s-1.18 2.33-1.76 3.54c-.5 1-1 2.11-1.5 3.2-.41.89-.82 1.81-1.23 2.74l-.79 1.81c-2.93 2-6.3 3.08-7.91 1.17l-1.67-3-1.52-2.74-.26-.46-1.42-2.53-2.17-3.9-1.33-2.35-2.2-3.94c-1.47-2.35 3.67-7.77 5.73-4.4l2.71 4.59 1.39 2.34 3.68 6.25.27.46.38-.58c2.58-4 5.25-7.83 7.95-11.4.55-.73 1.1-1.44 1.65-2.14l.6-.76c.29-.38.59-.75.88-1.11l1-1.25a1.68 1.68 0 0 1 .18-.21 99.5 99.5 0 0 1 11.13-11.58c2.21-.22 2.91.65 2.19 2.49zm-36.21 23.61l-1.33-2.37-12 7.21q.33.9.72 1.77l2.28-.42 12.47-2.29zm18.47 3.69c-.5 1-1 2.11-1.5 3.2h.48a2.84 2.84 0 0 0 2.78-2.89v-3.85c-.6 1.15-1.18 2.33-1.76 3.54zm3.18-16.71l-.91.55-.51.3v-3.35l-1.31-7.72-3.94-7.13 1.37 8.06 2.47 4.45a4.09 4.09 0 0 1 .28.7 3.08 3.08 0 0 1-.12 1.83 2.93 2.93 0 0 1-.35.65 3.22 3.22 0 0 1-.24.28 2.14 2.14 0 0 1-.59.48l-6.87 4.13-5.78 3.47-.21.13 1.39 2.34 3.68 6.25.27.46.38-.58c2.58-4 5.25-7.83 7.95-11.4.55-.73 1.1-1.44 1.65-2.14l.6-.76c.29-.38.59-.75.88-1.11a.09.09 0 0 1-.09.11zm-3.18 16.71c-.5 1-1 2.11-1.5 3.2h.48a2.84 2.84 0 0 0 2.78-2.89v-3.85c-.6 1.15-1.18 2.33-1.76 3.54zm3.18-16.71l-.91.55-.51.3v-3.35l-1.31-7.72-3.94-7.13 1.37 8.06 2.47 4.45a4.09 4.09 0 0 1 .28.7 3.08 3.08 0 0 1-.12 1.83 2.93 2.93 0 0 1-.35.65 3.22 3.22 0 0 1-.24.28 2.14 2.14 0 0 1-.59.48l-6.87 4.13-5.78 3.47-.21.13 1.39 2.34 3.68 6.25.27.46.38-.58c2.58-4 5.25-7.83 7.95-11.4.55-.73 1.1-1.44 1.65-2.14l.6-.76c.29-.38.59-.75.88-1.11a.09.09 0 0 1-.09.11zm0 0l-.91.55-.51.3v-3.35l-1.31-7.72-3.94-7.13 1.37 8.06 2.47 4.45a4.09 4.09 0 0 1 .28.7 3.08 3.08 0 0 1-.12 1.83 2.93 2.93 0 0 1-.35.65 3.22 3.22 0 0 1-.24.28 2.14 2.14 0 0 1-.59.48l-6.87 4.13-5.78 3.47-.21.13 1.39 2.34 3.68 6.25.27.46.38-.58c2.58-4 5.25-7.83 7.95-11.4.55-.73 1.1-1.44 1.65-2.14l.6-.76c.29-.38.59-.75.88-1.11a.09.09 0 0 1-.09.11zm0 0l-.91.55-.51.3v1l.6-.76c.29-.38.59-.75.88-1.11a.09.09 0 0 1-.06.02z"/><path class="cls-6" d="M818 354.06l-1 1.25"/><path class="cls-2" d="M526.5 288.1h175.55v1.18H526.5c-6.09 0-11 3.94-11 8.78v69.79c0 4.85 4.94 8.79 11 8.79h175.55v1.18H526.5c-6.9 0-12.52-4.47-12.52-10v-69.76c.02-5.49 5.62-9.96 12.52-9.96z"/><text class="cls-3" transform="translate(539.01 313.09)">Activate MItigation <tspan x="3.32" y="16.02">and Preparedness </tspan><tspan x="3.86" y="32.03">of the Emergen</tspan><tspan class="cls-7" x="96.6" y="32.03">c</tspan><tspan x="102.88" y="32.03">y </tspan><tspan x="42.04" y="48.05">Plan.</tspan></text><circle class="cls-1" cx="397.34" cy="165.85" r="88.78"/><path class="cls-2" d="M426.4 138.38l.07.09zm2.98 13.62v-13.83a3.74 3.74 0 0 0-.12-.45 1.93 1.93 0 0 0-.11-.29 3 3 0 0 0-.53-.79l-.06-.07a1.19 1.19 0 0 0-.22-.33l-23.16-24.8a1.18 1.18 0 0 0-.31-.24l-.1-.13-.2-.13a2.8 2.8 0 0 0-.68-.43c-.07 0-.15-.06-.21-.09a3.18 3.18 0 0 0-.74-.17 1.42 1.42 0 0 0-.31 0h-53.96a3 3 0 0 0-3 3v105.18a3 3 0 0 0 2.69 3 2.14 2.14 0 0 0 .32 0h78a3 3 0 0 0 2.73-3v-40.24c-.71 1-1.42 1.92-2.1 2.91l-.69 1v36.32a.25.25 0 0 1-.21.25h-77.77a.25.25 0 0 1-.22-.25V113.28a.25.25 0 0 1 .25-.25h54.06l.15.13.1.12v23.75a1.24 1.24 0 0 0 1.24 1.23h22.09l.14.15.09.09v16.6a24.55 24.55 0 0 0 2.84-3.1zm-24-16.08v-20l18.7 20z"/><path class="cls-2" d="M356.65 181.86l38.27.1a1.65 1.65 0 0 0 0-3.29l-38.27-.1a1.65 1.65 0 0 0 0 3.29zm0 13.04h40.66a1.65 1.65 0 0 0 0-3.29h-40.66a1.65 1.65 0 0 0 0 3.29zm51.5 9.75h-51.5a1.65 1.65 0 0 0 0 3.29h51.5a1.65 1.65 0 0 0 0-3.29z"/><path d="M439.42 142.44a2.11 2.11 0 0 1 2.95-.37l1.28-1.65a2.1 2.1 0 0 1 2.94-.37l1.66 1.29a2.1 2.1 0 0 1 .36 2.94l-1.28 1.65a2.1 2.1 0 0 1 .36 2.94l-29.59 38-9.74 5.69-.64.83a1.05 1.05 0 0 1-1.66-1.29l.64-.83 3.13-10.84 29.59-38zM428.3 167a1 1 0 1 1-1.65-1.29l13.51-17.36-1.66-1.35-25.73 33.08 5 3.86 25.74-33.08-1.66-1.28L428.3 167zm16.45-17.73l1.29-1.65-5-3.86-1.29 1.65 5 3.86zm-35 39.12l.73.58 5.85-3.42-4.71-3.66-1.87 6.5zm35.93-43.71L447 143l-1.65-1.28-1.35 1.64z" fill-rule="evenodd" fill="#2d98d4"/><path class="cls-2" d="M398.84 159.84l-20-33.49a.8.8 0 0 0-1.36 0l-20 33.49a.8.8 0 0 0 .69 1.2h40a.8.8 0 0 0 .67-1.2zm-4.21-.67h-32.92A.8.8 0 0 1 361 158l16.46-28.5a.79.79 0 0 1 1.37 0l16.48 28.5a.79.79 0 0 1-.68 1.17z"/><path class="cls-2" d="M378.39 139a1.14 1.14 0 0 0-1.13 1.13l.41 8.48a.74.74 0 0 0 .74.7.71.71 0 0 0 .5-.21.73.73 0 0 0 .23-.49l.38-8.48a1.14 1.14 0 0 0-1.13-1.13zm0 13.14a1.07 1.07 0 1 0 0 2.13 1.07 1.07 0 0 0 0-2.13z"/><text class="cls-3" transform="translate(349.32 63.62)">Record an aler<tspan class="cls-7" x="85.22" y="0">t</tspan><tspan x="90.54" y="0">.</tspan></text><path class="cls-2" d="M459.31 16.49H335.38a8.71 8.71 0 0 0-8.71 8.71v84.21h1.49V25.2a7.23 7.23 0 0 1 7.22-7.2h123.93a7.23 7.23 0 0 1 7.22 7.22v84.21H468V25.2a8.71 8.71 0 0 0-8.69-8.71z"/><circle class="cls-1" cx="607.79" cy="1525.76" r="88.78"/><path class="cls-2" d="M607.79 1585.3a59.54 59.54 0 1 1 59.54-59.54 59.61 59.61 0 0 1-59.54 59.54zm0-112.67a53.13 53.13 0 1 0 53.13 53.13 53.19 53.19 0 0 0-53.13-53.13z"/><path class="cls-2" d="M569.62 1514.57h76.34v22.38h-76.34z"/><text class="cls-3" transform="translate(550.98 1633.8)">Mark the end of an <tspan x="13.65" y="16.02">incident event</tspan></text><path class="cls-2" d="M669.75 1673.82H545.83a8.71 8.71 0 0 1-8.71-8.7v-84.21h1.48v84.21a7.23 7.23 0 0 0 7.23 7.22h123.92a7.24 7.24 0 0 0 7.23-7.22v-84.21h1.48v84.21a8.71 8.71 0 0 1-8.71 8.7z"/><path d="M500.05 147.06l213.93 102.01M310.49 427.16l184.06-90.44m20.43 536.97l184.06-90.45m-183.01 492.9l184.06-90.45m-376.58-568.6l158.02 70.07M339.57 959.61l158.02 70.08m-136.53 363.24l132.36 111.19" stroke="#2d98d4" stroke-miterlimit="10" stroke-width="2" fill="none"/></svg>