<svg id="Layer_1" data-name="Layer 1" xmlns="http://www.w3.org/2000/svg" viewBox="0 0 500 500"><defs><style>.cls-2{fill:#2d98d4}</style></defs><circle cx="253.04" cy="253.79" r="167.19" opacity=".19" fill="#2d98d4"/><path class="cls-2" d="M253.05 53.79c-110.47 0-200 89.54-200 200s89.54 200 200 200 200-89.54 200-200-89.54-200-200-200zm0 385.49c-102.45 0-185.49-83-185.49-185.49a185.49 185.49 0 1 1 371 0c-.03 102.44-83.07 185.49-185.56 185.49z"/><path class="cls-2" d="M229.24 259.18c-.28.33-.55.66-.83 1a32.65 32.65 0 0 0-5.82 12.41 3.35 3.35 0 0 1-6.56-1.36 35.76 35.76 0 0 1 6.7-15.38c.35-.46.72-.9 1.07-1.33a3.34 3.34 0 0 1 4.59-.47l.35.27a3.37 3.37 0 0 1 .5 4.86z"/><path class="cls-2" d="M300.12 233.52a61.76 61.76 0 0 0-105.5 43.67v79.9h123.66v-79.9a61.62 61.62 0 0 0-18.16-43.67zm-95.32 45.16a51.64 51.64 0 0 1 103.28 0v66.73H204.8z"/><path class="cls-2" d="M341.21 351.64a5.82 5.82 0 0 1-5.81 5.81H175.64a5.81 5.81 0 0 1 0-11.62H335.4a5.83 5.83 0 0 1 5.81 5.81z"/><rect class="cls-2" x="154.98" y="191.06" width="34.59" height="8.59" rx="3.01" transform="rotate(30 172.286 195.356)"/><rect class="cls-2" x="134.98" y="253.05" width="34.59" height="8.59" rx="3.02"/><rect class="cls-2" x="336.52" y="253.05" width="34.59" height="8.59" rx="3.01" transform="rotate(-180 353.81 257.345)"/><rect class="cls-2" x="318.54" y="191.06" width="34.59" height="8.59" rx="3.02" transform="rotate(150 335.833 195.354)"/><rect class="cls-2" x="236.25" y="163.12" width="34.59" height="8.59" rx="3.01" transform="rotate(90 253.545 167.415)"/></svg>